%TF.GenerationSoftware,KiCad,Pcbnew,8.0.9*%
%TF.CreationDate,2025-03-06T21:03:41+08:00*%
%TF.ProjectId,CCD_Sensor_ZYNQ,4343445f-5365-46e7-936f-725f5a594e51,rev?*%
%TF.SameCoordinates,Original*%
%TF.FileFunction,Legend,Top*%
%TF.FilePolarity,Positive*%
%FSLAX46Y46*%
G04 Gerber Fmt 4.6, Leading zero omitted, Abs format (unit mm)*
G04 Created by KiCad (PCBNEW 8.0.9) date 2025-03-06 21:03:41*
%MOMM*%
%LPD*%
G01*
G04 APERTURE LIST*
%ADD10C,0.100000*%
%ADD11C,0.400000*%
%ADD12C,0.250000*%
%ADD13C,0.120000*%
%ADD14C,0.200000*%
%ADD15C,0.150000*%
%ADD16C,0.203200*%
%ADD17C,0.254000*%
%ADD18C,0.127000*%
G04 APERTURE END LIST*
D10*
X176000000Y-78002146D02*
X220000000Y-78002146D01*
X220000000Y-110002146D01*
X176000000Y-110002146D01*
X176000000Y-78002146D01*
D11*
X182034438Y-99310652D02*
X180034438Y-99310652D01*
X180034438Y-99310652D02*
X180034438Y-98834462D01*
X180034438Y-98834462D02*
X180129676Y-98548747D01*
X180129676Y-98548747D02*
X180320152Y-98358271D01*
X180320152Y-98358271D02*
X180510628Y-98263033D01*
X180510628Y-98263033D02*
X180891580Y-98167795D01*
X180891580Y-98167795D02*
X181177295Y-98167795D01*
X181177295Y-98167795D02*
X181558247Y-98263033D01*
X181558247Y-98263033D02*
X181748723Y-98358271D01*
X181748723Y-98358271D02*
X181939200Y-98548747D01*
X181939200Y-98548747D02*
X182034438Y-98834462D01*
X182034438Y-98834462D02*
X182034438Y-99310652D01*
X182034438Y-97310652D02*
X180034438Y-97310652D01*
X181939200Y-96453509D02*
X182034438Y-96167795D01*
X182034438Y-96167795D02*
X182034438Y-95691604D01*
X182034438Y-95691604D02*
X181939200Y-95501128D01*
X181939200Y-95501128D02*
X181843961Y-95405890D01*
X181843961Y-95405890D02*
X181653485Y-95310652D01*
X181653485Y-95310652D02*
X181463009Y-95310652D01*
X181463009Y-95310652D02*
X181272533Y-95405890D01*
X181272533Y-95405890D02*
X181177295Y-95501128D01*
X181177295Y-95501128D02*
X181082057Y-95691604D01*
X181082057Y-95691604D02*
X180986819Y-96072557D01*
X180986819Y-96072557D02*
X180891580Y-96263033D01*
X180891580Y-96263033D02*
X180796342Y-96358271D01*
X180796342Y-96358271D02*
X180605866Y-96453509D01*
X180605866Y-96453509D02*
X180415390Y-96453509D01*
X180415390Y-96453509D02*
X180224914Y-96358271D01*
X180224914Y-96358271D02*
X180129676Y-96263033D01*
X180129676Y-96263033D02*
X180034438Y-96072557D01*
X180034438Y-96072557D02*
X180034438Y-95596366D01*
X180034438Y-95596366D02*
X180129676Y-95310652D01*
X182034438Y-94453509D02*
X180034438Y-94453509D01*
X180034438Y-94453509D02*
X180034438Y-93691604D01*
X180034438Y-93691604D02*
X180129676Y-93501128D01*
X180129676Y-93501128D02*
X180224914Y-93405890D01*
X180224914Y-93405890D02*
X180415390Y-93310652D01*
X180415390Y-93310652D02*
X180701104Y-93310652D01*
X180701104Y-93310652D02*
X180891580Y-93405890D01*
X180891580Y-93405890D02*
X180986819Y-93501128D01*
X180986819Y-93501128D02*
X181082057Y-93691604D01*
X181082057Y-93691604D02*
X181082057Y-94453509D01*
X182034438Y-91501128D02*
X182034438Y-92453509D01*
X182034438Y-92453509D02*
X180034438Y-92453509D01*
X181463009Y-90929699D02*
X181463009Y-89977318D01*
X182034438Y-91120175D02*
X180034438Y-90453509D01*
X180034438Y-90453509D02*
X182034438Y-89786842D01*
X181082057Y-88739223D02*
X182034438Y-88739223D01*
X180034438Y-89405889D02*
X181082057Y-88739223D01*
X181082057Y-88739223D02*
X180034438Y-88072556D01*
D12*
X263149711Y-97304619D02*
X263721139Y-97304619D01*
X263435425Y-98304619D02*
X263435425Y-97304619D01*
X264054473Y-98304619D02*
X264054473Y-97304619D01*
X264054473Y-97304619D02*
X264292568Y-97304619D01*
X264292568Y-97304619D02*
X264435425Y-97352238D01*
X264435425Y-97352238D02*
X264530663Y-97447476D01*
X264530663Y-97447476D02*
X264578282Y-97542714D01*
X264578282Y-97542714D02*
X264625901Y-97733190D01*
X264625901Y-97733190D02*
X264625901Y-97876047D01*
X264625901Y-97876047D02*
X264578282Y-98066523D01*
X264578282Y-98066523D02*
X264530663Y-98161761D01*
X264530663Y-98161761D02*
X264435425Y-98257000D01*
X264435425Y-98257000D02*
X264292568Y-98304619D01*
X264292568Y-98304619D02*
X264054473Y-98304619D01*
X265244949Y-97304619D02*
X265435425Y-97304619D01*
X265435425Y-97304619D02*
X265530663Y-97352238D01*
X265530663Y-97352238D02*
X265625901Y-97447476D01*
X265625901Y-97447476D02*
X265673520Y-97637952D01*
X265673520Y-97637952D02*
X265673520Y-97971285D01*
X265673520Y-97971285D02*
X265625901Y-98161761D01*
X265625901Y-98161761D02*
X265530663Y-98257000D01*
X265530663Y-98257000D02*
X265435425Y-98304619D01*
X265435425Y-98304619D02*
X265244949Y-98304619D01*
X265244949Y-98304619D02*
X265149711Y-98257000D01*
X265149711Y-98257000D02*
X265054473Y-98161761D01*
X265054473Y-98161761D02*
X265006854Y-97971285D01*
X265006854Y-97971285D02*
X265006854Y-97637952D01*
X265006854Y-97637952D02*
X265054473Y-97447476D01*
X265054473Y-97447476D02*
X265149711Y-97352238D01*
X265149711Y-97352238D02*
X265244949Y-97304619D01*
D11*
X239364109Y-115269200D02*
X239649823Y-115364438D01*
X239649823Y-115364438D02*
X240126014Y-115364438D01*
X240126014Y-115364438D02*
X240316490Y-115269200D01*
X240316490Y-115269200D02*
X240411728Y-115173961D01*
X240411728Y-115173961D02*
X240506966Y-114983485D01*
X240506966Y-114983485D02*
X240506966Y-114793009D01*
X240506966Y-114793009D02*
X240411728Y-114602533D01*
X240411728Y-114602533D02*
X240316490Y-114507295D01*
X240316490Y-114507295D02*
X240126014Y-114412057D01*
X240126014Y-114412057D02*
X239745061Y-114316819D01*
X239745061Y-114316819D02*
X239554585Y-114221580D01*
X239554585Y-114221580D02*
X239459347Y-114126342D01*
X239459347Y-114126342D02*
X239364109Y-113935866D01*
X239364109Y-113935866D02*
X239364109Y-113745390D01*
X239364109Y-113745390D02*
X239459347Y-113554914D01*
X239459347Y-113554914D02*
X239554585Y-113459676D01*
X239554585Y-113459676D02*
X239745061Y-113364438D01*
X239745061Y-113364438D02*
X240221252Y-113364438D01*
X240221252Y-113364438D02*
X240506966Y-113459676D01*
X241364109Y-115364438D02*
X241364109Y-113364438D01*
X241364109Y-113364438D02*
X241840299Y-113364438D01*
X241840299Y-113364438D02*
X242126014Y-113459676D01*
X242126014Y-113459676D02*
X242316490Y-113650152D01*
X242316490Y-113650152D02*
X242411728Y-113840628D01*
X242411728Y-113840628D02*
X242506966Y-114221580D01*
X242506966Y-114221580D02*
X242506966Y-114507295D01*
X242506966Y-114507295D02*
X242411728Y-114888247D01*
X242411728Y-114888247D02*
X242316490Y-115078723D01*
X242316490Y-115078723D02*
X242126014Y-115269200D01*
X242126014Y-115269200D02*
X241840299Y-115364438D01*
X241840299Y-115364438D02*
X241364109Y-115364438D01*
X244506966Y-115173961D02*
X244411728Y-115269200D01*
X244411728Y-115269200D02*
X244126014Y-115364438D01*
X244126014Y-115364438D02*
X243935538Y-115364438D01*
X243935538Y-115364438D02*
X243649823Y-115269200D01*
X243649823Y-115269200D02*
X243459347Y-115078723D01*
X243459347Y-115078723D02*
X243364109Y-114888247D01*
X243364109Y-114888247D02*
X243268871Y-114507295D01*
X243268871Y-114507295D02*
X243268871Y-114221580D01*
X243268871Y-114221580D02*
X243364109Y-113840628D01*
X243364109Y-113840628D02*
X243459347Y-113650152D01*
X243459347Y-113650152D02*
X243649823Y-113459676D01*
X243649823Y-113459676D02*
X243935538Y-113364438D01*
X243935538Y-113364438D02*
X244126014Y-113364438D01*
X244126014Y-113364438D02*
X244411728Y-113459676D01*
X244411728Y-113459676D02*
X244506966Y-113554914D01*
X245268871Y-114793009D02*
X246221252Y-114793009D01*
X245078395Y-115364438D02*
X245745061Y-113364438D01*
X245745061Y-113364438D02*
X246411728Y-115364438D01*
X248221252Y-115364438D02*
X247554585Y-114412057D01*
X247078395Y-115364438D02*
X247078395Y-113364438D01*
X247078395Y-113364438D02*
X247840300Y-113364438D01*
X247840300Y-113364438D02*
X248030776Y-113459676D01*
X248030776Y-113459676D02*
X248126014Y-113554914D01*
X248126014Y-113554914D02*
X248221252Y-113745390D01*
X248221252Y-113745390D02*
X248221252Y-114031104D01*
X248221252Y-114031104D02*
X248126014Y-114221580D01*
X248126014Y-114221580D02*
X248030776Y-114316819D01*
X248030776Y-114316819D02*
X247840300Y-114412057D01*
X247840300Y-114412057D02*
X247078395Y-114412057D01*
X249078395Y-115364438D02*
X249078395Y-113364438D01*
X249078395Y-113364438D02*
X249554585Y-113364438D01*
X249554585Y-113364438D02*
X249840300Y-113459676D01*
X249840300Y-113459676D02*
X250030776Y-113650152D01*
X250030776Y-113650152D02*
X250126014Y-113840628D01*
X250126014Y-113840628D02*
X250221252Y-114221580D01*
X250221252Y-114221580D02*
X250221252Y-114507295D01*
X250221252Y-114507295D02*
X250126014Y-114888247D01*
X250126014Y-114888247D02*
X250030776Y-115078723D01*
X250030776Y-115078723D02*
X249840300Y-115269200D01*
X249840300Y-115269200D02*
X249554585Y-115364438D01*
X249554585Y-115364438D02*
X249078395Y-115364438D01*
D12*
X263886377Y-92062238D02*
X263791139Y-92014619D01*
X263791139Y-92014619D02*
X263648282Y-92014619D01*
X263648282Y-92014619D02*
X263505425Y-92062238D01*
X263505425Y-92062238D02*
X263410187Y-92157476D01*
X263410187Y-92157476D02*
X263362568Y-92252714D01*
X263362568Y-92252714D02*
X263314949Y-92443190D01*
X263314949Y-92443190D02*
X263314949Y-92586047D01*
X263314949Y-92586047D02*
X263362568Y-92776523D01*
X263362568Y-92776523D02*
X263410187Y-92871761D01*
X263410187Y-92871761D02*
X263505425Y-92967000D01*
X263505425Y-92967000D02*
X263648282Y-93014619D01*
X263648282Y-93014619D02*
X263743520Y-93014619D01*
X263743520Y-93014619D02*
X263886377Y-92967000D01*
X263886377Y-92967000D02*
X263933996Y-92919380D01*
X263933996Y-92919380D02*
X263933996Y-92586047D01*
X263933996Y-92586047D02*
X263743520Y-92586047D01*
X264362568Y-93014619D02*
X264362568Y-92014619D01*
X264362568Y-92014619D02*
X264933996Y-93014619D01*
X264933996Y-93014619D02*
X264933996Y-92014619D01*
X265410187Y-93014619D02*
X265410187Y-92014619D01*
X265410187Y-92014619D02*
X265648282Y-92014619D01*
X265648282Y-92014619D02*
X265791139Y-92062238D01*
X265791139Y-92062238D02*
X265886377Y-92157476D01*
X265886377Y-92157476D02*
X265933996Y-92252714D01*
X265933996Y-92252714D02*
X265981615Y-92443190D01*
X265981615Y-92443190D02*
X265981615Y-92586047D01*
X265981615Y-92586047D02*
X265933996Y-92776523D01*
X265933996Y-92776523D02*
X265886377Y-92871761D01*
X265886377Y-92871761D02*
X265791139Y-92967000D01*
X265791139Y-92967000D02*
X265648282Y-93014619D01*
X265648282Y-93014619D02*
X265410187Y-93014619D01*
X263169711Y-94534619D02*
X263741139Y-94534619D01*
X263455425Y-95534619D02*
X263455425Y-94534619D01*
X264074473Y-95534619D02*
X264074473Y-94534619D01*
X264074473Y-94534619D02*
X264312568Y-94534619D01*
X264312568Y-94534619D02*
X264455425Y-94582238D01*
X264455425Y-94582238D02*
X264550663Y-94677476D01*
X264550663Y-94677476D02*
X264598282Y-94772714D01*
X264598282Y-94772714D02*
X264645901Y-94963190D01*
X264645901Y-94963190D02*
X264645901Y-95106047D01*
X264645901Y-95106047D02*
X264598282Y-95296523D01*
X264598282Y-95296523D02*
X264550663Y-95391761D01*
X264550663Y-95391761D02*
X264455425Y-95487000D01*
X264455425Y-95487000D02*
X264312568Y-95534619D01*
X264312568Y-95534619D02*
X264074473Y-95534619D01*
X265074473Y-95534619D02*
X265074473Y-94534619D01*
X263169711Y-102324619D02*
X263741139Y-102324619D01*
X263455425Y-103324619D02*
X263455425Y-102324619D01*
X264074473Y-103324619D02*
X264074473Y-102324619D01*
X264074473Y-102324619D02*
X264407806Y-103038904D01*
X264407806Y-103038904D02*
X264741139Y-102324619D01*
X264741139Y-102324619D02*
X264741139Y-103324619D01*
X265169711Y-103277000D02*
X265312568Y-103324619D01*
X265312568Y-103324619D02*
X265550663Y-103324619D01*
X265550663Y-103324619D02*
X265645901Y-103277000D01*
X265645901Y-103277000D02*
X265693520Y-103229380D01*
X265693520Y-103229380D02*
X265741139Y-103134142D01*
X265741139Y-103134142D02*
X265741139Y-103038904D01*
X265741139Y-103038904D02*
X265693520Y-102943666D01*
X265693520Y-102943666D02*
X265645901Y-102896047D01*
X265645901Y-102896047D02*
X265550663Y-102848428D01*
X265550663Y-102848428D02*
X265360187Y-102800809D01*
X265360187Y-102800809D02*
X265264949Y-102753190D01*
X265264949Y-102753190D02*
X265217330Y-102705571D01*
X265217330Y-102705571D02*
X265169711Y-102610333D01*
X265169711Y-102610333D02*
X265169711Y-102515095D01*
X265169711Y-102515095D02*
X265217330Y-102419857D01*
X265217330Y-102419857D02*
X265264949Y-102372238D01*
X265264949Y-102372238D02*
X265360187Y-102324619D01*
X265360187Y-102324619D02*
X265598282Y-102324619D01*
X265598282Y-102324619D02*
X265741139Y-102372238D01*
X263139711Y-99814619D02*
X263711139Y-99814619D01*
X263425425Y-100814619D02*
X263425425Y-99814619D01*
X264615901Y-100719380D02*
X264568282Y-100767000D01*
X264568282Y-100767000D02*
X264425425Y-100814619D01*
X264425425Y-100814619D02*
X264330187Y-100814619D01*
X264330187Y-100814619D02*
X264187330Y-100767000D01*
X264187330Y-100767000D02*
X264092092Y-100671761D01*
X264092092Y-100671761D02*
X264044473Y-100576523D01*
X264044473Y-100576523D02*
X263996854Y-100386047D01*
X263996854Y-100386047D02*
X263996854Y-100243190D01*
X263996854Y-100243190D02*
X264044473Y-100052714D01*
X264044473Y-100052714D02*
X264092092Y-99957476D01*
X264092092Y-99957476D02*
X264187330Y-99862238D01*
X264187330Y-99862238D02*
X264330187Y-99814619D01*
X264330187Y-99814619D02*
X264425425Y-99814619D01*
X264425425Y-99814619D02*
X264568282Y-99862238D01*
X264568282Y-99862238D02*
X264615901Y-99909857D01*
X265044473Y-100814619D02*
X265044473Y-99814619D01*
X265615901Y-100814619D02*
X265187330Y-100243190D01*
X265615901Y-99814619D02*
X265044473Y-100386047D01*
D13*
%TO.C,R7*%
X206440000Y-102804724D02*
X206440000Y-102295276D01*
X207485000Y-102804724D02*
X207485000Y-102295276D01*
%TO.C,C4*%
X247412013Y-91325268D02*
X247704547Y-91325268D01*
X247412013Y-92345268D02*
X247704547Y-92345268D01*
%TO.C,C38*%
X237586253Y-69740002D02*
X237063749Y-69740002D01*
X237586253Y-71210002D02*
X237063749Y-71210002D01*
%TO.C,C31*%
X190302500Y-115061252D02*
X190302500Y-114538748D01*
X191772500Y-115061252D02*
X191772500Y-114538748D01*
%TO.C,C12*%
X204415000Y-100338748D02*
X204415000Y-100861252D01*
X205885000Y-100338748D02*
X205885000Y-100861252D01*
D14*
%TO.C,U2*%
X236300000Y-74525000D02*
X237325002Y-74525000D01*
X236300000Y-75550002D02*
X236300000Y-74525000D01*
X236300000Y-79975002D02*
X236300000Y-79775000D01*
X236300000Y-79975002D02*
X236500002Y-79975002D01*
X241550000Y-74525000D02*
X241750002Y-74525000D01*
X241550000Y-79975002D02*
X241750002Y-79975002D01*
X241750002Y-74725002D02*
X241750002Y-74525000D01*
X241750002Y-79975002D02*
X241750002Y-79775000D01*
D13*
%TO.C,R1*%
X247845538Y-88062768D02*
X247371022Y-88062768D01*
X247845538Y-89107768D02*
X247371022Y-89107768D01*
D15*
%TO.C,U3*%
X210132200Y-66084800D02*
X210132200Y-65509800D01*
X210132200Y-76159800D02*
X210132200Y-75584800D01*
X215882200Y-65509800D02*
X210132200Y-65509800D01*
X215882200Y-66084800D02*
X215882200Y-65509800D01*
X215882200Y-76159800D02*
X210132200Y-76159800D01*
X215882200Y-76159800D02*
X215882200Y-75584800D01*
D13*
X216622200Y-75914800D02*
X216142200Y-75914800D01*
X216382200Y-75584800D01*
X216622200Y-75914800D01*
G36*
X216622200Y-75914800D02*
G01*
X216142200Y-75914800D01*
X216382200Y-75584800D01*
X216622200Y-75914800D01*
G37*
%TO.C,FB1*%
X219687779Y-71940000D02*
X219362221Y-71940000D01*
X219687779Y-72960000D02*
X219362221Y-72960000D01*
%TO.C,C20*%
X213940000Y-77759420D02*
X213940000Y-78040580D01*
X214960000Y-77759420D02*
X214960000Y-78040580D01*
D16*
%TO.C,MICRO_SD1*%
X237260000Y-111650000D02*
X237260000Y-118150000D01*
X237260000Y-121650000D02*
X237260980Y-123900000D01*
X237260980Y-123900000D02*
X252059020Y-123912700D01*
X248160000Y-109400000D02*
X250398000Y-109400000D01*
X252059020Y-123912700D02*
X252060000Y-122150000D01*
X252060000Y-118150000D02*
X252060000Y-111650000D01*
D17*
X248082650Y-108665510D02*
G75*
G02*
X247828650Y-108665510I-127000J0D01*
G01*
X247828650Y-108665510D02*
G75*
G02*
X248082650Y-108665510I127000J0D01*
G01*
D13*
%TO.C,U5*%
X203548280Y-87560268D02*
X203548280Y-85610268D01*
X203548280Y-87560268D02*
X203548280Y-89510268D01*
X208668280Y-87560268D02*
X208668280Y-85610268D01*
X208668280Y-87560268D02*
X208668280Y-89510268D01*
X203643280Y-90260268D02*
X203313280Y-90500268D01*
X203313280Y-90020268D01*
X203643280Y-90260268D01*
G36*
X203643280Y-90260268D02*
G01*
X203313280Y-90500268D01*
X203313280Y-90020268D01*
X203643280Y-90260268D01*
G37*
%TO.C,R6*%
X202690000Y-100495276D02*
X202690000Y-101004724D01*
X203735000Y-100495276D02*
X203735000Y-101004724D01*
%TO.C,U11*%
X193548280Y-91197768D02*
X193548280Y-89247768D01*
X193548280Y-91197768D02*
X193548280Y-93147768D01*
X198668280Y-91197768D02*
X198668280Y-89247768D01*
X198668280Y-91197768D02*
X198668280Y-93147768D01*
X193643280Y-93897768D02*
X193313280Y-94137768D01*
X193313280Y-93657768D01*
X193643280Y-93897768D01*
G36*
X193643280Y-93897768D02*
G01*
X193313280Y-94137768D01*
X193313280Y-93657768D01*
X193643280Y-93897768D01*
G37*
%TO.C,D2*%
X245318280Y-84035268D02*
X241308280Y-84035268D01*
X245318280Y-86035268D02*
X241308280Y-86035268D01*
X245318280Y-86035268D02*
X245318280Y-84035268D01*
%TO.C,C5*%
X241173280Y-98596520D02*
X241173280Y-98074016D01*
X242643280Y-98596520D02*
X242643280Y-98074016D01*
%TO.C,R17*%
X246402501Y-78062260D02*
X246402501Y-77587744D01*
X247447501Y-78062260D02*
X247447501Y-77587744D01*
%TO.C,L5*%
X245074623Y-71615002D02*
X244275379Y-71615002D01*
X245074623Y-72735002D02*
X244275379Y-72735002D01*
%TO.C,J4*%
X254000000Y-120305000D02*
X254000000Y-122225000D01*
X254000000Y-125940000D02*
X254000000Y-124235000D01*
X263160000Y-122225000D02*
X263160000Y-120305000D01*
X263160000Y-124235000D02*
X263160000Y-125940000D01*
X263160000Y-125940000D02*
X254000000Y-125940000D01*
%TO.C,C1*%
X240698280Y-88181535D02*
X240698280Y-87889001D01*
X241718280Y-88181535D02*
X241718280Y-87889001D01*
%TO.C,C39*%
X237465581Y-71765002D02*
X237184421Y-71765002D01*
X237465581Y-72785002D02*
X237184421Y-72785002D01*
%TO.C,Q3*%
X195940000Y-69800000D02*
X195940000Y-69150000D01*
X195940000Y-69800000D02*
X195940000Y-70450000D01*
X199060000Y-69800000D02*
X199060000Y-69150000D01*
X199060000Y-69800000D02*
X199060000Y-70450000D01*
X195990000Y-70962500D02*
X195660000Y-71202500D01*
X195660000Y-70722500D01*
X195990000Y-70962500D01*
G36*
X195990000Y-70962500D02*
G01*
X195660000Y-71202500D01*
X195660000Y-70722500D01*
X195990000Y-70962500D01*
G37*
%TO.C,C6*%
X202866233Y-119352500D02*
X203158767Y-119352500D01*
X202866233Y-120372500D02*
X203158767Y-120372500D01*
%TO.C,U7*%
X210987500Y-99190000D02*
X210187500Y-99190000D01*
X210987500Y-99190000D02*
X211787500Y-99190000D01*
X210987500Y-102310000D02*
X210187500Y-102310000D01*
X210987500Y-102310000D02*
X211787500Y-102310000D01*
X209687500Y-99240000D02*
X209447500Y-98910000D01*
X209927500Y-98910000D01*
X209687500Y-99240000D01*
G36*
X209687500Y-99240000D02*
G01*
X209447500Y-98910000D01*
X209927500Y-98910000D01*
X209687500Y-99240000D01*
G37*
%TO.C,L3*%
X212560000Y-96090000D02*
X209540000Y-96090000D01*
X212560000Y-98610000D02*
X209540000Y-98610000D01*
%TO.C,C10*%
X205965000Y-67165580D02*
X205965000Y-66884420D01*
X206985000Y-67165580D02*
X206985000Y-66884420D01*
%TO.C,C34*%
X187390000Y-91053733D02*
X187390000Y-91346267D01*
X188410000Y-91053733D02*
X188410000Y-91346267D01*
%TO.C,C2*%
X247462013Y-86475268D02*
X247754547Y-86475268D01*
X247462013Y-87495268D02*
X247754547Y-87495268D01*
%TO.C,C22*%
X203609420Y-68965000D02*
X203890580Y-68965000D01*
X203609420Y-69985000D02*
X203890580Y-69985000D01*
%TO.C,R15*%
X184995276Y-93890000D02*
X185504724Y-93890000D01*
X184995276Y-94935000D02*
X185504724Y-94935000D01*
%TO.C,C21*%
X203634420Y-70440000D02*
X203915580Y-70440000D01*
X203634420Y-71460000D02*
X203915580Y-71460000D01*
D18*
%TO.C,J2*%
X222550000Y-77400000D02*
X222550000Y-80130000D01*
X222550000Y-77400000D02*
X228550000Y-77400000D01*
X222550000Y-104470000D02*
X222550000Y-107200000D01*
X224615000Y-107200000D02*
X222550000Y-107200000D01*
X228550000Y-77400000D02*
X228550000Y-80130000D01*
X228550000Y-104470000D02*
X228550000Y-107200000D01*
X228550000Y-107200000D02*
X226485000Y-107200000D01*
D14*
X229450000Y-80700000D02*
G75*
G02*
X229250000Y-80700000I-100000J0D01*
G01*
X229250000Y-80700000D02*
G75*
G02*
X229450000Y-80700000I100000J0D01*
G01*
D13*
%TO.C,C17*%
X206965000Y-70390580D02*
X206965000Y-70109420D01*
X207985000Y-70390580D02*
X207985000Y-70109420D01*
%TO.C,U1*%
X244658280Y-90275268D02*
X241658280Y-90275268D01*
X244658280Y-93495268D02*
X241658280Y-93495268D01*
X245208280Y-93665268D02*
X245208280Y-93185268D01*
X245688280Y-93185268D01*
X245208280Y-93665268D01*
G36*
X245208280Y-93665268D02*
G01*
X245208280Y-93185268D01*
X245688280Y-93185268D01*
X245208280Y-93665268D01*
G37*
%TO.C,C30*%
X200915000Y-84388748D02*
X200915000Y-84911252D01*
X202385000Y-84388748D02*
X202385000Y-84911252D01*
%TO.C,C25*%
X248909420Y-103140000D02*
X249190580Y-103140000D01*
X248909420Y-104160000D02*
X249190580Y-104160000D01*
%TO.C,L1*%
X237398280Y-88675268D02*
X240418280Y-88675268D01*
X237398280Y-91195268D02*
X240418280Y-91195268D01*
%TO.C,R9*%
X199602500Y-70162258D02*
X199602500Y-69687742D01*
X200647500Y-70162258D02*
X200647500Y-69687742D01*
%TO.C,L4*%
X188990000Y-91003733D02*
X188990000Y-91346267D01*
X190010000Y-91003733D02*
X190010000Y-91346267D01*
%TO.C,C3*%
X235273280Y-84246520D02*
X235273280Y-83724016D01*
X236743280Y-84246520D02*
X236743280Y-83724016D01*
%TO.C,L6*%
X240368280Y-83725268D02*
X237348280Y-83725268D01*
X240368280Y-86245268D02*
X237348280Y-86245268D01*
%TO.C,C29*%
X194723280Y-84599016D02*
X194723280Y-85121520D01*
X196193280Y-84599016D02*
X196193280Y-85121520D01*
%TO.C,R3*%
X247371022Y-94462768D02*
X247845538Y-94462768D01*
X247371022Y-95507768D02*
X247845538Y-95507768D01*
%TO.C,U6*%
X201890000Y-114862500D02*
X201890000Y-112662500D01*
X201890000Y-114862500D02*
X201890000Y-117062500D01*
X208660000Y-114862500D02*
X208660000Y-112662500D01*
X208660000Y-114862500D02*
X208660000Y-117062500D01*
X202590000Y-119052500D02*
X202110000Y-119052500D01*
X202350000Y-118722500D01*
X202590000Y-119052500D01*
G36*
X202590000Y-119052500D02*
G01*
X202110000Y-119052500D01*
X202350000Y-118722500D01*
X202590000Y-119052500D01*
G37*
%TO.C,Q1*%
X183715000Y-91212500D02*
X183715000Y-90562500D01*
X183715000Y-91212500D02*
X183715000Y-91862500D01*
X186835000Y-91212500D02*
X186835000Y-90562500D01*
X186835000Y-91212500D02*
X186835000Y-91862500D01*
X183765000Y-92375000D02*
X183435000Y-92615000D01*
X183435000Y-92135000D01*
X183765000Y-92375000D01*
G36*
X183765000Y-92375000D02*
G01*
X183435000Y-92615000D01*
X183435000Y-92135000D01*
X183765000Y-92375000D01*
G37*
%TO.C,C16*%
X205490000Y-70365580D02*
X205490000Y-70084420D01*
X206510000Y-70365580D02*
X206510000Y-70084420D01*
%TO.C,R13*%
X189482776Y-111427500D02*
X189992224Y-111427500D01*
X189482776Y-112472500D02*
X189992224Y-112472500D01*
D18*
%TO.C,J1*%
X255570000Y-77400000D02*
X255570000Y-80130000D01*
X255570000Y-77400000D02*
X261570000Y-77400000D01*
X255570000Y-104470000D02*
X255570000Y-107200000D01*
X257635000Y-107200000D02*
X255570000Y-107200000D01*
X261570000Y-77400000D02*
X261570000Y-80130000D01*
X261570000Y-104470000D02*
X261570000Y-107200000D01*
X261570000Y-107200000D02*
X259505000Y-107200000D01*
D14*
X262470000Y-80700000D02*
G75*
G02*
X262270000Y-80700000I-100000J0D01*
G01*
X262270000Y-80700000D02*
G75*
G02*
X262470000Y-80700000I100000J0D01*
G01*
D13*
%TO.C,C24*%
X245740580Y-102977500D02*
X245459420Y-102977500D01*
X245740580Y-103997500D02*
X245459420Y-103997500D01*
%TO.C,C33*%
X190048752Y-109365000D02*
X189526248Y-109365000D01*
X190048752Y-110835000D02*
X189526248Y-110835000D01*
%TO.C,C32*%
X188102500Y-115011252D02*
X188102500Y-114488748D01*
X189572500Y-115011252D02*
X189572500Y-114488748D01*
%TO.C,R4*%
X247346022Y-92912768D02*
X247820538Y-92912768D01*
X247346022Y-93957768D02*
X247820538Y-93957768D01*
%TO.C,R14*%
X192415000Y-112954724D02*
X192415000Y-112445276D01*
X193460000Y-112954724D02*
X193460000Y-112445276D01*
%TO.C,C40*%
X206615000Y-74840580D02*
X206615000Y-74559420D01*
X207635000Y-74840580D02*
X207635000Y-74559420D01*
%TO.C,J5*%
X266770000Y-101460000D02*
X266770000Y-91240000D01*
X266770000Y-104060000D02*
X266770000Y-102730000D01*
X268100000Y-104060000D02*
X266770000Y-104060000D01*
X269430000Y-91240000D02*
X266770000Y-91240000D01*
X269430000Y-101460000D02*
X266770000Y-101460000D01*
X269430000Y-101460000D02*
X269430000Y-91240000D01*
%TO.C,C11*%
X213240000Y-96046267D02*
X213240000Y-95753733D01*
X214260000Y-96046267D02*
X214260000Y-95753733D01*
%TO.C,C37*%
X247690580Y-97377500D02*
X247409420Y-97377500D01*
X247690580Y-98397500D02*
X247409420Y-98397500D01*
%TO.C,C26*%
X198558767Y-64840000D02*
X198266233Y-64840000D01*
X198558767Y-65860000D02*
X198266233Y-65860000D01*
%TO.C,C35*%
X240634421Y-71765002D02*
X240915581Y-71765002D01*
X240634421Y-72785002D02*
X240915581Y-72785002D01*
%TO.C,C7*%
X205766233Y-109502500D02*
X206058767Y-109502500D01*
X205766233Y-110522500D02*
X206058767Y-110522500D01*
%TO.C,C15*%
X200540000Y-73019420D02*
X200540000Y-73300580D01*
X201560000Y-73019420D02*
X201560000Y-73300580D01*
%TO.C,D5*%
X195340000Y-74400000D02*
X195340000Y-76400000D01*
X195340000Y-74400000D02*
X199350000Y-74400000D01*
X195340000Y-76400000D02*
X199350000Y-76400000D01*
%TO.C,C9*%
X243315001Y-77684422D02*
X243315001Y-77965582D01*
X244335001Y-77684422D02*
X244335001Y-77965582D01*
%TO.C,D3*%
X204390000Y-96400000D02*
X204390000Y-98400000D01*
X204390000Y-96400000D02*
X208400000Y-96400000D01*
X204390000Y-98400000D02*
X208400000Y-98400000D01*
%TO.C,R16*%
X187427500Y-86817224D02*
X187427500Y-86307776D01*
X188472500Y-86817224D02*
X188472500Y-86307776D01*
%TO.C,D4*%
X194000000Y-115460000D02*
X194000000Y-111450000D01*
X194000000Y-115460000D02*
X196000000Y-115460000D01*
X196000000Y-115460000D02*
X196000000Y-111450000D01*
%TO.C,C23*%
X219909420Y-73415000D02*
X220190580Y-73415000D01*
X219909420Y-74435000D02*
X220190580Y-74435000D01*
%TO.C,C19*%
X212340000Y-77784420D02*
X212340000Y-78065580D01*
X213360000Y-77784420D02*
X213360000Y-78065580D01*
%TO.C,C36*%
X234040000Y-76609422D02*
X234040000Y-76890582D01*
X235060000Y-76609422D02*
X235060000Y-76890582D01*
%TO.C,L2*%
X240468280Y-92475268D02*
X237448280Y-92475268D01*
X240468280Y-94995268D02*
X237448280Y-94995268D01*
%TO.C,R2*%
X247321022Y-89712768D02*
X247795538Y-89712768D01*
X247321022Y-90757768D02*
X247795538Y-90757768D01*
%TO.C,J3*%
X176120000Y-86397146D02*
X176120000Y-104237146D01*
X176120000Y-86397146D02*
X178780000Y-86397146D01*
X176120000Y-104237146D02*
X178780000Y-104237146D01*
X177450000Y-83797146D02*
X178780000Y-83797146D01*
X178780000Y-83797146D02*
X178780000Y-85127146D01*
X178780000Y-86397146D02*
X178780000Y-104237146D01*
%TO.C,D1*%
X238608280Y-100045268D02*
X238608280Y-96035268D01*
X238608280Y-100045268D02*
X240608280Y-100045268D01*
X240608280Y-100045268D02*
X240608280Y-96035268D01*
%TO.C,C18*%
X203900580Y-71940000D02*
X203619420Y-71940000D01*
X203900580Y-72960000D02*
X203619420Y-72960000D01*
%TO.C,R11*%
X198687258Y-66477500D02*
X198212742Y-66477500D01*
X198687258Y-67522500D02*
X198212742Y-67522500D01*
%TO.C,Q2*%
X183690000Y-86612500D02*
X183690000Y-85962500D01*
X183690000Y-86612500D02*
X183690000Y-87262500D01*
X186810000Y-86612500D02*
X186810000Y-85962500D01*
X186810000Y-86612500D02*
X186810000Y-87262500D01*
X183740000Y-87775000D02*
X183410000Y-88015000D01*
X183410000Y-87535000D01*
X183740000Y-87775000D01*
G36*
X183740000Y-87775000D02*
G01*
X183410000Y-88015000D01*
X183410000Y-87535000D01*
X183740000Y-87775000D01*
G37*
%TO.C,U4*%
X245740000Y-100700000D02*
X245740000Y-99900000D01*
X245740000Y-100700000D02*
X245740000Y-101500000D01*
X248860000Y-100700000D02*
X248860000Y-99900000D01*
X248860000Y-100700000D02*
X248860000Y-101500000D01*
X249140000Y-99640000D02*
X248810000Y-99400000D01*
X249140000Y-99160000D01*
X249140000Y-99640000D01*
G36*
X249140000Y-99640000D02*
G01*
X248810000Y-99400000D01*
X249140000Y-99160000D01*
X249140000Y-99640000D01*
G37*
%TO.C,C8*%
X240563749Y-69740002D02*
X241086253Y-69740002D01*
X240563749Y-71210002D02*
X241086253Y-71210002D01*
%TO.C,D6*%
X244640001Y-77025002D02*
X244640001Y-79310002D01*
X244640001Y-79310002D02*
X246110001Y-79310002D01*
X246110001Y-79310002D02*
X246110001Y-77025002D01*
%TD*%
M02*
