%TF.GenerationSoftware,KiCad,Pcbnew,8.0.9*%
%TF.CreationDate,2025-03-06T21:03:41+08:00*%
%TF.ProjectId,CCD_Sensor_ZYNQ,4343445f-5365-46e7-936f-725f5a594e51,rev?*%
%TF.SameCoordinates,Original*%
%TF.FileFunction,Soldermask,Bot*%
%TF.FilePolarity,Negative*%
%FSLAX46Y46*%
G04 Gerber Fmt 4.6, Leading zero omitted, Abs format (unit mm)*
G04 Created by KiCad (PCBNEW 8.0.9) date 2025-03-06 21:03:41*
%MOMM*%
%LPD*%
G01*
G04 APERTURE LIST*
G04 Aperture macros list*
%AMRoundRect*
0 Rectangle with rounded corners*
0 $1 Rounding radius*
0 $2 $3 $4 $5 $6 $7 $8 $9 X,Y pos of 4 corners*
0 Add a 4 corners polygon primitive as box body*
4,1,4,$2,$3,$4,$5,$6,$7,$8,$9,$2,$3,0*
0 Add four circle primitives for the rounded corners*
1,1,$1+$1,$2,$3*
1,1,$1+$1,$4,$5*
1,1,$1+$1,$6,$7*
1,1,$1+$1,$8,$9*
0 Add four rect primitives between the rounded corners*
20,1,$1+$1,$2,$3,$4,$5,0*
20,1,$1+$1,$4,$5,$6,$7,0*
20,1,$1+$1,$6,$7,$8,$9,0*
20,1,$1+$1,$8,$9,$2,$3,0*%
G04 Aperture macros list end*
%ADD10C,4.700000*%
%ADD11C,0.999997*%
%ADD12C,0.650000*%
%ADD13O,1.000000X2.100000*%
%ADD14O,1.000000X1.800000*%
%ADD15C,0.830000*%
%ADD16C,1.230000*%
%ADD17R,1.700000X1.700000*%
%ADD18O,1.700000X1.700000*%
%ADD19R,1.550000X1.300000*%
%ADD20RoundRect,0.237500X-0.237500X0.300000X-0.237500X-0.300000X0.237500X-0.300000X0.237500X0.300000X0*%
%ADD21RoundRect,0.200000X0.275000X-0.200000X0.275000X0.200000X-0.275000X0.200000X-0.275000X-0.200000X0*%
%ADD22RoundRect,0.250000X-0.475000X0.337500X-0.475000X-0.337500X0.475000X-0.337500X0.475000X0.337500X0*%
%ADD23RoundRect,0.225000X0.250000X-0.225000X0.250000X0.225000X-0.250000X0.225000X-0.250000X-0.225000X0*%
%ADD24O,1.200000X2.000000*%
G04 APERTURE END LIST*
D10*
%TO.C,H6*%
X266650000Y-119002146D03*
%TD*%
%TO.C,H5*%
X266650000Y-69002146D03*
%TD*%
D11*
%TO.C,MICRO_SD1*%
X239656200Y-120180600D03*
X247631800Y-120180600D03*
%TD*%
D12*
%TO.C,J4*%
X255690000Y-119550000D03*
X261470000Y-119550000D03*
D13*
X254260000Y-119030000D03*
D14*
X254260000Y-123230000D03*
D13*
X262900000Y-119030000D03*
D14*
X262900000Y-123230000D03*
%TD*%
D10*
%TO.C,H1*%
X227989523Y-69002146D03*
%TD*%
%TO.C,H3*%
X227989523Y-119002146D03*
%TD*%
D15*
%TO.C,J2*%
X225550000Y-78200000D03*
D16*
X225550000Y-106400000D03*
%TD*%
D10*
%TO.C,H2*%
X177989523Y-69002146D03*
%TD*%
D15*
%TO.C,J1*%
X258570000Y-78200000D03*
D16*
X258570000Y-106400000D03*
%TD*%
D17*
%TO.C,J5*%
X268100000Y-102730000D03*
D18*
X268100000Y-100190000D03*
X268100000Y-97650000D03*
X268100000Y-95110000D03*
X268100000Y-92570000D03*
%TD*%
D17*
%TO.C,J3*%
X177450000Y-85127146D03*
D18*
X177450000Y-87667146D03*
X177450000Y-90207146D03*
X177450000Y-92747146D03*
X177450000Y-95287146D03*
X177450000Y-97827146D03*
X177450000Y-100367146D03*
X177450000Y-102907146D03*
%TD*%
D10*
%TO.C,H4*%
X177989523Y-119002146D03*
%TD*%
D19*
%TO.C,SW3*%
X264130000Y-86900000D03*
X256170000Y-86900000D03*
X264130000Y-91400000D03*
X256170000Y-91400000D03*
%TD*%
D20*
%TO.C,C27*%
X205058280Y-86635268D03*
X205058280Y-88360268D03*
%TD*%
D21*
%TO.C,R10*%
X239250000Y-112850000D03*
X239250000Y-111200000D03*
%TD*%
%TO.C,R5*%
X247250000Y-112750000D03*
X247250000Y-111100000D03*
%TD*%
D19*
%TO.C,SW5*%
X264300000Y-105250000D03*
X256340000Y-105250000D03*
X264300000Y-109750000D03*
X256340000Y-109750000D03*
%TD*%
D21*
%TO.C,R22*%
X240750000Y-112850000D03*
X240750000Y-111200000D03*
%TD*%
D22*
%TO.C,C28*%
X206858280Y-86472768D03*
X206858280Y-88547768D03*
%TD*%
D21*
%TO.C,R12*%
X244250000Y-112750000D03*
X244250000Y-111100000D03*
%TD*%
D19*
%TO.C,SW4*%
X264280000Y-98050000D03*
X256320000Y-98050000D03*
X264280000Y-102550000D03*
X256320000Y-102550000D03*
%TD*%
D21*
%TO.C,R8*%
X245750000Y-112750000D03*
X245750000Y-111100000D03*
%TD*%
D19*
%TO.C,SW6*%
X244230000Y-66300000D03*
X236270000Y-66300000D03*
X244230000Y-70800000D03*
X236270000Y-70800000D03*
%TD*%
%TO.C,SW1*%
X258530000Y-66300000D03*
X250570000Y-66300000D03*
X258530000Y-70800000D03*
X250570000Y-70800000D03*
%TD*%
D22*
%TO.C,C14*%
X196558280Y-90110268D03*
X196558280Y-92185268D03*
%TD*%
D23*
%TO.C,C41*%
X242750000Y-112750000D03*
X242750000Y-111200000D03*
%TD*%
D19*
%TO.C,SW2*%
X264180000Y-79550000D03*
X256220000Y-79550000D03*
X264180000Y-84050000D03*
X256220000Y-84050000D03*
%TD*%
D24*
%TO.C,ICX1*%
X217213523Y-107127146D03*
X215435523Y-107127146D03*
X213657523Y-107127146D03*
X211879523Y-107127146D03*
X210101523Y-107127146D03*
X208323523Y-107127146D03*
X206545523Y-107127146D03*
X204767523Y-107127146D03*
X202989523Y-107127146D03*
X201211523Y-107127146D03*
X199433523Y-107127146D03*
X197655523Y-107127146D03*
X195877523Y-107127146D03*
X194099523Y-107127146D03*
X192321523Y-107127146D03*
X190543523Y-107127146D03*
X188765523Y-107127146D03*
X188765523Y-80877146D03*
X190543523Y-80877146D03*
X192321523Y-80877146D03*
X194099523Y-80877146D03*
X195877523Y-80877146D03*
X197655523Y-80877146D03*
X199433523Y-80877146D03*
X201211523Y-80877146D03*
X202989523Y-80877146D03*
X204767523Y-80877146D03*
X206545523Y-80877146D03*
X208323523Y-80877146D03*
X210101523Y-80877146D03*
X211879523Y-80877146D03*
X213657523Y-80877146D03*
X215435523Y-80877146D03*
X217213523Y-80877146D03*
%TD*%
D20*
%TO.C,C13*%
X198408280Y-90285268D03*
X198408280Y-92010268D03*
%TD*%
M02*
