M48
; DRILL file {KiCad 8.0.9} date 2025-03-06T21:03:38+0800
; FORMAT={-:-/ absolute / inch / decimal}
; #@! TF.CreationDate,2025-03-06T21:03:38+08:00
; #@! TF.GenerationSoftware,Kicad,Pcbnew,8.0.9
; #@! TF.FileFunction,Plated,1,4,PTH
FMAT,2
INCH
; #@! TA.AperFunction,Plated,PTH,ViaDrill
T1C0.0118
; #@! TA.AperFunction,Plated,PTH,ViaDrill
T2C0.0177
; #@! TA.AperFunction,Plated,PTH,ComponentDrill
T3C0.0236
; #@! TA.AperFunction,Plated,PTH,ViaDrill
T4C0.0315
; #@! TA.AperFunction,Plated,PTH,ComponentDrill
T5C0.0354
; #@! TA.AperFunction,Plated,PTH,ComponentDrill
T6C0.0394
; #@! TA.AperFunction,Plated,PTH,ComponentDrill
T7C0.1063
%
G90
G05
T1
X7.2106Y-3.4611
X7.3976Y-3.6245
X7.4596Y-2.7628
X7.5049Y-3.3489
X7.5059Y-4.4075
X7.6309Y-4.7087
X7.6378Y-3.9596
X7.6791Y-4.3878
X7.7156Y-2.9715
X7.8455Y-2.5728
X7.8455Y-2.6378
X7.8524Y-2.9665
X7.8789Y-2.7205
X7.939Y-3.2894
X7.939Y-3.3735
X7.9911Y-2.7352
X7.9936Y-2.9532
X8.0709Y-4.3307
X8.0724Y-3.8721
X8.073Y-3.914
X8.0748Y-3.8346
X8.0768Y-3.998
X8.0827Y-4.4646
X8.1178Y-3.9985
X8.1181Y-4.4646
X8.1309Y-2.6102
X8.141Y-4.3314
X8.1516Y-2.9104
X8.156Y-3.9985
X8.1693Y-4.4646
X8.1732Y-2.622
X8.189Y-2.6594
X8.3071Y-2.7244
X8.313Y-2.6693
X8.4154Y-3.7416
X8.4173Y-3.8937
X8.4173Y-3.9508
X8.4193Y-4.0
X8.4715Y-2.8504
X8.6181Y-3.7874
X8.6516Y-3.3957
X8.6575Y-3.7913
X8.6713Y-3.8248
X8.6737Y-2.8524
X8.6831Y-3.3957
X8.6939Y-2.9104
X8.7006Y-3.8573
X8.7185Y-3.3917
X8.7323Y-4.0906
X8.75Y-2.5492
X8.7717Y-4.1417
X8.7933Y-3.2402
X8.7998Y-4.1538
X8.8346Y-4.1575
X8.8563Y-3.1772
X8.8799Y-3.2047
X8.8799Y-3.5236
X8.9055Y-3.1772
X8.9665Y-3.5551
X8.9665Y-3.5866
X8.9665Y-3.6181
X8.9665Y-3.6496
X8.9665Y-3.6811
X8.9665Y-3.7126
X8.9665Y-3.7441
X8.9665Y-3.7756
X8.9665Y-3.8071
X9.0374Y-4.0906
X9.1801Y-3.811
X9.2917Y-3.2691
X9.3178Y-4.3406
X9.3178Y-4.7224
X9.3625Y-3.5939
X9.3625Y-3.6352
X9.3842Y-3.5939
X9.3842Y-3.6352
X9.4101Y-2.9963
X9.4104Y-3.0413
X9.4105Y-3.0865
X9.4173Y-4.376
X9.4469Y-2.7874
X9.4783Y-4.376
X9.5554Y-4.44
X9.557Y-3.5907
X9.5692Y-3.8045
X9.5721Y-3.6497
X9.5732Y-3.6175
X9.5883Y-3.5893
X9.5906Y-4.3091
X9.6181Y-2.6083
X9.6181Y-4.374
X9.6263Y-3.3951
X9.6388Y-4.0743
X9.6747Y-2.8415
X9.6752Y-4.372
X9.7047Y-2.8209
X9.7047Y-2.8642
X9.7156Y-3.8538
X9.7343Y-4.376
X9.748Y-4.1732
X9.7677Y-4.1535
X9.7779Y-3.6471
X9.8287Y-3.8169
X9.8287Y-3.872
X9.8356Y-4.0807
X9.8701Y-2.6063
X9.878Y-3.626
X9.9134Y-3.6299
X9.9408Y-4.7224
X9.9488Y-3.6457
X9.9764Y-3.6654
X10.0276Y-3.5236
X10.0846Y-3.1319
X10.0846Y-4.585
X10.0925Y-3.8071
X10.0925Y-4.3169
X10.1575Y-3.1772
X10.1634Y-3.9272
X10.1772Y-3.9902
X10.1772Y-4.0669
X10.1791Y-3.2067
X10.1909Y-3.3543
X10.1988Y-3.8209
X10.2008Y-3.1791
X10.2665Y-3.8071
X10.274Y-4.5925
X10.2923Y-4.8051
X10.3425Y-3.5236
X10.3996Y-3.3091
X10.4222Y-4.0491
T2
X7.7362Y-3.626
X7.7402Y-3.5492
X7.8976Y-4.7185
X8.0256Y-4.7638
X8.0453Y-2.6555
X8.1417Y-3.4035
X8.1417Y-3.4862
T4
X9.2897Y-3.403
X9.2897Y-3.4502
X9.3724Y-3.9069
T5
X7.4317Y-3.1841
X7.4317Y-4.2176
X7.5017Y-3.1841
X7.5017Y-4.2176
X7.5717Y-3.1841
X7.5717Y-4.2176
X7.6417Y-3.1841
X7.6417Y-4.2176
X7.7117Y-3.1841
X7.7117Y-4.2176
X7.7817Y-3.1841
X7.7817Y-4.2176
X7.8517Y-3.1841
X7.8517Y-4.2176
X7.9217Y-3.1841
X7.9217Y-4.2176
X7.9917Y-3.1841
X7.9917Y-4.2176
X8.0617Y-3.1841
X8.0617Y-4.2176
X8.1317Y-3.1841
X8.1317Y-4.2176
X8.2017Y-3.1841
X8.2017Y-4.2176
X8.2717Y-3.1841
X8.2717Y-4.2176
X8.3417Y-3.1841
X8.3417Y-4.2176
X8.4117Y-3.1841
X8.4117Y-4.2176
X8.4817Y-3.1841
X8.4817Y-4.2176
X8.5517Y-3.1841
X8.5517Y-4.2176
T6
X6.9862Y-3.3515
X6.9862Y-3.4515
X6.9862Y-3.5515
X6.9862Y-3.6515
X6.9862Y-3.7515
X6.9862Y-3.8515
X6.9862Y-3.9515
X6.9862Y-4.0515
X10.5551Y-3.6445
X10.5551Y-3.7445
X10.5551Y-3.8445
X10.5551Y-3.9445
X10.5551Y-4.0445
T7
X7.0075Y-2.7166
X7.0075Y-4.6851
X8.976Y-2.7166
X8.976Y-4.6851
X10.498Y-2.7166
X10.498Y-4.6851
T3
G00X10.0102Y-4.6646
M15
G01X10.0102Y-4.7079
M16
G05
G00X10.0102Y-4.8358
M15
G01X10.0102Y-4.8673
M16
G05
G00X10.3504Y-4.6646
M15
G01X10.3504Y-4.7079
M16
G05
G00X10.3504Y-4.8358
M15
G01X10.3504Y-4.8673
M16
G05
M30
