%TF.GenerationSoftware,KiCad,Pcbnew,8.0.9*%
%TF.CreationDate,2025-03-06T21:03:41+08:00*%
%TF.ProjectId,CCD_Sensor_ZYNQ,4343445f-5365-46e7-936f-725f5a594e51,rev?*%
%TF.SameCoordinates,Original*%
%TF.FileFunction,Soldermask,Top*%
%TF.FilePolarity,Negative*%
%FSLAX46Y46*%
G04 Gerber Fmt 4.6, Leading zero omitted, Abs format (unit mm)*
G04 Created by KiCad (PCBNEW 8.0.9) date 2025-03-06 21:03:41*
%MOMM*%
%LPD*%
G01*
G04 APERTURE LIST*
G04 Aperture macros list*
%AMRoundRect*
0 Rectangle with rounded corners*
0 $1 Rounding radius*
0 $2 $3 $4 $5 $6 $7 $8 $9 X,Y pos of 4 corners*
0 Add a 4 corners polygon primitive as box body*
4,1,4,$2,$3,$4,$5,$6,$7,$8,$9,$2,$3,0*
0 Add four circle primitives for the rounded corners*
1,1,$1+$1,$2,$3*
1,1,$1+$1,$4,$5*
1,1,$1+$1,$6,$7*
1,1,$1+$1,$8,$9*
0 Add four rect primitives between the rounded corners*
20,1,$1+$1,$2,$3,$4,$5,0*
20,1,$1+$1,$4,$5,$6,$7,0*
20,1,$1+$1,$6,$7,$8,$9,0*
20,1,$1+$1,$8,$9,$2,$3,0*%
G04 Aperture macros list end*
%ADD10RoundRect,0.237500X0.237500X-0.250000X0.237500X0.250000X-0.237500X0.250000X-0.237500X-0.250000X0*%
%ADD11RoundRect,0.237500X-0.300000X-0.237500X0.300000X-0.237500X0.300000X0.237500X-0.300000X0.237500X0*%
%ADD12RoundRect,0.250000X0.250000X0.475000X-0.250000X0.475000X-0.250000X-0.475000X0.250000X-0.475000X0*%
%ADD13RoundRect,0.250000X0.475000X-0.337500X0.475000X0.337500X-0.475000X0.337500X-0.475000X-0.337500X0*%
%ADD14RoundRect,0.250000X-0.475000X0.250000X-0.475000X-0.250000X0.475000X-0.250000X0.475000X0.250000X0*%
%ADD15O,0.750001X0.299999*%
%ADD16O,0.299999X0.750001*%
%ADD17R,3.149999X3.149999*%
%ADD18C,4.700000*%
%ADD19RoundRect,0.200000X0.200000X0.275000X-0.200000X0.275000X-0.200000X-0.275000X0.200000X-0.275000X0*%
%ADD20R,1.750000X0.450000*%
%ADD21RoundRect,0.218750X0.218750X0.256250X-0.218750X0.256250X-0.218750X-0.256250X0.218750X-0.256250X0*%
%ADD22RoundRect,0.225000X-0.250000X0.225000X-0.250000X-0.225000X0.250000X-0.225000X0.250000X0.225000X0*%
%ADD23C,0.999997*%
%ADD24RoundRect,0.102000X0.350000X-0.650000X0.350000X0.650000X-0.350000X0.650000X-0.350000X-0.650000X0*%
%ADD25RoundRect,0.102000X0.723900X-0.825500X0.723900X0.825500X-0.723900X0.825500X-0.723900X-0.825500X0*%
%ADD26RoundRect,0.102000X0.723900X-1.219200X0.723900X1.219200X-0.723900X1.219200X-0.723900X-1.219200X0*%
%ADD27RoundRect,0.102000X0.927100X-0.825500X0.927100X0.825500X-0.927100X0.825500X-0.927100X-0.825500X0*%
%ADD28RoundRect,0.150000X0.150000X-0.825000X0.150000X0.825000X-0.150000X0.825000X-0.150000X-0.825000X0*%
%ADD29RoundRect,0.237500X-0.237500X0.250000X-0.237500X-0.250000X0.237500X-0.250000X0.237500X0.250000X0*%
%ADD30RoundRect,0.225000X0.225000X0.375000X-0.225000X0.375000X-0.225000X-0.375000X0.225000X-0.375000X0*%
%ADD31RoundRect,0.250000X0.475000X-0.250000X0.475000X0.250000X-0.475000X0.250000X-0.475000X-0.250000X0*%
%ADD32RoundRect,0.200000X0.275000X-0.200000X0.275000X0.200000X-0.275000X0.200000X-0.275000X-0.200000X0*%
%ADD33RoundRect,0.218750X0.218750X0.381250X-0.218750X0.381250X-0.218750X-0.381250X0.218750X-0.381250X0*%
%ADD34C,0.650000*%
%ADD35R,0.600000X1.240000*%
%ADD36R,0.300000X1.240000*%
%ADD37O,1.000000X2.100000*%
%ADD38O,1.000000X1.800000*%
%ADD39RoundRect,0.237500X0.237500X-0.300000X0.237500X0.300000X-0.237500X0.300000X-0.237500X-0.300000X0*%
%ADD40RoundRect,0.225000X0.225000X0.250000X-0.225000X0.250000X-0.225000X-0.250000X0.225000X-0.250000X0*%
%ADD41RoundRect,0.150000X0.150000X-0.587500X0.150000X0.587500X-0.150000X0.587500X-0.150000X-0.587500X0*%
%ADD42RoundRect,0.150000X-0.512500X-0.150000X0.512500X-0.150000X0.512500X0.150000X-0.512500X0.150000X0*%
%ADD43R,0.850000X2.000000*%
%ADD44RoundRect,0.225000X0.250000X-0.225000X0.250000X0.225000X-0.250000X0.225000X-0.250000X-0.225000X0*%
%ADD45RoundRect,0.237500X-0.237500X0.300000X-0.237500X-0.300000X0.237500X-0.300000X0.237500X0.300000X0*%
%ADD46RoundRect,0.225000X-0.225000X-0.250000X0.225000X-0.250000X0.225000X0.250000X-0.225000X0.250000X0*%
%ADD47RoundRect,0.237500X-0.250000X-0.237500X0.250000X-0.237500X0.250000X0.237500X-0.250000X0.237500X0*%
%ADD48C,0.830000*%
%ADD49C,1.230000*%
%ADD50RoundRect,0.102000X-1.000000X0.250000X-1.000000X-0.250000X1.000000X-0.250000X1.000000X0.250000X0*%
%ADD51RoundRect,0.062500X0.362500X0.062500X-0.362500X0.062500X-0.362500X-0.062500X0.362500X-0.062500X0*%
%ADD52R,1.650000X2.380000*%
%ADD53RoundRect,0.250000X-0.475000X0.337500X-0.475000X-0.337500X0.475000X-0.337500X0.475000X0.337500X0*%
%ADD54RoundRect,0.237500X-0.237500X0.287500X-0.237500X-0.287500X0.237500X-0.287500X0.237500X0.287500X0*%
%ADD55RoundRect,0.200000X-0.200000X-0.275000X0.200000X-0.275000X0.200000X0.275000X-0.200000X0.275000X0*%
%ADD56RoundRect,0.100000X0.100000X-0.637500X0.100000X0.637500X-0.100000X0.637500X-0.100000X-0.637500X0*%
%ADD57RoundRect,0.250000X0.337500X0.475000X-0.337500X0.475000X-0.337500X-0.475000X0.337500X-0.475000X0*%
%ADD58R,1.700000X1.700000*%
%ADD59O,1.700000X1.700000*%
%ADD60RoundRect,0.237500X0.300000X0.237500X-0.300000X0.237500X-0.300000X-0.237500X0.300000X-0.237500X0*%
%ADD61RoundRect,0.225000X-0.225000X-0.375000X0.225000X-0.375000X0.225000X0.375000X-0.225000X0.375000X0*%
%ADD62RoundRect,0.225000X0.375000X-0.225000X0.375000X0.225000X-0.375000X0.225000X-0.375000X-0.225000X0*%
%ADD63RoundRect,0.150000X-0.150000X0.512500X-0.150000X-0.512500X0.150000X-0.512500X0.150000X0.512500X0*%
%ADD64RoundRect,0.250000X-0.250000X-0.475000X0.250000X-0.475000X0.250000X0.475000X-0.250000X0.475000X0*%
%ADD65RoundRect,0.218750X0.256250X-0.218750X0.256250X0.218750X-0.256250X0.218750X-0.256250X-0.218750X0*%
%ADD66O,1.200000X2.000000*%
G04 APERTURE END LIST*
D10*
%TO.C,R7*%
X206962500Y-103462500D03*
X206962500Y-101637500D03*
%TD*%
D11*
%TO.C,C4*%
X246695780Y-91835268D03*
X248420780Y-91835268D03*
%TD*%
D12*
%TO.C,C38*%
X238275001Y-70475002D03*
X236375001Y-70475002D03*
%TD*%
D13*
%TO.C,C31*%
X191037500Y-115837500D03*
X191037500Y-113762500D03*
%TD*%
D14*
%TO.C,C12*%
X205150000Y-99650000D03*
X205150000Y-101550000D03*
%TD*%
D15*
%TO.C,U2*%
X236700002Y-75950001D03*
X236700002Y-76600000D03*
X236700002Y-77250001D03*
X236700002Y-77900000D03*
X236700002Y-78550001D03*
D16*
X237725001Y-79575000D03*
X238375000Y-79575000D03*
X239025001Y-79575000D03*
X239675000Y-79575000D03*
X240325001Y-79575000D03*
D15*
X241350000Y-78550001D03*
X241350000Y-77900000D03*
X241350000Y-77250001D03*
X241350000Y-76600000D03*
X241350000Y-75950001D03*
D16*
X240325001Y-74925002D03*
X239675000Y-74925002D03*
X239025001Y-74925002D03*
X238375000Y-74925002D03*
X237725001Y-74925002D03*
D17*
X239025001Y-77250001D03*
%TD*%
D18*
%TO.C,H6*%
X266650000Y-119002146D03*
%TD*%
D19*
%TO.C,R1*%
X248433280Y-88585268D03*
X246783280Y-88585268D03*
%TD*%
D20*
%TO.C,U3*%
X216607200Y-75059800D03*
X216607200Y-74409800D03*
X216607200Y-73759800D03*
X216607200Y-73109800D03*
X216607200Y-72459800D03*
X216607200Y-71809800D03*
X216607200Y-71159800D03*
X216607200Y-70509800D03*
X216607200Y-69859800D03*
X216607200Y-69209800D03*
X216607200Y-68559800D03*
X216607200Y-67909800D03*
X216607200Y-67259800D03*
X216607200Y-66609800D03*
X209407200Y-66609800D03*
X209407200Y-67259800D03*
X209407200Y-67909800D03*
X209407200Y-68559800D03*
X209407200Y-69209800D03*
X209407200Y-69859800D03*
X209407200Y-70509800D03*
X209407200Y-71159800D03*
X209407200Y-71809800D03*
X209407200Y-72459800D03*
X209407200Y-73109800D03*
X209407200Y-73759800D03*
X209407200Y-74409800D03*
X209407200Y-75059800D03*
%TD*%
D21*
%TO.C,FB1*%
X220312500Y-72450000D03*
X218737500Y-72450000D03*
%TD*%
D18*
%TO.C,H5*%
X266650000Y-69002146D03*
%TD*%
D22*
%TO.C,C20*%
X214450000Y-77125000D03*
X214450000Y-78675000D03*
%TD*%
D23*
%TO.C,MICRO_SD1*%
X239656200Y-120180600D03*
X247631800Y-120180600D03*
D24*
X246889800Y-109476200D03*
X245789800Y-109476200D03*
X244689800Y-109476200D03*
X243589800Y-109476200D03*
X242489800Y-109476200D03*
X241389800Y-109476200D03*
X240289800Y-109476200D03*
X239189800Y-109476200D03*
X238089800Y-109476200D03*
D25*
X236671400Y-110250000D03*
D26*
X236671400Y-119950000D03*
X252496200Y-119950000D03*
D27*
X251721200Y-110250000D03*
%TD*%
D28*
%TO.C,U5*%
X204203280Y-90035268D03*
X205473280Y-90035268D03*
X206743280Y-90035268D03*
X208013280Y-90035268D03*
X208013280Y-85085268D03*
X206743280Y-85085268D03*
X205473280Y-85085268D03*
X204203280Y-85085268D03*
%TD*%
D29*
%TO.C,R6*%
X203212500Y-99837500D03*
X203212500Y-101662500D03*
%TD*%
D28*
%TO.C,U11*%
X194203280Y-93672768D03*
X195473280Y-93672768D03*
X196743280Y-93672768D03*
X198013280Y-93672768D03*
X198013280Y-88722768D03*
X196743280Y-88722768D03*
X195473280Y-88722768D03*
X194203280Y-88722768D03*
%TD*%
D30*
%TO.C,D2*%
X244608280Y-85035268D03*
X241308280Y-85035268D03*
%TD*%
D31*
%TO.C,C5*%
X241908280Y-99285268D03*
X241908280Y-97385268D03*
%TD*%
D32*
%TO.C,R17*%
X246925001Y-78650002D03*
X246925001Y-77000002D03*
%TD*%
D33*
%TO.C,L5*%
X245737501Y-72175002D03*
X243612501Y-72175002D03*
%TD*%
D34*
%TO.C,J4*%
X255690000Y-119550000D03*
X261470000Y-119550000D03*
D35*
X255380000Y-118430000D03*
X256180000Y-118430000D03*
D36*
X257330000Y-118430000D03*
X258330000Y-118430000D03*
X258830000Y-118430000D03*
X259830000Y-118430000D03*
D35*
X260980000Y-118430000D03*
X261780000Y-118430000D03*
X261780000Y-118430000D03*
X260980000Y-118430000D03*
D36*
X260330000Y-118430000D03*
X259330000Y-118430000D03*
X257830000Y-118430000D03*
X256830000Y-118430000D03*
D35*
X256180000Y-118430000D03*
X255380000Y-118430000D03*
D37*
X254260000Y-119030000D03*
D38*
X254260000Y-123230000D03*
D37*
X262900000Y-119030000D03*
D38*
X262900000Y-123230000D03*
%TD*%
D39*
%TO.C,C1*%
X241208280Y-88897768D03*
X241208280Y-87172768D03*
%TD*%
D40*
%TO.C,C39*%
X238100001Y-72275002D03*
X236550001Y-72275002D03*
%TD*%
D41*
%TO.C,Q3*%
X196550000Y-70737500D03*
X198450000Y-70737500D03*
X197500000Y-68862500D03*
%TD*%
D11*
%TO.C,C6*%
X202150000Y-119862500D03*
X203875000Y-119862500D03*
%TD*%
D18*
%TO.C,H1*%
X227989523Y-69002146D03*
%TD*%
D42*
%TO.C,U7*%
X209850000Y-99800000D03*
X209850000Y-100750000D03*
X209850000Y-101700000D03*
X212125000Y-101700000D03*
X212125000Y-100750000D03*
X212125000Y-99800000D03*
%TD*%
D43*
%TO.C,L3*%
X211875000Y-97350000D03*
X210225000Y-97350000D03*
%TD*%
D18*
%TO.C,H3*%
X227989523Y-119002146D03*
%TD*%
D44*
%TO.C,C10*%
X206475000Y-67800000D03*
X206475000Y-66250000D03*
%TD*%
D45*
%TO.C,C34*%
X187900000Y-90337500D03*
X187900000Y-92062500D03*
%TD*%
D11*
%TO.C,C2*%
X246745780Y-86985268D03*
X248470780Y-86985268D03*
%TD*%
D46*
%TO.C,C22*%
X202975000Y-69475000D03*
X204525000Y-69475000D03*
%TD*%
D47*
%TO.C,R15*%
X184337500Y-94412500D03*
X186162500Y-94412500D03*
%TD*%
D46*
%TO.C,C21*%
X203000000Y-70950000D03*
X204550000Y-70950000D03*
%TD*%
D48*
%TO.C,J2*%
X225550000Y-78200000D03*
D49*
X225550000Y-106400000D03*
D50*
X227750000Y-80700000D03*
X223350000Y-80700000D03*
X227750000Y-81500000D03*
X223350000Y-81500000D03*
X227750000Y-82300000D03*
X223350000Y-82300000D03*
X227750000Y-83100000D03*
X223350000Y-83100000D03*
X227750000Y-83900000D03*
X223350000Y-83900000D03*
X227750000Y-84700000D03*
X223350000Y-84700000D03*
X227750000Y-85500000D03*
X223350000Y-85500000D03*
X227750000Y-86300000D03*
X223350000Y-86300000D03*
X227750000Y-87100000D03*
X223350000Y-87100000D03*
X227750000Y-87900000D03*
X223350000Y-87900000D03*
X227750000Y-88700000D03*
X223350000Y-88700000D03*
X227750000Y-89500000D03*
X223350000Y-89500000D03*
X227750000Y-90300000D03*
X223350000Y-90300000D03*
X227750000Y-91100000D03*
X223350000Y-91100000D03*
X227750000Y-91900000D03*
X223350000Y-91900000D03*
X227750000Y-92700000D03*
X223350000Y-92700000D03*
X227750000Y-93500000D03*
X223350000Y-93500000D03*
X227750000Y-94300000D03*
X223350000Y-94300000D03*
X227750000Y-95100000D03*
X223350000Y-95100000D03*
X227750000Y-95900000D03*
X223350000Y-95900000D03*
X227750000Y-96700000D03*
X223350000Y-96700000D03*
X227750000Y-97500000D03*
X223350000Y-97500000D03*
X227750000Y-98300000D03*
X223350000Y-98300000D03*
X227750000Y-99100000D03*
X223350000Y-99100000D03*
X227750000Y-99900000D03*
X223350000Y-99900000D03*
X227750000Y-100700000D03*
X223350000Y-100700000D03*
X227750000Y-101500000D03*
X223350000Y-101500000D03*
X227750000Y-102300000D03*
X223350000Y-102300000D03*
X227750000Y-103100000D03*
X223350000Y-103100000D03*
X227750000Y-103900000D03*
X223350000Y-103900000D03*
%TD*%
D44*
%TO.C,C17*%
X207475000Y-71025000D03*
X207475000Y-69475000D03*
%TD*%
D51*
%TO.C,U1*%
X244608280Y-92885268D03*
X244608280Y-92385268D03*
X244608280Y-91885268D03*
X244608280Y-91385268D03*
X244608280Y-90885268D03*
X241708280Y-90885268D03*
X241708280Y-91385268D03*
X241708280Y-91885268D03*
X241708280Y-92385268D03*
X241708280Y-92885268D03*
D52*
X243158280Y-91885268D03*
%TD*%
D53*
%TO.C,C30*%
X201650000Y-83612500D03*
X201650000Y-85687500D03*
%TD*%
D46*
%TO.C,C25*%
X248275000Y-103650000D03*
X249825000Y-103650000D03*
%TD*%
D43*
%TO.C,L1*%
X238083280Y-89935268D03*
X239733280Y-89935268D03*
%TD*%
D32*
%TO.C,R9*%
X200125000Y-70750000D03*
X200125000Y-69100000D03*
%TD*%
D18*
%TO.C,H2*%
X177989523Y-69002146D03*
%TD*%
D54*
%TO.C,L4*%
X189500000Y-90300000D03*
X189500000Y-92050000D03*
%TD*%
D31*
%TO.C,C3*%
X236008280Y-84935268D03*
X236008280Y-83035268D03*
%TD*%
D43*
%TO.C,L6*%
X239683280Y-84985268D03*
X238033280Y-84985268D03*
%TD*%
D53*
%TO.C,C29*%
X195458280Y-83822768D03*
X195458280Y-85897768D03*
%TD*%
D55*
%TO.C,R3*%
X246783280Y-94985268D03*
X248433280Y-94985268D03*
%TD*%
D56*
%TO.C,U6*%
X202350000Y-117725000D03*
X203000000Y-117725000D03*
X203650000Y-117725000D03*
X204300000Y-117725000D03*
X204950000Y-117725000D03*
X205600000Y-117725000D03*
X206250000Y-117725000D03*
X206900000Y-117725000D03*
X207550000Y-117725000D03*
X208200000Y-117725000D03*
X208200000Y-112000000D03*
X207550000Y-112000000D03*
X206900000Y-112000000D03*
X206250000Y-112000000D03*
X205600000Y-112000000D03*
X204950000Y-112000000D03*
X204300000Y-112000000D03*
X203650000Y-112000000D03*
X203000000Y-112000000D03*
X202350000Y-112000000D03*
%TD*%
D41*
%TO.C,Q1*%
X184325000Y-92150000D03*
X186225000Y-92150000D03*
X185275000Y-90275000D03*
%TD*%
D44*
%TO.C,C16*%
X206000000Y-71000000D03*
X206000000Y-69450000D03*
%TD*%
D47*
%TO.C,R13*%
X188825000Y-111950000D03*
X190650000Y-111950000D03*
%TD*%
D48*
%TO.C,J1*%
X258570000Y-78200000D03*
D49*
X258570000Y-106400000D03*
D50*
X260770000Y-80700000D03*
X256370000Y-80700000D03*
X260770000Y-81500000D03*
X256370000Y-81500000D03*
X260770000Y-82300000D03*
X256370000Y-82300000D03*
X260770000Y-83100000D03*
X256370000Y-83100000D03*
X260770000Y-83900000D03*
X256370000Y-83900000D03*
X260770000Y-84700000D03*
X256370000Y-84700000D03*
X260770000Y-85500000D03*
X256370000Y-85500000D03*
X260770000Y-86300000D03*
X256370000Y-86300000D03*
X260770000Y-87100000D03*
X256370000Y-87100000D03*
X260770000Y-87900000D03*
X256370000Y-87900000D03*
X260770000Y-88700000D03*
X256370000Y-88700000D03*
X260770000Y-89500000D03*
X256370000Y-89500000D03*
X260770000Y-90300000D03*
X256370000Y-90300000D03*
X260770000Y-91100000D03*
X256370000Y-91100000D03*
X260770000Y-91900000D03*
X256370000Y-91900000D03*
X260770000Y-92700000D03*
X256370000Y-92700000D03*
X260770000Y-93500000D03*
X256370000Y-93500000D03*
X260770000Y-94300000D03*
X256370000Y-94300000D03*
X260770000Y-95100000D03*
X256370000Y-95100000D03*
X260770000Y-95900000D03*
X256370000Y-95900000D03*
X260770000Y-96700000D03*
X256370000Y-96700000D03*
X260770000Y-97500000D03*
X256370000Y-97500000D03*
X260770000Y-98300000D03*
X256370000Y-98300000D03*
X260770000Y-99100000D03*
X256370000Y-99100000D03*
X260770000Y-99900000D03*
X256370000Y-99900000D03*
X260770000Y-100700000D03*
X256370000Y-100700000D03*
X260770000Y-101500000D03*
X256370000Y-101500000D03*
X260770000Y-102300000D03*
X256370000Y-102300000D03*
X260770000Y-103100000D03*
X256370000Y-103100000D03*
X260770000Y-103900000D03*
X256370000Y-103900000D03*
%TD*%
D40*
%TO.C,C24*%
X246375000Y-103487500D03*
X244825000Y-103487500D03*
%TD*%
D57*
%TO.C,C33*%
X190825000Y-110100000D03*
X188750000Y-110100000D03*
%TD*%
D13*
%TO.C,C32*%
X188837500Y-115787500D03*
X188837500Y-113712500D03*
%TD*%
D55*
%TO.C,R4*%
X246758280Y-93435268D03*
X248408280Y-93435268D03*
%TD*%
D10*
%TO.C,R14*%
X192937500Y-113612500D03*
X192937500Y-111787500D03*
%TD*%
D44*
%TO.C,C40*%
X207125000Y-75475000D03*
X207125000Y-73925000D03*
%TD*%
D58*
%TO.C,J5*%
X268100000Y-102730000D03*
D59*
X268100000Y-100190000D03*
X268100000Y-97650000D03*
X268100000Y-95110000D03*
X268100000Y-92570000D03*
%TD*%
D39*
%TO.C,C11*%
X213750000Y-96762500D03*
X213750000Y-95037500D03*
%TD*%
D40*
%TO.C,C37*%
X248325000Y-97887500D03*
X246775000Y-97887500D03*
%TD*%
D60*
%TO.C,C26*%
X199275000Y-65350000D03*
X197550000Y-65350000D03*
%TD*%
D46*
%TO.C,C35*%
X240000001Y-72275002D03*
X241550001Y-72275002D03*
%TD*%
D11*
%TO.C,C7*%
X205050000Y-110012500D03*
X206775000Y-110012500D03*
%TD*%
D22*
%TO.C,C15*%
X201050000Y-72385000D03*
X201050000Y-73935000D03*
%TD*%
D61*
%TO.C,D5*%
X196050000Y-75400000D03*
X199350000Y-75400000D03*
%TD*%
D22*
%TO.C,C9*%
X243825001Y-77050002D03*
X243825001Y-78600002D03*
%TD*%
D61*
%TO.C,D3*%
X205100000Y-97400000D03*
X208400000Y-97400000D03*
%TD*%
D10*
%TO.C,R16*%
X187950000Y-87475000D03*
X187950000Y-85650000D03*
%TD*%
D62*
%TO.C,D4*%
X195000000Y-114750000D03*
X195000000Y-111450000D03*
%TD*%
D46*
%TO.C,C23*%
X219275000Y-73925000D03*
X220825000Y-73925000D03*
%TD*%
D22*
%TO.C,C19*%
X212850000Y-77150000D03*
X212850000Y-78700000D03*
%TD*%
%TO.C,C36*%
X234550000Y-75975002D03*
X234550000Y-77525002D03*
%TD*%
D43*
%TO.C,L2*%
X239783280Y-93735268D03*
X238133280Y-93735268D03*
%TD*%
D55*
%TO.C,R2*%
X246733280Y-90235268D03*
X248383280Y-90235268D03*
%TD*%
D58*
%TO.C,J3*%
X177450000Y-85127146D03*
D59*
X177450000Y-87667146D03*
X177450000Y-90207146D03*
X177450000Y-92747146D03*
X177450000Y-95287146D03*
X177450000Y-97827146D03*
X177450000Y-100367146D03*
X177450000Y-102907146D03*
%TD*%
D18*
%TO.C,H4*%
X177989523Y-119002146D03*
%TD*%
D62*
%TO.C,D1*%
X239608280Y-99335268D03*
X239608280Y-96035268D03*
%TD*%
D40*
%TO.C,C18*%
X204535000Y-72450000D03*
X202985000Y-72450000D03*
%TD*%
D19*
%TO.C,R11*%
X199275000Y-67000000D03*
X197625000Y-67000000D03*
%TD*%
D41*
%TO.C,Q2*%
X184300000Y-87550000D03*
X186200000Y-87550000D03*
X185250000Y-85675000D03*
%TD*%
D63*
%TO.C,U4*%
X248250000Y-99562500D03*
X247300000Y-99562500D03*
X246350000Y-99562500D03*
X246350000Y-101837500D03*
X248250000Y-101837500D03*
%TD*%
D64*
%TO.C,C8*%
X239875001Y-70475002D03*
X241775001Y-70475002D03*
%TD*%
D65*
%TO.C,D6*%
X245375001Y-78612502D03*
X245375001Y-77037502D03*
%TD*%
D66*
%TO.C,ICX1*%
X217213523Y-107127146D03*
X215435523Y-107127146D03*
X213657523Y-107127146D03*
X211879523Y-107127146D03*
X210101523Y-107127146D03*
X208323523Y-107127146D03*
X206545523Y-107127146D03*
X204767523Y-107127146D03*
X202989523Y-107127146D03*
X201211523Y-107127146D03*
X199433523Y-107127146D03*
X197655523Y-107127146D03*
X195877523Y-107127146D03*
X194099523Y-107127146D03*
X192321523Y-107127146D03*
X190543523Y-107127146D03*
X188765523Y-107127146D03*
X188765523Y-80877146D03*
X190543523Y-80877146D03*
X192321523Y-80877146D03*
X194099523Y-80877146D03*
X195877523Y-80877146D03*
X197655523Y-80877146D03*
X199433523Y-80877146D03*
X201211523Y-80877146D03*
X202989523Y-80877146D03*
X204767523Y-80877146D03*
X206545523Y-80877146D03*
X208323523Y-80877146D03*
X210101523Y-80877146D03*
X211879523Y-80877146D03*
X213657523Y-80877146D03*
X215435523Y-80877146D03*
X217213523Y-80877146D03*
%TD*%
M02*
