%TF.GenerationSoftware,KiCad,Pcbnew,8.0.9*%
%TF.CreationDate,2025-03-06T21:03:41+08:00*%
%TF.ProjectId,CCD_Sensor_ZYNQ,4343445f-5365-46e7-936f-725f5a594e51,rev?*%
%TF.SameCoordinates,Original*%
%TF.FileFunction,Copper,L1,Top*%
%TF.FilePolarity,Positive*%
%FSLAX46Y46*%
G04 Gerber Fmt 4.6, Leading zero omitted, Abs format (unit mm)*
G04 Created by KiCad (PCBNEW 8.0.9) date 2025-03-06 21:03:41*
%MOMM*%
%LPD*%
G01*
G04 APERTURE LIST*
G04 Aperture macros list*
%AMRoundRect*
0 Rectangle with rounded corners*
0 $1 Rounding radius*
0 $2 $3 $4 $5 $6 $7 $8 $9 X,Y pos of 4 corners*
0 Add a 4 corners polygon primitive as box body*
4,1,4,$2,$3,$4,$5,$6,$7,$8,$9,$2,$3,0*
0 Add four circle primitives for the rounded corners*
1,1,$1+$1,$2,$3*
1,1,$1+$1,$4,$5*
1,1,$1+$1,$6,$7*
1,1,$1+$1,$8,$9*
0 Add four rect primitives between the rounded corners*
20,1,$1+$1,$2,$3,$4,$5,0*
20,1,$1+$1,$4,$5,$6,$7,0*
20,1,$1+$1,$6,$7,$8,$9,0*
20,1,$1+$1,$8,$9,$2,$3,0*%
G04 Aperture macros list end*
%TA.AperFunction,SMDPad,CuDef*%
%ADD10RoundRect,0.237500X0.237500X-0.250000X0.237500X0.250000X-0.237500X0.250000X-0.237500X-0.250000X0*%
%TD*%
%TA.AperFunction,SMDPad,CuDef*%
%ADD11RoundRect,0.237500X-0.300000X-0.237500X0.300000X-0.237500X0.300000X0.237500X-0.300000X0.237500X0*%
%TD*%
%TA.AperFunction,SMDPad,CuDef*%
%ADD12RoundRect,0.250000X0.250000X0.475000X-0.250000X0.475000X-0.250000X-0.475000X0.250000X-0.475000X0*%
%TD*%
%TA.AperFunction,SMDPad,CuDef*%
%ADD13RoundRect,0.250000X0.475000X-0.337500X0.475000X0.337500X-0.475000X0.337500X-0.475000X-0.337500X0*%
%TD*%
%TA.AperFunction,SMDPad,CuDef*%
%ADD14RoundRect,0.250000X-0.475000X0.250000X-0.475000X-0.250000X0.475000X-0.250000X0.475000X0.250000X0*%
%TD*%
%TA.AperFunction,SMDPad,CuDef*%
%ADD15O,0.750001X0.299999*%
%TD*%
%TA.AperFunction,SMDPad,CuDef*%
%ADD16O,0.299999X0.750001*%
%TD*%
%TA.AperFunction,SMDPad,CuDef*%
%ADD17R,3.149999X3.149999*%
%TD*%
%TA.AperFunction,ComponentPad*%
%ADD18C,4.700000*%
%TD*%
%TA.AperFunction,SMDPad,CuDef*%
%ADD19RoundRect,0.200000X0.200000X0.275000X-0.200000X0.275000X-0.200000X-0.275000X0.200000X-0.275000X0*%
%TD*%
%TA.AperFunction,SMDPad,CuDef*%
%ADD20R,1.750000X0.450000*%
%TD*%
%TA.AperFunction,SMDPad,CuDef*%
%ADD21RoundRect,0.218750X0.218750X0.256250X-0.218750X0.256250X-0.218750X-0.256250X0.218750X-0.256250X0*%
%TD*%
%TA.AperFunction,SMDPad,CuDef*%
%ADD22RoundRect,0.225000X-0.250000X0.225000X-0.250000X-0.225000X0.250000X-0.225000X0.250000X0.225000X0*%
%TD*%
%TA.AperFunction,SMDPad,CuDef*%
%ADD23R,0.700000X1.300000*%
%TD*%
%TA.AperFunction,SMDPad,CuDef*%
%ADD24R,1.447800X1.651000*%
%TD*%
%TA.AperFunction,SMDPad,CuDef*%
%ADD25R,1.447800X2.438400*%
%TD*%
%TA.AperFunction,SMDPad,CuDef*%
%ADD26R,1.854200X1.651000*%
%TD*%
%TA.AperFunction,SMDPad,CuDef*%
%ADD27RoundRect,0.150000X0.150000X-0.825000X0.150000X0.825000X-0.150000X0.825000X-0.150000X-0.825000X0*%
%TD*%
%TA.AperFunction,SMDPad,CuDef*%
%ADD28RoundRect,0.237500X-0.237500X0.250000X-0.237500X-0.250000X0.237500X-0.250000X0.237500X0.250000X0*%
%TD*%
%TA.AperFunction,SMDPad,CuDef*%
%ADD29RoundRect,0.225000X0.225000X0.375000X-0.225000X0.375000X-0.225000X-0.375000X0.225000X-0.375000X0*%
%TD*%
%TA.AperFunction,SMDPad,CuDef*%
%ADD30RoundRect,0.250000X0.475000X-0.250000X0.475000X0.250000X-0.475000X0.250000X-0.475000X-0.250000X0*%
%TD*%
%TA.AperFunction,SMDPad,CuDef*%
%ADD31RoundRect,0.200000X0.275000X-0.200000X0.275000X0.200000X-0.275000X0.200000X-0.275000X-0.200000X0*%
%TD*%
%TA.AperFunction,SMDPad,CuDef*%
%ADD32RoundRect,0.218750X0.218750X0.381250X-0.218750X0.381250X-0.218750X-0.381250X0.218750X-0.381250X0*%
%TD*%
%TA.AperFunction,SMDPad,CuDef*%
%ADD33R,0.600000X1.240000*%
%TD*%
%TA.AperFunction,SMDPad,CuDef*%
%ADD34R,0.300000X1.240000*%
%TD*%
%TA.AperFunction,HeatsinkPad*%
%ADD35O,1.000000X2.100000*%
%TD*%
%TA.AperFunction,HeatsinkPad*%
%ADD36O,1.000000X1.800000*%
%TD*%
%TA.AperFunction,SMDPad,CuDef*%
%ADD37RoundRect,0.237500X0.237500X-0.300000X0.237500X0.300000X-0.237500X0.300000X-0.237500X-0.300000X0*%
%TD*%
%TA.AperFunction,SMDPad,CuDef*%
%ADD38RoundRect,0.225000X0.225000X0.250000X-0.225000X0.250000X-0.225000X-0.250000X0.225000X-0.250000X0*%
%TD*%
%TA.AperFunction,SMDPad,CuDef*%
%ADD39RoundRect,0.150000X0.150000X-0.587500X0.150000X0.587500X-0.150000X0.587500X-0.150000X-0.587500X0*%
%TD*%
%TA.AperFunction,SMDPad,CuDef*%
%ADD40RoundRect,0.150000X-0.512500X-0.150000X0.512500X-0.150000X0.512500X0.150000X-0.512500X0.150000X0*%
%TD*%
%TA.AperFunction,SMDPad,CuDef*%
%ADD41R,0.850000X2.000000*%
%TD*%
%TA.AperFunction,SMDPad,CuDef*%
%ADD42RoundRect,0.225000X0.250000X-0.225000X0.250000X0.225000X-0.250000X0.225000X-0.250000X-0.225000X0*%
%TD*%
%TA.AperFunction,SMDPad,CuDef*%
%ADD43RoundRect,0.237500X-0.237500X0.300000X-0.237500X-0.300000X0.237500X-0.300000X0.237500X0.300000X0*%
%TD*%
%TA.AperFunction,SMDPad,CuDef*%
%ADD44RoundRect,0.225000X-0.225000X-0.250000X0.225000X-0.250000X0.225000X0.250000X-0.225000X0.250000X0*%
%TD*%
%TA.AperFunction,SMDPad,CuDef*%
%ADD45RoundRect,0.237500X-0.250000X-0.237500X0.250000X-0.237500X0.250000X0.237500X-0.250000X0.237500X0*%
%TD*%
%TA.AperFunction,SMDPad,CuDef*%
%ADD46R,2.000000X0.500000*%
%TD*%
%TA.AperFunction,SMDPad,CuDef*%
%ADD47RoundRect,0.062500X0.362500X0.062500X-0.362500X0.062500X-0.362500X-0.062500X0.362500X-0.062500X0*%
%TD*%
%TA.AperFunction,HeatsinkPad*%
%ADD48R,1.650000X2.380000*%
%TD*%
%TA.AperFunction,SMDPad,CuDef*%
%ADD49RoundRect,0.250000X-0.475000X0.337500X-0.475000X-0.337500X0.475000X-0.337500X0.475000X0.337500X0*%
%TD*%
%TA.AperFunction,SMDPad,CuDef*%
%ADD50RoundRect,0.237500X-0.237500X0.287500X-0.237500X-0.287500X0.237500X-0.287500X0.237500X0.287500X0*%
%TD*%
%TA.AperFunction,SMDPad,CuDef*%
%ADD51RoundRect,0.200000X-0.200000X-0.275000X0.200000X-0.275000X0.200000X0.275000X-0.200000X0.275000X0*%
%TD*%
%TA.AperFunction,SMDPad,CuDef*%
%ADD52RoundRect,0.100000X0.100000X-0.637500X0.100000X0.637500X-0.100000X0.637500X-0.100000X-0.637500X0*%
%TD*%
%TA.AperFunction,SMDPad,CuDef*%
%ADD53RoundRect,0.250000X0.337500X0.475000X-0.337500X0.475000X-0.337500X-0.475000X0.337500X-0.475000X0*%
%TD*%
%TA.AperFunction,ComponentPad*%
%ADD54R,1.700000X1.700000*%
%TD*%
%TA.AperFunction,ComponentPad*%
%ADD55O,1.700000X1.700000*%
%TD*%
%TA.AperFunction,SMDPad,CuDef*%
%ADD56RoundRect,0.237500X0.300000X0.237500X-0.300000X0.237500X-0.300000X-0.237500X0.300000X-0.237500X0*%
%TD*%
%TA.AperFunction,SMDPad,CuDef*%
%ADD57RoundRect,0.225000X-0.225000X-0.375000X0.225000X-0.375000X0.225000X0.375000X-0.225000X0.375000X0*%
%TD*%
%TA.AperFunction,SMDPad,CuDef*%
%ADD58RoundRect,0.225000X0.375000X-0.225000X0.375000X0.225000X-0.375000X0.225000X-0.375000X-0.225000X0*%
%TD*%
%TA.AperFunction,SMDPad,CuDef*%
%ADD59RoundRect,0.150000X-0.150000X0.512500X-0.150000X-0.512500X0.150000X-0.512500X0.150000X0.512500X0*%
%TD*%
%TA.AperFunction,SMDPad,CuDef*%
%ADD60RoundRect,0.250000X-0.250000X-0.475000X0.250000X-0.475000X0.250000X0.475000X-0.250000X0.475000X0*%
%TD*%
%TA.AperFunction,SMDPad,CuDef*%
%ADD61RoundRect,0.218750X0.256250X-0.218750X0.256250X0.218750X-0.256250X0.218750X-0.256250X-0.218750X0*%
%TD*%
%TA.AperFunction,ComponentPad*%
%ADD62O,1.200000X2.000000*%
%TD*%
%TA.AperFunction,ViaPad*%
%ADD63C,1.000000*%
%TD*%
%TA.AperFunction,ViaPad*%
%ADD64C,0.450000*%
%TD*%
%TA.AperFunction,ViaPad*%
%ADD65C,0.600000*%
%TD*%
%TA.AperFunction,Conductor*%
%ADD66C,0.350000*%
%TD*%
%TA.AperFunction,Conductor*%
%ADD67C,0.127000*%
%TD*%
%TA.AperFunction,Conductor*%
%ADD68C,0.800000*%
%TD*%
%TA.AperFunction,Conductor*%
%ADD69C,0.254000*%
%TD*%
%TA.AperFunction,Conductor*%
%ADD70C,0.156000*%
%TD*%
%TA.AperFunction,Conductor*%
%ADD71C,0.500000*%
%TD*%
%TA.AperFunction,Conductor*%
%ADD72C,1.350000*%
%TD*%
%TA.AperFunction,Conductor*%
%ADD73C,0.200000*%
%TD*%
G04 APERTURE END LIST*
D10*
%TO.P,R7,1*%
%TO.N,Net-(U7-FB)*%
X206962500Y-103462500D03*
%TO.P,R7,2*%
%TO.N,GND*%
X206962500Y-101637500D03*
%TD*%
D11*
%TO.P,C4,1*%
%TO.N,Net-(U1-FB1P)*%
X246695780Y-91835268D03*
%TO.P,C4,2*%
%TO.N,GND*%
X248420780Y-91835268D03*
%TD*%
D12*
%TO.P,C38,1*%
%TO.N,GND*%
X238275001Y-70475002D03*
%TO.P,C38,2*%
%TO.N,+3V3_A*%
X236375001Y-70475002D03*
%TD*%
D13*
%TO.P,C31,1*%
%TO.N,VSHT*%
X191037500Y-115837500D03*
%TO.P,C31,2*%
%TO.N,Net-(D4-K)*%
X191037500Y-113762500D03*
%TD*%
D14*
%TO.P,C12,1*%
%TO.N,+6V*%
X205150000Y-99650000D03*
%TO.P,C12,2*%
%TO.N,GND*%
X205150000Y-101550000D03*
%TD*%
D15*
%TO.P,U2,1,OUT*%
%TO.N,+3V3_A*%
X236700002Y-75950001D03*
%TO.P,U2,2,SNS*%
X236700002Y-76600000D03*
%TO.P,U2,3,FB*%
%TO.N,Net-(U2-FB)*%
X236700002Y-77250001D03*
%TO.P,U2,4,PG*%
%TO.N,Net-(D6-A)*%
X236700002Y-77900000D03*
%TO.P,U2,5,50_mV*%
%TO.N,GND*%
X236700002Y-78550001D03*
D16*
%TO.P,U2,6,100_mV*%
X237725001Y-79575000D03*
%TO.P,U2,7,200_mV*%
%TO.N,unconnected-(U2-200_mV-Pad7)*%
X238375000Y-79575000D03*
%TO.P,U2,8,GND*%
%TO.N,GND*%
X239025001Y-79575000D03*
%TO.P,U2,9,400_mV*%
%TO.N,unconnected-(U2-400_mV-Pad9)*%
X239675000Y-79575000D03*
%TO.P,U2,10,800_mV*%
%TO.N,GND*%
X240325001Y-79575000D03*
D15*
%TO.P,U2,11,1.6_V*%
X241350000Y-78550001D03*
%TO.P,U2,12,BIAS*%
%TO.N,unconnected-(U2-BIAS-Pad12)*%
X241350000Y-77900000D03*
%TO.P,U2,13,NR_SS*%
%TO.N,Net-(U2-NR_SS)*%
X241350000Y-77250001D03*
%TO.P,U2,14,EN*%
%TO.N,Net-(U2-EN)*%
X241350000Y-76600000D03*
%TO.P,U2,15,IN*%
X241350000Y-75950001D03*
D16*
%TO.P,U2,16,IN*%
X240325001Y-74925002D03*
%TO.P,U2,17,IN*%
X239675000Y-74925002D03*
%TO.P,U2,18,GND*%
%TO.N,GND*%
X239025001Y-74925002D03*
%TO.P,U2,19,OUT*%
%TO.N,+3V3_A*%
X238375000Y-74925002D03*
%TO.P,U2,20,OUT*%
X237725001Y-74925002D03*
D17*
%TO.P,U2,21,PAD*%
%TO.N,GND*%
X239025001Y-77250001D03*
%TD*%
D18*
%TO.P,H6,1,1*%
%TO.N,GND*%
X266650000Y-119002146D03*
%TD*%
D19*
%TO.P,R1,1*%
%TO.N,-8V*%
X248433280Y-88585268D03*
%TO.P,R1,2*%
%TO.N,Net-(U1-FB2P)*%
X246783280Y-88585268D03*
%TD*%
D20*
%TO.P,U3,1,CDSCLK1*%
%TO.N,ADC_CDSCLK1*%
X216607200Y-75059800D03*
%TO.P,U3,2,CDSCLK2*%
%TO.N,ADC_CDSCLK2*%
X216607200Y-74409800D03*
%TO.P,U3,3,ADCCLK*%
%TO.N,ADC_CLK*%
X216607200Y-73759800D03*
%TO.P,U3,4,OEB*%
%TO.N,GND*%
X216607200Y-73109800D03*
%TO.P,U3,5,DRVDD*%
%TO.N,Net-(U3-DRVDD)*%
X216607200Y-72459800D03*
%TO.P,U3,6,DRVSS*%
%TO.N,GND*%
X216607200Y-71809800D03*
%TO.P,U3,7,(MSB)D7*%
%TO.N,ADC_D7*%
X216607200Y-71159800D03*
%TO.P,U3,8,D6*%
%TO.N,ADC_D6*%
X216607200Y-70509800D03*
%TO.P,U3,9,D5*%
%TO.N,ADC_D5*%
X216607200Y-69859800D03*
%TO.P,U3,10,D4*%
%TO.N,ADC_D4*%
X216607200Y-69209800D03*
%TO.P,U3,11,D3*%
%TO.N,ADC_D3*%
X216607200Y-68559800D03*
%TO.P,U3,12,D2*%
%TO.N,ADC_D2*%
X216607200Y-67909800D03*
%TO.P,U3,13,D1*%
%TO.N,ADC_D1*%
X216607200Y-67259800D03*
%TO.P,U3,14,(LSB)D0*%
%TO.N,ADC_D0*%
X216607200Y-66609800D03*
%TO.P,U3,15,SDATA*%
%TO.N,ADC_SPI_DATA*%
X209407200Y-66609800D03*
%TO.P,U3,16,SCLK*%
%TO.N,ADC_SPI_CLK*%
X209407200Y-67259800D03*
%TO.P,U3,17,SLOAD*%
%TO.N,ADC_SPI_LOAD*%
X209407200Y-67909800D03*
%TO.P,U3,18,AVDD_2*%
%TO.N,+3V3_A*%
X209407200Y-68559800D03*
%TO.P,U3,19,AVSS_2*%
%TO.N,GND*%
X209407200Y-69209800D03*
%TO.P,U3,20,CAPB*%
%TO.N,Net-(U3-CAPB)*%
X209407200Y-69859800D03*
%TO.P,U3,21,CAPT*%
%TO.N,Net-(U3-CAPT)*%
X209407200Y-70509800D03*
%TO.P,U3,22,VINB*%
%TO.N,unconnected-(U3-VINB-Pad22)*%
X209407200Y-71159800D03*
%TO.P,U3,23,CML*%
%TO.N,Net-(U3-CML)*%
X209407200Y-71809800D03*
%TO.P,U3,24,VING*%
%TO.N,Net-(U3-VING)*%
X209407200Y-72459800D03*
%TO.P,U3,25,OFFSET*%
%TO.N,Net-(U3-OFFSET)*%
X209407200Y-73109800D03*
%TO.P,U3,26,VINR*%
%TO.N,unconnected-(U3-VINR-Pad26)*%
X209407200Y-73759800D03*
%TO.P,U3,27,AVSS*%
%TO.N,GND*%
X209407200Y-74409800D03*
%TO.P,U3,28,AVDD*%
%TO.N,+3V3_A*%
X209407200Y-75059800D03*
%TD*%
D21*
%TO.P,FB1,1*%
%TO.N,+3V3_A*%
X220312500Y-72450000D03*
%TO.P,FB1,2*%
%TO.N,Net-(U3-DRVDD)*%
X218737500Y-72450000D03*
%TD*%
D18*
%TO.P,H5,1,1*%
%TO.N,GND*%
X266650000Y-69002146D03*
%TD*%
D22*
%TO.P,C20,1*%
%TO.N,Net-(U3-OFFSET)*%
X214450000Y-77125000D03*
%TO.P,C20,2*%
%TO.N,GND*%
X214450000Y-78675000D03*
%TD*%
D23*
%TO.P,MICRO_SD1,1,DAT2*%
%TO.N,SDIO_D2*%
X246889800Y-109476200D03*
%TO.P,MICRO_SD1,2,CD/DAT3*%
%TO.N,SDIO_D3*%
X245789800Y-109476200D03*
%TO.P,MICRO_SD1,3,CMD*%
%TO.N,SDIO_CMD*%
X244689800Y-109476200D03*
%TO.P,MICRO_SD1,4,VDD*%
%TO.N,+3V3_D*%
X243589800Y-109476200D03*
%TO.P,MICRO_SD1,5,CLK*%
%TO.N,SDIO_CLK*%
X242489800Y-109476200D03*
%TO.P,MICRO_SD1,6,VSS*%
%TO.N,GND*%
X241389800Y-109476200D03*
%TO.P,MICRO_SD1,7,DAT0*%
%TO.N,SDIO_D0*%
X240289800Y-109476200D03*
%TO.P,MICRO_SD1,8,DAT1*%
%TO.N,SDIO_D1*%
X239189800Y-109476200D03*
%TO.P,MICRO_SD1,CD1,CD*%
%TO.N,unconnected-(MICRO_SD1-CD-PadCD1)*%
X238089800Y-109476200D03*
D24*
%TO.P,MICRO_SD1,MP1,SHIELD*%
%TO.N,GND*%
X236671400Y-110250000D03*
D25*
%TO.P,MICRO_SD1,MP2,SHIELD*%
X236671400Y-119950000D03*
%TO.P,MICRO_SD1,MP3,SHIELD*%
X252496200Y-119950000D03*
D26*
%TO.P,MICRO_SD1,MP4,SHIELD*%
X251721200Y-110250000D03*
%TD*%
D27*
%TO.P,U5,1,ENA*%
%TO.N,unconnected-(U5-ENA-Pad1)*%
X204203280Y-90035268D03*
%TO.P,U5,2,INA*%
%TO.N,CTL_H1*%
X205473280Y-90035268D03*
%TO.P,U5,3,GND*%
%TO.N,GND*%
X206743280Y-90035268D03*
%TO.P,U5,4,INB*%
%TO.N,CTL_H2*%
X208013280Y-90035268D03*
%TO.P,U5,5,OUTB*%
%TO.N,H2*%
X208013280Y-85085268D03*
%TO.P,U5,6,VDD*%
%TO.N,+6V*%
X206743280Y-85085268D03*
%TO.P,U5,7,OUTA*%
%TO.N,H1*%
X205473280Y-85085268D03*
%TO.P,U5,8,ENB*%
%TO.N,unconnected-(U5-ENB-Pad8)*%
X204203280Y-85085268D03*
%TD*%
D28*
%TO.P,R6,1*%
%TO.N,+6V*%
X203212500Y-99837500D03*
%TO.P,R6,2*%
%TO.N,Net-(U7-FB)*%
X203212500Y-101662500D03*
%TD*%
D27*
%TO.P,U11,1,ENA*%
%TO.N,unconnected-(U11-ENA-Pad1)*%
X194203280Y-93672768D03*
%TO.P,U11,2,INA*%
%TO.N,CTL_RG#*%
X195473280Y-93672768D03*
%TO.P,U11,3,GND*%
%TO.N,GND*%
X196743280Y-93672768D03*
%TO.P,U11,4,INB*%
%TO.N,CTL_LH*%
X198013280Y-93672768D03*
%TO.P,U11,5,OUTB*%
%TO.N,LH*%
X198013280Y-88722768D03*
%TO.P,U11,6,VDD*%
%TO.N,+6V*%
X196743280Y-88722768D03*
%TO.P,U11,7,OUTA*%
%TO.N,RG*%
X195473280Y-88722768D03*
%TO.P,U11,8,ENB*%
%TO.N,unconnected-(U11-ENB-Pad8)*%
X194203280Y-88722768D03*
%TD*%
D29*
%TO.P,D2,1,K*%
%TO.N,GND*%
X244608280Y-85035268D03*
%TO.P,D2,2,A*%
%TO.N,Net-(D2-A)*%
X241308280Y-85035268D03*
%TD*%
D30*
%TO.P,C5,1*%
%TO.N,+15V*%
X241908280Y-99285268D03*
%TO.P,C5,2*%
%TO.N,GND*%
X241908280Y-97385268D03*
%TD*%
D31*
%TO.P,R17,1*%
%TO.N,Net-(D6-A)*%
X246925001Y-78650002D03*
%TO.P,R17,2*%
%TO.N,Net-(U2-EN)*%
X246925001Y-77000002D03*
%TD*%
D32*
%TO.P,L5,1,1*%
%TO.N,VCC*%
X245737501Y-72175002D03*
%TO.P,L5,2,2*%
%TO.N,Net-(U2-EN)*%
X243612501Y-72175002D03*
%TD*%
D33*
%TO.P,J4,A1,GND*%
%TO.N,GND*%
X255380000Y-118430000D03*
%TO.P,J4,A4,VBUS*%
%TO.N,VCC*%
X256180000Y-118430000D03*
D34*
%TO.P,J4,A5,CC1*%
%TO.N,unconnected-(J4-CC1-PadA5)*%
X257330000Y-118430000D03*
%TO.P,J4,A6,D+*%
%TO.N,unconnected-(J4-D+-PadA6)*%
X258330000Y-118430000D03*
%TO.P,J4,A7,D-*%
%TO.N,unconnected-(J4-D--PadA7)*%
X258830000Y-118430000D03*
%TO.P,J4,A8,SBU1*%
%TO.N,unconnected-(J4-SBU1-PadA8)*%
X259830000Y-118430000D03*
D33*
%TO.P,J4,A9,VBUS*%
%TO.N,VCC*%
X260980000Y-118430000D03*
%TO.P,J4,A12,GND*%
%TO.N,GND*%
X261780000Y-118430000D03*
%TO.P,J4,B1,GND*%
X261780000Y-118430000D03*
%TO.P,J4,B4,VBUS*%
%TO.N,VCC*%
X260980000Y-118430000D03*
D34*
%TO.P,J4,B5,CC2*%
%TO.N,unconnected-(J4-CC2-PadB5)*%
X260330000Y-118430000D03*
%TO.P,J4,B6,D+*%
%TO.N,unconnected-(J4-D+-PadB6)*%
X259330000Y-118430000D03*
%TO.P,J4,B7,D-*%
%TO.N,unconnected-(J4-D--PadB7)*%
X257830000Y-118430000D03*
%TO.P,J4,B8,SBU2*%
%TO.N,unconnected-(J4-SBU2-PadB8)*%
X256830000Y-118430000D03*
D33*
%TO.P,J4,B9,VBUS*%
%TO.N,VCC*%
X256180000Y-118430000D03*
%TO.P,J4,B12,GND*%
%TO.N,GND*%
X255380000Y-118430000D03*
D35*
%TO.P,J4,S1,SHIELD*%
X254260000Y-119030000D03*
D36*
X254260000Y-123230000D03*
D35*
X262900000Y-119030000D03*
D36*
X262900000Y-123230000D03*
%TD*%
D37*
%TO.P,C1,1*%
%TO.N,Net-(U1-SW2)*%
X241208280Y-88897768D03*
%TO.P,C1,2*%
%TO.N,Net-(D2-A)*%
X241208280Y-87172768D03*
%TD*%
D38*
%TO.P,C39,1*%
%TO.N,GND*%
X238100001Y-72275002D03*
%TO.P,C39,2*%
%TO.N,+3V3_A*%
X236550001Y-72275002D03*
%TD*%
D39*
%TO.P,Q3,1,G*%
%TO.N,CCD_VOUT*%
X196550000Y-70737500D03*
%TO.P,Q3,2,S*%
%TO.N,AMP_VOUT*%
X198450000Y-70737500D03*
%TO.P,Q3,3,D*%
%TO.N,Net-(Q3-D)*%
X197500000Y-68862500D03*
%TD*%
D11*
%TO.P,C6,1*%
%TO.N,+15V*%
X202150000Y-119862500D03*
%TO.P,C6,2*%
%TO.N,GND*%
X203875000Y-119862500D03*
%TD*%
D18*
%TO.P,H1,1,1*%
%TO.N,GND*%
X227989523Y-69002146D03*
%TD*%
D40*
%TO.P,U7,1,SW*%
%TO.N,Net-(D3-A)*%
X209850000Y-99800000D03*
%TO.P,U7,2,GND*%
%TO.N,GND*%
X209850000Y-100750000D03*
%TO.P,U7,3,FB*%
%TO.N,Net-(U7-FB)*%
X209850000Y-101700000D03*
%TO.P,U7,4,EN*%
%TO.N,VCC*%
X212125000Y-101700000D03*
%TO.P,U7,5,IN*%
X212125000Y-100750000D03*
%TO.P,U7,6,NC*%
%TO.N,unconnected-(U7-NC-Pad6)*%
X212125000Y-99800000D03*
%TD*%
D41*
%TO.P,L3,1,1*%
%TO.N,VCC*%
X211875000Y-97350000D03*
%TO.P,L3,2,2*%
%TO.N,Net-(D3-A)*%
X210225000Y-97350000D03*
%TD*%
D18*
%TO.P,H3,1,1*%
%TO.N,GND*%
X227989523Y-119002146D03*
%TD*%
D42*
%TO.P,C10,1*%
%TO.N,+3V3_A*%
X206475000Y-67800000D03*
%TO.P,C10,2*%
%TO.N,GND*%
X206475000Y-66250000D03*
%TD*%
D43*
%TO.P,C34,1*%
%TO.N,Net-(Q1-C)*%
X187900000Y-90337500D03*
%TO.P,C34,2*%
%TO.N,GND*%
X187900000Y-92062500D03*
%TD*%
D11*
%TO.P,C2,1*%
%TO.N,Net-(U1-FB2P)*%
X246745780Y-86985268D03*
%TO.P,C2,2*%
%TO.N,-8V*%
X248470780Y-86985268D03*
%TD*%
D44*
%TO.P,C22,1*%
%TO.N,GND*%
X202975000Y-69475000D03*
%TO.P,C22,2*%
%TO.N,Net-(U3-CAPB)*%
X204525000Y-69475000D03*
%TD*%
D45*
%TO.P,R15,1*%
%TO.N,Net-(Q1-B)*%
X184337500Y-94412500D03*
%TO.P,R15,2*%
%TO.N,+15V*%
X186162500Y-94412500D03*
%TD*%
D44*
%TO.P,C21,1*%
%TO.N,GND*%
X203000000Y-70950000D03*
%TO.P,C21,2*%
%TO.N,Net-(U3-CAPT)*%
X204550000Y-70950000D03*
%TD*%
D46*
%TO.P,J2,1,1*%
%TO.N,VCC*%
X227750000Y-80700000D03*
%TO.P,J2,2,2*%
X223350000Y-80700000D03*
%TO.P,J2,3,3*%
X227750000Y-81500000D03*
%TO.P,J2,4,4*%
X223350000Y-81500000D03*
%TO.P,J2,5,5*%
%TO.N,GND*%
X227750000Y-82300000D03*
%TO.P,J2,6,6*%
X223350000Y-82300000D03*
%TO.P,J2,7,7*%
%TO.N,ADC_D7*%
X227750000Y-83100000D03*
%TO.P,J2,8,8*%
%TO.N,ADC_CLK*%
X223350000Y-83100000D03*
%TO.P,J2,9,9*%
%TO.N,ADC_D6*%
X227750000Y-83900000D03*
%TO.P,J2,10,10*%
%TO.N,ADC_CDSCLK2*%
X223350000Y-83900000D03*
%TO.P,J2,11,11*%
%TO.N,ADC_D5*%
X227750000Y-84700000D03*
%TO.P,J2,12,12*%
%TO.N,ADC_CDSCLK1*%
X223350000Y-84700000D03*
%TO.P,J2,13,13*%
%TO.N,ADC_D4*%
X227750000Y-85500000D03*
%TO.P,J2,14,14*%
%TO.N,unconnected-(J2-Pad14)*%
X223350000Y-85500000D03*
%TO.P,J2,15,15*%
%TO.N,ADC_D3*%
X227750000Y-86300000D03*
%TO.P,J2,16,16*%
%TO.N,unconnected-(J2-Pad16)*%
X223350000Y-86300000D03*
%TO.P,J2,17,17*%
%TO.N,ADC_D2*%
X227750000Y-87100000D03*
%TO.P,J2,18,18*%
%TO.N,ADC_SPI_DATA*%
X223350000Y-87100000D03*
%TO.P,J2,19,19*%
%TO.N,ADC_D1*%
X227750000Y-87900000D03*
%TO.P,J2,20,20*%
%TO.N,ADC_SPI_CLK*%
X223350000Y-87900000D03*
%TO.P,J2,21,21*%
%TO.N,ADC_D0*%
X227750000Y-88700000D03*
%TO.P,J2,22,22*%
%TO.N,ADC_SPI_LOAD*%
X223350000Y-88700000D03*
%TO.P,J2,23,23*%
%TO.N,GND*%
X227750000Y-89500000D03*
%TO.P,J2,24,24*%
X223350000Y-89500000D03*
%TO.P,J2,25,25*%
%TO.N,BIAS_CTL*%
X227750000Y-90300000D03*
%TO.P,J2,26,26*%
%TO.N,CTL_H2*%
X223350000Y-90300000D03*
%TO.P,J2,27,27*%
%TO.N,XSHT*%
X227750000Y-91100000D03*
%TO.P,J2,28,28*%
%TO.N,CTL_H1*%
X223350000Y-91100000D03*
%TO.P,J2,29,29*%
%TO.N,XV2*%
X227750000Y-91900000D03*
%TO.P,J2,30,30*%
%TO.N,CTL_LH*%
X223350000Y-91900000D03*
%TO.P,J2,31,31*%
%TO.N,XV1*%
X227750000Y-92700000D03*
%TO.P,J2,32,32*%
%TO.N,CTL_RG#*%
X223350000Y-92700000D03*
%TO.P,J2,33,33*%
%TO.N,XSG1*%
X227750000Y-93500000D03*
%TO.P,J2,34,34*%
%TO.N,unconnected-(J2-Pad34)*%
X223350000Y-93500000D03*
%TO.P,J2,35,35*%
%TO.N,XV4*%
X227750000Y-94300000D03*
%TO.P,J2,36,36*%
%TO.N,unconnected-(J2-Pad36)*%
X223350000Y-94300000D03*
%TO.P,J2,37,37*%
%TO.N,XSG2*%
X227750000Y-95100000D03*
%TO.P,J2,38,38*%
%TO.N,unconnected-(J2-Pad38)*%
X223350000Y-95100000D03*
%TO.P,J2,39,39*%
%TO.N,XV3*%
X227750000Y-95900000D03*
%TO.P,J2,40,40*%
%TO.N,unconnected-(J2-Pad40)*%
X223350000Y-95900000D03*
%TO.P,J2,41,41*%
%TO.N,GND*%
X227750000Y-96700000D03*
%TO.P,J2,42,42*%
X223350000Y-96700000D03*
%TO.P,J2,43,43*%
%TO.N,unconnected-(J2-Pad43)*%
X227750000Y-97500000D03*
%TO.P,J2,44,44*%
%TO.N,unconnected-(J2-Pad44)*%
X223350000Y-97500000D03*
%TO.P,J2,45,45*%
%TO.N,unconnected-(J2-Pad45)*%
X227750000Y-98300000D03*
%TO.P,J2,46,46*%
%TO.N,unconnected-(J2-Pad46)*%
X223350000Y-98300000D03*
%TO.P,J2,47,47*%
%TO.N,unconnected-(J2-Pad47)*%
X227750000Y-99100000D03*
%TO.P,J2,48,48*%
%TO.N,unconnected-(J2-Pad48)*%
X223350000Y-99100000D03*
%TO.P,J2,49,49*%
%TO.N,unconnected-(J2-Pad49)*%
X227750000Y-99900000D03*
%TO.P,J2,50,50*%
%TO.N,unconnected-(J2-Pad50)*%
X223350000Y-99900000D03*
%TO.P,J2,51,51*%
%TO.N,unconnected-(J2-Pad51)*%
X227750000Y-100700000D03*
%TO.P,J2,52,52*%
%TO.N,unconnected-(J2-Pad52)*%
X223350000Y-100700000D03*
%TO.P,J2,53,53*%
%TO.N,SDIO_D2*%
X227750000Y-101500000D03*
%TO.P,J2,54,54*%
%TO.N,SDIO_CLK*%
X223350000Y-101500000D03*
%TO.P,J2,55,55*%
%TO.N,SDIO_D3*%
X227750000Y-102300000D03*
%TO.P,J2,56,56*%
%TO.N,SDIO_D0*%
X223350000Y-102300000D03*
%TO.P,J2,57,57*%
%TO.N,SDIO_CMD*%
X227750000Y-103100000D03*
%TO.P,J2,58,58*%
%TO.N,SDIO_D1*%
X223350000Y-103100000D03*
%TO.P,J2,59,59*%
%TO.N,GND*%
X227750000Y-103900000D03*
%TO.P,J2,60,60*%
X223350000Y-103900000D03*
%TD*%
D42*
%TO.P,C17,1*%
%TO.N,Net-(U3-CAPT)*%
X207475000Y-71025000D03*
%TO.P,C17,2*%
%TO.N,Net-(U3-CAPB)*%
X207475000Y-69475000D03*
%TD*%
D47*
%TO.P,U1,1,FB1N*%
%TO.N,Net-(U1-FB1N)*%
X244608280Y-92885268D03*
%TO.P,U1,2,FB1P*%
%TO.N,Net-(U1-FB1P)*%
X244608280Y-92385268D03*
%TO.P,U1,3,VREF*%
X244608280Y-91885268D03*
%TO.P,U1,4,FB2P*%
%TO.N,Net-(U1-FB2P)*%
X244608280Y-91385268D03*
%TO.P,U1,5,FB2N*%
%TO.N,GND*%
X244608280Y-90885268D03*
%TO.P,U1,6,SW2*%
%TO.N,Net-(U1-SW2)*%
X241708280Y-90885268D03*
%TO.P,U1,7,~{SHDN}/SS2*%
%TO.N,VCC*%
X241708280Y-91385268D03*
%TO.P,U1,8,VIN*%
X241708280Y-91885268D03*
%TO.P,U1,9,~{SHDN}/SS1*%
X241708280Y-92385268D03*
%TO.P,U1,10,SW1*%
%TO.N,Net-(D1-A)*%
X241708280Y-92885268D03*
D48*
%TO.P,U1,11,GND*%
%TO.N,GND*%
X243158280Y-91885268D03*
%TD*%
D49*
%TO.P,C30,1*%
%TO.N,Net-(ICX1-CSUB)*%
X201650000Y-83612500D03*
%TO.P,C30,2*%
%TO.N,GND*%
X201650000Y-85687500D03*
%TD*%
D44*
%TO.P,C25,1*%
%TO.N,+3V3_D*%
X248275000Y-103650000D03*
%TO.P,C25,2*%
%TO.N,GND*%
X249825000Y-103650000D03*
%TD*%
D41*
%TO.P,L1,1,1*%
%TO.N,VCC*%
X238083280Y-89935268D03*
%TO.P,L1,2,2*%
%TO.N,Net-(U1-SW2)*%
X239733280Y-89935268D03*
%TD*%
D31*
%TO.P,R9,1*%
%TO.N,AMP_VOUT*%
X200125000Y-70750000D03*
%TO.P,R9,2*%
%TO.N,GND*%
X200125000Y-69100000D03*
%TD*%
D18*
%TO.P,H2,1,1*%
%TO.N,GND*%
X177989523Y-69002146D03*
%TD*%
D50*
%TO.P,L4,1,1*%
%TO.N,Net-(Q1-C)*%
X189500000Y-90300000D03*
%TO.P,L4,2,2*%
%TO.N,+15V_SW*%
X189500000Y-92050000D03*
%TD*%
D30*
%TO.P,C3,1*%
%TO.N,-8V*%
X236008280Y-84935268D03*
%TO.P,C3,2*%
%TO.N,GND*%
X236008280Y-83035268D03*
%TD*%
D41*
%TO.P,L6,1,1*%
%TO.N,Net-(D2-A)*%
X239683280Y-84985268D03*
%TO.P,L6,2,2*%
%TO.N,-8V*%
X238033280Y-84985268D03*
%TD*%
D49*
%TO.P,C29,1*%
%TO.N,Net-(ICX1-\u03C6RG)*%
X195458280Y-83822768D03*
%TO.P,C29,2*%
%TO.N,RG*%
X195458280Y-85897768D03*
%TD*%
D51*
%TO.P,R3,1*%
%TO.N,+15V*%
X246783280Y-94985268D03*
%TO.P,R3,2*%
%TO.N,Net-(U1-FB1N)*%
X248433280Y-94985268D03*
%TD*%
D52*
%TO.P,U6,1,CPP3*%
%TO.N,+15V*%
X202350000Y-117725000D03*
%TO.P,U6,2,VH*%
X203000000Y-117725000D03*
%TO.P,U6,3,DCIN*%
%TO.N,GND*%
X203650000Y-117725000D03*
%TO.P,U6,4,XSHT*%
%TO.N,XSHT*%
X204300000Y-117725000D03*
%TO.P,U6,5,XV2*%
%TO.N,XV2*%
X204950000Y-117725000D03*
%TO.P,U6,6,XV1*%
%TO.N,XV1*%
X205600000Y-117725000D03*
%TO.P,U6,7,XSG1*%
%TO.N,XSG1*%
X206250000Y-117725000D03*
%TO.P,U6,8,XV3*%
%TO.N,XV3*%
X206900000Y-117725000D03*
%TO.P,U6,9,XSG2*%
%TO.N,XSG2*%
X207550000Y-117725000D03*
%TO.P,U6,10,XV4*%
%TO.N,XV4*%
X208200000Y-117725000D03*
%TO.P,U6,11,V4*%
%TO.N,V4*%
X208200000Y-112000000D03*
%TO.P,U6,12,V3*%
%TO.N,V3*%
X207550000Y-112000000D03*
%TO.P,U6,13,GND*%
%TO.N,GND*%
X206900000Y-112000000D03*
%TO.P,U6,14,V1*%
%TO.N,V1*%
X206250000Y-112000000D03*
%TO.P,U6,15,V2*%
%TO.N,V2*%
X205600000Y-112000000D03*
%TO.P,U6,16,VL*%
%TO.N,-8V*%
X204950000Y-112000000D03*
%TO.P,U6,17,VSHT*%
%TO.N,VSHT*%
X204300000Y-112000000D03*
%TO.P,U6,18,DCOUT*%
%TO.N,unconnected-(U6-DCOUT-Pad18)*%
X203650000Y-112000000D03*
%TO.P,U6,19,CPP2*%
%TO.N,unconnected-(U6-CPP2-Pad19)*%
X203000000Y-112000000D03*
%TO.P,U6,20,CPP1*%
%TO.N,unconnected-(U6-CPP1-Pad20)*%
X202350000Y-112000000D03*
%TD*%
D39*
%TO.P,Q1,1,B*%
%TO.N,Net-(Q1-B)*%
X184325000Y-92150000D03*
%TO.P,Q1,2,E*%
%TO.N,+15V*%
X186225000Y-92150000D03*
%TO.P,Q1,3,C*%
%TO.N,Net-(Q1-C)*%
X185275000Y-90275000D03*
%TD*%
D42*
%TO.P,C16,1*%
%TO.N,Net-(U3-CAPT)*%
X206000000Y-71000000D03*
%TO.P,C16,2*%
%TO.N,Net-(U3-CAPB)*%
X206000000Y-69450000D03*
%TD*%
D45*
%TO.P,R13,1*%
%TO.N,Net-(ICX1-VSUB)*%
X188825000Y-111950000D03*
%TO.P,R13,2*%
%TO.N,GND*%
X190650000Y-111950000D03*
%TD*%
D46*
%TO.P,J1,1,1*%
%TO.N,VCC*%
X260770000Y-80700000D03*
%TO.P,J1,2,2*%
X256370000Y-80700000D03*
%TO.P,J1,3,3*%
X260770000Y-81500000D03*
%TO.P,J1,4,4*%
X256370000Y-81500000D03*
%TO.P,J1,5,5*%
%TO.N,GND*%
X260770000Y-82300000D03*
%TO.P,J1,6,6*%
X256370000Y-82300000D03*
%TO.P,J1,7,7*%
%TO.N,unconnected-(J1-Pad7)*%
X260770000Y-83100000D03*
%TO.P,J1,8,8*%
%TO.N,SW2*%
X256370000Y-83100000D03*
%TO.P,J1,9,9*%
%TO.N,unconnected-(J1-Pad9)*%
X260770000Y-83900000D03*
%TO.P,J1,10,10*%
%TO.N,SW1*%
X256370000Y-83900000D03*
%TO.P,J1,11,11*%
%TO.N,unconnected-(J1-Pad11)*%
X260770000Y-84700000D03*
%TO.P,J1,12,12*%
%TO.N,SW3*%
X256370000Y-84700000D03*
%TO.P,J1,13,13*%
%TO.N,unconnected-(J1-Pad13)*%
X260770000Y-85500000D03*
%TO.P,J1,14,14*%
%TO.N,SW4*%
X256370000Y-85500000D03*
%TO.P,J1,15,15*%
%TO.N,unconnected-(J1-Pad15)*%
X260770000Y-86300000D03*
%TO.P,J1,16,16*%
%TO.N,SW6*%
X256370000Y-86300000D03*
%TO.P,J1,17,17*%
%TO.N,unconnected-(J1-Pad17)*%
X260770000Y-87100000D03*
%TO.P,J1,18,18*%
%TO.N,SW5*%
X256370000Y-87100000D03*
%TO.P,J1,19,19*%
%TO.N,unconnected-(J1-Pad19)*%
X260770000Y-87900000D03*
%TO.P,J1,20,20*%
%TO.N,unconnected-(J1-Pad20)*%
X256370000Y-87900000D03*
%TO.P,J1,21,21*%
%TO.N,unconnected-(J1-Pad21)*%
X260770000Y-88700000D03*
%TO.P,J1,22,22*%
%TO.N,unconnected-(J1-Pad22)*%
X256370000Y-88700000D03*
%TO.P,J1,23,23*%
%TO.N,GND*%
X260770000Y-89500000D03*
%TO.P,J1,24,24*%
X256370000Y-89500000D03*
%TO.P,J1,25,25*%
%TO.N,unconnected-(J1-Pad25)*%
X260770000Y-90300000D03*
%TO.P,J1,26,26*%
%TO.N,BLK*%
X256370000Y-90300000D03*
%TO.P,J1,27,27*%
%TO.N,unconnected-(J1-Pad27)*%
X260770000Y-91100000D03*
%TO.P,J1,28,28*%
%TO.N,CS*%
X256370000Y-91100000D03*
%TO.P,J1,29,29*%
%TO.N,unconnected-(J1-Pad29)*%
X260770000Y-91900000D03*
%TO.P,J1,30,30*%
%TO.N,DC*%
X256370000Y-91900000D03*
%TO.P,J1,31,31*%
%TO.N,unconnected-(J1-Pad31)*%
X260770000Y-92700000D03*
%TO.P,J1,32,32*%
%TO.N,RES*%
X256370000Y-92700000D03*
%TO.P,J1,33,33*%
%TO.N,unconnected-(J1-Pad33)*%
X260770000Y-93500000D03*
%TO.P,J1,34,34*%
%TO.N,SDA*%
X256370000Y-93500000D03*
%TO.P,J1,35,35*%
%TO.N,unconnected-(J1-Pad35)*%
X260770000Y-94300000D03*
%TO.P,J1,36,36*%
%TO.N,SCL*%
X256370000Y-94300000D03*
%TO.P,J1,37,37*%
%TO.N,unconnected-(J1-Pad37)*%
X260770000Y-95100000D03*
%TO.P,J1,38,38*%
%TO.N,unconnected-(J1-Pad38)*%
X256370000Y-95100000D03*
%TO.P,J1,39,39*%
%TO.N,unconnected-(J1-Pad39)*%
X260770000Y-95900000D03*
%TO.P,J1,40,40*%
%TO.N,unconnected-(J1-Pad40)*%
X256370000Y-95900000D03*
%TO.P,J1,41,41*%
%TO.N,GND*%
X260770000Y-96700000D03*
%TO.P,J1,42,42*%
X256370000Y-96700000D03*
%TO.P,J1,43,43*%
%TO.N,unconnected-(J1-Pad43)*%
X260770000Y-97500000D03*
%TO.P,J1,44,44*%
%TO.N,unconnected-(J1-Pad44)*%
X256370000Y-97500000D03*
%TO.P,J1,45,45*%
%TO.N,unconnected-(J1-Pad45)*%
X260770000Y-98300000D03*
%TO.P,J1,46,46*%
%TO.N,unconnected-(J1-Pad46)*%
X256370000Y-98300000D03*
%TO.P,J1,47,47*%
%TO.N,unconnected-(J1-Pad47)*%
X260770000Y-99100000D03*
%TO.P,J1,48,48*%
%TO.N,unconnected-(J1-Pad48)*%
X256370000Y-99100000D03*
%TO.P,J1,49,49*%
%TO.N,unconnected-(J1-Pad49)*%
X260770000Y-99900000D03*
%TO.P,J1,50,50*%
%TO.N,unconnected-(J1-Pad50)*%
X256370000Y-99900000D03*
%TO.P,J1,51,51*%
%TO.N,unconnected-(J1-Pad51)*%
X260770000Y-100700000D03*
%TO.P,J1,52,52*%
%TO.N,unconnected-(J1-Pad52)*%
X256370000Y-100700000D03*
%TO.P,J1,53,53*%
%TO.N,unconnected-(J1-Pad53)*%
X260770000Y-101500000D03*
%TO.P,J1,54,54*%
%TO.N,unconnected-(J1-Pad54)*%
X256370000Y-101500000D03*
%TO.P,J1,55,55*%
%TO.N,TDO*%
X260770000Y-102300000D03*
%TO.P,J1,56,56*%
%TO.N,TDI*%
X256370000Y-102300000D03*
%TO.P,J1,57,57*%
%TO.N,TCK*%
X260770000Y-103100000D03*
%TO.P,J1,58,58*%
%TO.N,TMS*%
X256370000Y-103100000D03*
%TO.P,J1,59,59*%
%TO.N,GND*%
X260770000Y-103900000D03*
%TO.P,J1,60,60*%
X256370000Y-103900000D03*
%TD*%
D38*
%TO.P,C24,1*%
%TO.N,Net-(U4-BP)*%
X246375000Y-103487500D03*
%TO.P,C24,2*%
%TO.N,GND*%
X244825000Y-103487500D03*
%TD*%
D53*
%TO.P,C33,1*%
%TO.N,GND*%
X190825000Y-110100000D03*
%TO.P,C33,2*%
%TO.N,Net-(ICX1-VSUB)*%
X188750000Y-110100000D03*
%TD*%
D13*
%TO.P,C32,1*%
%TO.N,Net-(D4-K)*%
X188837500Y-115787500D03*
%TO.P,C32,2*%
%TO.N,Net-(ICX1-VSUB)*%
X188837500Y-113712500D03*
%TD*%
D51*
%TO.P,R4,1*%
%TO.N,Net-(U1-FB1N)*%
X246758280Y-93435268D03*
%TO.P,R4,2*%
%TO.N,GND*%
X248408280Y-93435268D03*
%TD*%
D10*
%TO.P,R14,1*%
%TO.N,Net-(D4-K)*%
X192937500Y-113612500D03*
%TO.P,R14,2*%
%TO.N,GND*%
X192937500Y-111787500D03*
%TD*%
D42*
%TO.P,C40,1*%
%TO.N,+3V3_A*%
X207125000Y-75475000D03*
%TO.P,C40,2*%
%TO.N,GND*%
X207125000Y-73925000D03*
%TD*%
D54*
%TO.P,J5,1,Pin_1*%
%TO.N,TMS*%
X268100000Y-102730000D03*
D55*
%TO.P,J5,2,Pin_2*%
%TO.N,TCK*%
X268100000Y-100190000D03*
%TO.P,J5,3,Pin_3*%
%TO.N,TDO*%
X268100000Y-97650000D03*
%TO.P,J5,4,Pin_4*%
%TO.N,TDI*%
X268100000Y-95110000D03*
%TO.P,J5,5,Pin_5*%
%TO.N,GND*%
X268100000Y-92570000D03*
%TD*%
D37*
%TO.P,C11,1*%
%TO.N,VCC*%
X213750000Y-96762500D03*
%TO.P,C11,2*%
%TO.N,GND*%
X213750000Y-95037500D03*
%TD*%
D38*
%TO.P,C37,1*%
%TO.N,VCC*%
X248325000Y-97887500D03*
%TO.P,C37,2*%
%TO.N,GND*%
X246775000Y-97887500D03*
%TD*%
D56*
%TO.P,C26,1*%
%TO.N,GND*%
X199275000Y-65350000D03*
%TO.P,C26,2*%
%TO.N,Net-(Q3-D)*%
X197550000Y-65350000D03*
%TD*%
D44*
%TO.P,C35,1*%
%TO.N,GND*%
X240000001Y-72275002D03*
%TO.P,C35,2*%
%TO.N,Net-(U2-EN)*%
X241550001Y-72275002D03*
%TD*%
D11*
%TO.P,C7,1*%
%TO.N,-8V*%
X205050000Y-110012500D03*
%TO.P,C7,2*%
%TO.N,GND*%
X206775000Y-110012500D03*
%TD*%
D22*
%TO.P,C15,1*%
%TO.N,AMP_VOUT*%
X201050000Y-72385000D03*
%TO.P,C15,2*%
%TO.N,Net-(U3-VING)*%
X201050000Y-73935000D03*
%TD*%
D57*
%TO.P,D5,1,K*%
%TO.N,+15V_SW*%
X196050000Y-75400000D03*
%TO.P,D5,2,A*%
%TO.N,+3V3_A*%
X199350000Y-75400000D03*
%TD*%
D22*
%TO.P,C9,1*%
%TO.N,Net-(U2-NR_SS)*%
X243825001Y-77050002D03*
%TO.P,C9,2*%
%TO.N,GND*%
X243825001Y-78600002D03*
%TD*%
D57*
%TO.P,D3,1,K*%
%TO.N,+6V*%
X205100000Y-97400000D03*
%TO.P,D3,2,A*%
%TO.N,Net-(D3-A)*%
X208400000Y-97400000D03*
%TD*%
D10*
%TO.P,R16,1*%
%TO.N,Net-(Q2-E)*%
X187950000Y-87475000D03*
%TO.P,R16,2*%
%TO.N,GND*%
X187950000Y-85650000D03*
%TD*%
D58*
%TO.P,D4,1,K*%
%TO.N,Net-(D4-K)*%
X195000000Y-114750000D03*
%TO.P,D4,2,A*%
%TO.N,+15V*%
X195000000Y-111450000D03*
%TD*%
D44*
%TO.P,C23,1*%
%TO.N,Net-(U3-DRVDD)*%
X219275000Y-73925000D03*
%TO.P,C23,2*%
%TO.N,GND*%
X220825000Y-73925000D03*
%TD*%
D22*
%TO.P,C19,1*%
%TO.N,Net-(U3-OFFSET)*%
X212850000Y-77150000D03*
%TO.P,C19,2*%
%TO.N,GND*%
X212850000Y-78700000D03*
%TD*%
%TO.P,C36,1*%
%TO.N,+3V3_A*%
X234550000Y-75975002D03*
%TO.P,C36,2*%
%TO.N,Net-(U2-FB)*%
X234550000Y-77525002D03*
%TD*%
D41*
%TO.P,L2,1,1*%
%TO.N,Net-(D1-A)*%
X239783280Y-93735268D03*
%TO.P,L2,2,2*%
%TO.N,VCC*%
X238133280Y-93735268D03*
%TD*%
D51*
%TO.P,R2,1*%
%TO.N,Net-(U1-FB2P)*%
X246733280Y-90235268D03*
%TO.P,R2,2*%
%TO.N,Net-(U1-FB1P)*%
X248383280Y-90235268D03*
%TD*%
D54*
%TO.P,J3,1,Pin_1*%
%TO.N,BLK*%
X177450000Y-85127146D03*
D55*
%TO.P,J3,2,Pin_2*%
%TO.N,CS*%
X177450000Y-87667146D03*
%TO.P,J3,3,Pin_3*%
%TO.N,DC*%
X177450000Y-90207146D03*
%TO.P,J3,4,Pin_4*%
%TO.N,RES*%
X177450000Y-92747146D03*
%TO.P,J3,5,Pin_5*%
%TO.N,SDA*%
X177450000Y-95287146D03*
%TO.P,J3,6,Pin_6*%
%TO.N,SCL*%
X177450000Y-97827146D03*
%TO.P,J3,7,Pin_7*%
%TO.N,+3V3_D*%
X177450000Y-100367146D03*
%TO.P,J3,8,Pin_8*%
%TO.N,GND*%
X177450000Y-102907146D03*
%TD*%
D18*
%TO.P,H4,1,1*%
%TO.N,GND*%
X177989523Y-119002146D03*
%TD*%
D58*
%TO.P,D1,1,K*%
%TO.N,+15V*%
X239608280Y-99335268D03*
%TO.P,D1,2,A*%
%TO.N,Net-(D1-A)*%
X239608280Y-96035268D03*
%TD*%
D38*
%TO.P,C18,1*%
%TO.N,Net-(U3-CML)*%
X204535000Y-72450000D03*
%TO.P,C18,2*%
%TO.N,GND*%
X202985000Y-72450000D03*
%TD*%
D19*
%TO.P,R11,1*%
%TO.N,+15V_SW*%
X199275000Y-67000000D03*
%TO.P,R11,2*%
%TO.N,Net-(Q3-D)*%
X197625000Y-67000000D03*
%TD*%
D39*
%TO.P,Q2,1,B*%
%TO.N,BIAS_CTL*%
X184300000Y-87550000D03*
%TO.P,Q2,2,E*%
%TO.N,Net-(Q2-E)*%
X186200000Y-87550000D03*
%TO.P,Q2,3,C*%
%TO.N,Net-(Q1-B)*%
X185250000Y-85675000D03*
%TD*%
D59*
%TO.P,U4,1,IN*%
%TO.N,VCC*%
X248250000Y-99562500D03*
%TO.P,U4,2,GND*%
%TO.N,GND*%
X247300000Y-99562500D03*
%TO.P,U4,3,EN*%
%TO.N,VCC*%
X246350000Y-99562500D03*
%TO.P,U4,4,BP*%
%TO.N,Net-(U4-BP)*%
X246350000Y-101837500D03*
%TO.P,U4,5,OUT*%
%TO.N,+3V3_D*%
X248250000Y-101837500D03*
%TD*%
D60*
%TO.P,C8,1*%
%TO.N,GND*%
X239875001Y-70475002D03*
%TO.P,C8,2*%
%TO.N,Net-(U2-EN)*%
X241775001Y-70475002D03*
%TD*%
D61*
%TO.P,D6,1,K*%
%TO.N,GND*%
X245375001Y-78612502D03*
%TO.P,D6,2,A*%
%TO.N,Net-(D6-A)*%
X245375001Y-77037502D03*
%TD*%
D62*
%TO.P,ICX1,1,VL*%
%TO.N,-8V*%
X217213523Y-107127146D03*
%TO.P,ICX1,2,GND*%
%TO.N,GND*%
X215435523Y-107127146D03*
%TO.P,ICX1,3,NC*%
%TO.N,unconnected-(ICX1-NC-Pad3)*%
X213657523Y-107127146D03*
%TO.P,ICX1,4,NC*%
%TO.N,unconnected-(ICX1-NC-Pad4)*%
X211879523Y-107127146D03*
%TO.P,ICX1,5,V\u03C64*%
%TO.N,V4*%
X210101523Y-107127146D03*
%TO.P,ICX1,6,NC*%
%TO.N,unconnected-(ICX1-NC-Pad6)*%
X208323523Y-107127146D03*
%TO.P,ICX1,7,V\u03C63*%
%TO.N,V3*%
X206545523Y-107127146D03*
%TO.P,ICX1,8,NC*%
%TO.N,unconnected-(ICX1-NC-Pad8)*%
X204767523Y-107127146D03*
%TO.P,ICX1,9,GND*%
%TO.N,GND*%
X202989523Y-107127146D03*
%TO.P,ICX1,10,V\u03C62*%
%TO.N,V2*%
X201211523Y-107127146D03*
%TO.P,ICX1,11,NC*%
%TO.N,unconnected-(ICX1-NC-Pad11)*%
X199433523Y-107127146D03*
%TO.P,ICX1,12,NC*%
%TO.N,unconnected-(ICX1-NC-Pad12)*%
X197655523Y-107127146D03*
%TO.P,ICX1,13,NC*%
%TO.N,unconnected-(ICX1-NC-Pad13)*%
X195877523Y-107127146D03*
%TO.P,ICX1,14,V\u03C61*%
%TO.N,V1*%
X194099523Y-107127146D03*
%TO.P,ICX1,15,NC*%
%TO.N,unconnected-(ICX1-NC-Pad15)*%
X192321523Y-107127146D03*
%TO.P,ICX1,16,GND*%
%TO.N,GND*%
X190543523Y-107127146D03*
%TO.P,ICX1,17,VSUB*%
%TO.N,Net-(ICX1-VSUB)*%
X188765523Y-107127146D03*
%TO.P,ICX1,18,VSS*%
%TO.N,GND*%
X188765523Y-80877146D03*
%TO.P,ICX1,19,VOUT*%
%TO.N,CCD_VOUT*%
X190543523Y-80877146D03*
%TO.P,ICX1,20,\u03C6RG*%
%TO.N,Net-(ICX1-\u03C6RG)*%
X192321523Y-80877146D03*
%TO.P,ICX1,21,GND*%
%TO.N,GND*%
X194099523Y-80877146D03*
%TO.P,ICX1,22,VDD*%
%TO.N,+15V_SW*%
X195877523Y-80877146D03*
%TO.P,ICX1,23,LH\u03C6*%
%TO.N,LH*%
X197655523Y-80877146D03*
%TO.P,ICX1,24,H\u03C62D*%
%TO.N,H2*%
X199433523Y-80877146D03*
%TO.P,ICX1,25,H\u03C61D*%
%TO.N,H1*%
X201211523Y-80877146D03*
%TO.P,ICX1,26,CSUB*%
%TO.N,Net-(ICX1-CSUB)*%
X202989523Y-80877146D03*
%TO.P,ICX1,27,H\u03C62C*%
%TO.N,H2*%
X204767523Y-80877146D03*
%TO.P,ICX1,28,H\u03C61C*%
%TO.N,H1*%
X206545523Y-80877146D03*
%TO.P,ICX1,29,GND*%
%TO.N,GND*%
X208323523Y-80877146D03*
%TO.P,ICX1,30,H\u03C62B*%
%TO.N,H2*%
X210101523Y-80877146D03*
%TO.P,ICX1,31,H\u03C61B*%
%TO.N,H1*%
X211879523Y-80877146D03*
%TO.P,ICX1,32,GND*%
%TO.N,GND*%
X213657523Y-80877146D03*
%TO.P,ICX1,33,H\u03C62A*%
%TO.N,H2*%
X215435523Y-80877146D03*
%TO.P,ICX1,34,H\u03C61A*%
%TO.N,H1*%
X217213523Y-80877146D03*
%TD*%
D63*
%TO.N,-8V*%
X235958280Y-87635268D03*
X235958280Y-86435268D03*
D64*
X205000000Y-110000000D03*
D63*
%TO.N,+15V*%
X238058280Y-99235268D03*
D64*
X195050000Y-111450000D03*
D65*
X200600000Y-119850000D03*
D64*
%TO.N,VCC*%
X213850000Y-101600000D03*
X213800000Y-100350000D03*
X260960000Y-116650000D03*
X256150000Y-116460000D03*
X258550000Y-81450000D03*
X246500000Y-72750000D03*
X245737501Y-72175002D03*
X238358280Y-92335268D03*
X246500000Y-71650000D03*
X249650000Y-96950000D03*
X226200000Y-80700000D03*
X213800000Y-98900000D03*
X249650000Y-98350000D03*
X224950000Y-80700000D03*
X238358280Y-91285268D03*
X237808280Y-92335268D03*
X259100000Y-80750000D03*
X237808280Y-91285268D03*
X258000000Y-80700000D03*
X225550000Y-81400000D03*
%TO.N,+6V*%
X205053792Y-99415172D03*
D65*
X196600000Y-90150000D03*
X206800000Y-86450000D03*
D64*
X205039871Y-98350250D03*
X205100000Y-97400000D03*
%TO.N,Net-(ICX1-CSUB)*%
X201650000Y-83550000D03*
%TO.N,V3*%
X207500000Y-113400000D03*
%TO.N,V2*%
X205300000Y-113400000D03*
%TO.N,+15V_SW*%
X190625000Y-85062500D03*
X195975000Y-75475000D03*
X199275000Y-67000000D03*
%TO.N,V1*%
X206200000Y-113400000D03*
%TO.N,BIAS_CTL*%
X227750000Y-90300000D03*
X183150000Y-87912500D03*
%TO.N,GND*%
X239027902Y-78396122D03*
X243058280Y-96635268D03*
X206192212Y-101561182D03*
X256350000Y-96700000D03*
X252496200Y-119950000D03*
X239025001Y-77250001D03*
X244825000Y-103487500D03*
X242708154Y-112775584D03*
X243158280Y-91885268D03*
D65*
X196500000Y-92100000D03*
D64*
X211000000Y-69200000D03*
X243542446Y-91168030D03*
X199275000Y-65350000D03*
X239950000Y-70800000D03*
X200125000Y-69100000D03*
X261425000Y-122050000D03*
X213750000Y-95037500D03*
X236671400Y-119950000D03*
X254700000Y-89500000D03*
X243132563Y-92702908D03*
X242748844Y-91202914D03*
X223350000Y-82300000D03*
X249825000Y-103650000D03*
X248358280Y-92635268D03*
X262700000Y-89500000D03*
X206781250Y-110018750D03*
X194000000Y-100575000D03*
X264150000Y-84050000D03*
X193825000Y-119600000D03*
X236671400Y-110250000D03*
X260770000Y-96700000D03*
X202975000Y-69475000D03*
X256350000Y-109650000D03*
X264724269Y-102848057D03*
X236008280Y-83035268D03*
X221800000Y-103900000D03*
X239016274Y-76105433D03*
X244508280Y-86235268D03*
X205150000Y-101550000D03*
X207163170Y-101561182D03*
X189475000Y-70175000D03*
X215175000Y-72400000D03*
X225550000Y-89500000D03*
X229550000Y-103900000D03*
X220825000Y-73925000D03*
X187900000Y-92062500D03*
X206525000Y-66300000D03*
D65*
X203850000Y-121000000D03*
D64*
X190650000Y-111950000D03*
X201650000Y-85687500D03*
X227750000Y-96700000D03*
X207050000Y-73925000D03*
X246775000Y-97887500D03*
X233175000Y-96800000D03*
D65*
X206800000Y-88550000D03*
D64*
%TO.N,XSG1*%
X227750000Y-93500000D03*
X220995595Y-97976614D03*
%TO.N,XV1*%
X227750000Y-92700000D03*
X220250000Y-97150000D03*
%TO.N,XV2*%
X227750000Y-91900000D03*
X219900000Y-96300000D03*
%TO.N,XSHT*%
X227750000Y-91100000D03*
X218900000Y-96200000D03*
%TO.N,ADC_SPI_LOAD*%
X211150000Y-67800000D03*
X219750000Y-86250000D03*
%TO.N,ADC_SPI_DATA*%
X207600000Y-66600000D03*
X221450000Y-86150000D03*
%TO.N,XSG2*%
X227750000Y-95100000D03*
X223514628Y-105506528D03*
%TO.N,XV3*%
X227750000Y-95900000D03*
X224400000Y-105600000D03*
%TO.N,XV4*%
X222800000Y-105200000D03*
X227750000Y-94300000D03*
%TO.N,ADC_SPI_CLK*%
X208000000Y-67550000D03*
X220550000Y-86250000D03*
%TO.N,SDIO_D3*%
X245750000Y-111050000D03*
%TO.N,SDIO_D0*%
X240750000Y-111150000D03*
%TO.N,SDIO_D2*%
X247250000Y-111150000D03*
%TO.N,SDIO_D1*%
X239200000Y-111150000D03*
%TO.N,SDIO_CMD*%
X244300000Y-111100000D03*
%TO.N,+3V3_A*%
X222250000Y-64750000D03*
X203037500Y-75012500D03*
X199450000Y-75350000D03*
D65*
X204350000Y-67450000D03*
D64*
X220312500Y-72450000D03*
%TO.N,+3V3_D*%
X247600000Y-106000000D03*
X248100000Y-105500000D03*
X243600000Y-109450000D03*
%TO.N,DC*%
X252700000Y-92600000D03*
%TO.N,BLK*%
X250900000Y-92100000D03*
%TO.N,CS*%
X251800000Y-92200000D03*
%TO.N,RES*%
X253400000Y-93100000D03*
%TO.N,TMS*%
X258500000Y-103300000D03*
%TO.N,TDI*%
X258500000Y-101350000D03*
%TO.N,SW1*%
X250700000Y-66200000D03*
%TO.N,SW2*%
X256150000Y-79550000D03*
%TO.N,SW3*%
X258850000Y-85200000D03*
%TO.N,SW4*%
X259050000Y-97050000D03*
%TO.N,SW5*%
X258150000Y-99750000D03*
%TO.N,SW6*%
X244300000Y-66250000D03*
%TD*%
D66*
%TO.N,Net-(Q3-D)*%
X197550000Y-65350000D02*
X197550000Y-66925000D01*
X197550000Y-66925000D02*
X197625000Y-67000000D01*
X197500000Y-68862500D02*
X197500000Y-67125000D01*
X197500000Y-67125000D02*
X197625000Y-67000000D01*
D67*
%TO.N,-8V*%
X248470780Y-86985268D02*
X248470780Y-86047768D01*
D68*
X238033280Y-84985268D02*
X236058280Y-84985268D01*
X235958280Y-84985268D02*
X235958280Y-87635268D01*
D67*
X238033280Y-82810268D02*
X238033280Y-84985268D01*
X248470780Y-86985268D02*
X248470780Y-88547768D01*
X238558280Y-82285268D02*
X238033280Y-82810268D01*
D69*
X204950000Y-112000000D02*
X204950000Y-110112500D01*
X204950000Y-110112500D02*
X205050000Y-110012500D01*
D67*
X248470780Y-86047768D02*
X244708280Y-82285268D01*
X244708280Y-82285268D02*
X238558280Y-82285268D01*
D68*
X236058280Y-84985268D02*
X236008280Y-84935268D01*
X236008280Y-84935268D02*
X235958280Y-84985268D01*
D67*
X248470780Y-88547768D02*
X248433280Y-88585268D01*
D69*
%TO.N,+15V*%
X186162500Y-99562500D02*
X191400000Y-104800000D01*
D68*
X200600000Y-119850000D02*
X202137500Y-119850000D01*
D69*
X194300000Y-109850000D02*
X195050000Y-110600000D01*
X203000000Y-117725000D02*
X203000000Y-119012500D01*
X186225000Y-92150000D02*
X186225000Y-94350000D01*
X195050000Y-110600000D02*
X195050000Y-111450000D01*
D68*
X238108280Y-99285268D02*
X238058280Y-99235268D01*
D69*
X193050000Y-109850000D02*
X194300000Y-109850000D01*
X186162500Y-94412500D02*
X186162500Y-99562500D01*
X186225000Y-94350000D02*
X186162500Y-94412500D01*
D67*
X242433280Y-99335268D02*
X246783280Y-94985268D01*
D69*
X202350000Y-119662500D02*
X202150000Y-119862500D01*
D68*
X241908280Y-99285268D02*
X238108280Y-99285268D01*
D69*
X203000000Y-119012500D02*
X202150000Y-119862500D01*
X191400000Y-108200000D02*
X193050000Y-109850000D01*
D68*
X202137500Y-119850000D02*
X202150000Y-119862500D01*
D69*
X202350000Y-117725000D02*
X202350000Y-119662500D01*
X191400000Y-104800000D02*
X191400000Y-108200000D01*
D67*
X239608280Y-99335268D02*
X242433280Y-99335268D01*
D70*
%TO.N,VCC*%
X246350000Y-100250000D02*
X246850000Y-100750000D01*
D66*
X248250000Y-99562500D02*
X248250000Y-97962500D01*
X249650000Y-98350000D02*
X248787500Y-98350000D01*
X248250000Y-97962500D02*
X248325000Y-97887500D01*
D70*
X248250000Y-100224999D02*
X248250000Y-99562500D01*
D66*
X248787500Y-98350000D02*
X248325000Y-97887500D01*
X249650000Y-96950000D02*
X249262500Y-96950000D01*
D70*
X247724999Y-100750000D02*
X248250000Y-100224999D01*
D66*
X249262500Y-96950000D02*
X248325000Y-97887500D01*
D70*
X246850000Y-100750000D02*
X247724999Y-100750000D01*
X246350000Y-99562500D02*
X246350000Y-100250000D01*
D69*
%TO.N,+6V*%
X205150000Y-99650000D02*
X203400000Y-99650000D01*
X203400000Y-99650000D02*
X203212500Y-99837500D01*
D68*
X196743280Y-88722768D02*
X196743280Y-90006720D01*
X206743280Y-86393280D02*
X206800000Y-86450000D01*
X196743280Y-90006720D02*
X196600000Y-90150000D01*
X206743280Y-85085268D02*
X206743280Y-86393280D01*
D69*
%TO.N,AMP_VOUT*%
X199975000Y-70737500D02*
X200050000Y-70662500D01*
X200125000Y-70750000D02*
X200125000Y-71460000D01*
X200125000Y-71460000D02*
X201050000Y-72385000D01*
X199425000Y-70737500D02*
X200112500Y-70737500D01*
X199425000Y-70737500D02*
X199975000Y-70737500D01*
X198450000Y-70737500D02*
X199425000Y-70737500D01*
%TO.N,Net-(U3-VING)*%
X205115000Y-73935000D02*
X206590200Y-72459800D01*
X206590200Y-72459800D02*
X209407200Y-72459800D01*
X201050000Y-73935000D02*
X205115000Y-73935000D01*
%TO.N,Net-(U3-CAPT)*%
X207475000Y-71025000D02*
X206050000Y-71025000D01*
X206050000Y-71025000D02*
X206000000Y-70975000D01*
X207990200Y-70509800D02*
X207475000Y-71025000D01*
X206000000Y-71000000D02*
X204600000Y-71000000D01*
X209407200Y-70509800D02*
X207990200Y-70509800D01*
X204600000Y-71000000D02*
X204550000Y-70950000D01*
%TO.N,Net-(U3-CAPB)*%
X204550000Y-69450000D02*
X204525000Y-69475000D01*
X209407200Y-69859800D02*
X207859800Y-69859800D01*
X207859800Y-69859800D02*
X207475000Y-69475000D01*
X206000000Y-69450000D02*
X204550000Y-69450000D01*
X207500000Y-69500000D02*
X207859800Y-69859800D01*
X205975000Y-69500000D02*
X207500000Y-69500000D01*
%TO.N,Net-(U3-CML)*%
X209407200Y-71809800D02*
X205175200Y-71809800D01*
X205175200Y-71809800D02*
X204535000Y-72450000D01*
%TO.N,Net-(U3-OFFSET)*%
X212875000Y-77125000D02*
X212850000Y-77150000D01*
X209407200Y-73109800D02*
X210734800Y-73109800D01*
X214450000Y-77125000D02*
X212875000Y-77125000D01*
X210734800Y-73109800D02*
X212850000Y-75225000D01*
X212850000Y-75225000D02*
X212850000Y-77150000D01*
D68*
%TO.N,RG*%
X195458280Y-88707768D02*
X195473280Y-88722768D01*
X195458280Y-85897768D02*
X195458280Y-88707768D01*
%TO.N,Net-(ICX1-\u03C6RG)*%
X193222768Y-83822768D02*
X192321523Y-82921523D01*
X195458280Y-83822768D02*
X193222768Y-83822768D01*
X192321523Y-82921523D02*
X192321523Y-80877146D01*
D69*
%TO.N,Net-(D4-K)*%
X191037500Y-113762500D02*
X192787500Y-113762500D01*
X195000000Y-114750000D02*
X194075000Y-114750000D01*
X189012500Y-115787500D02*
X191037500Y-113762500D01*
X192787500Y-113762500D02*
X192937500Y-113612500D01*
X188837500Y-115787500D02*
X189012500Y-115787500D01*
X194075000Y-114750000D02*
X192937500Y-113612500D01*
%TO.N,VSHT*%
X204300000Y-113650000D02*
X202550000Y-115400000D01*
X196300000Y-117250000D02*
X191700000Y-117250000D01*
X191700000Y-117250000D02*
X191037500Y-116587500D01*
X191037500Y-116587500D02*
X191037500Y-115837500D01*
X202550000Y-115400000D02*
X198150000Y-115400000D01*
X204300000Y-112000000D02*
X204300000Y-113650000D01*
X198150000Y-115400000D02*
X196300000Y-117250000D01*
%TO.N,Net-(ICX1-VSUB)*%
X188765523Y-110084477D02*
X188750000Y-110100000D01*
X188837500Y-113712500D02*
X188837500Y-111962500D01*
X188837500Y-111962500D02*
X188825000Y-111950000D01*
X188765523Y-107127146D02*
X188765523Y-110084477D01*
X188825000Y-110175000D02*
X188750000Y-110100000D01*
X188825000Y-111950000D02*
X188825000Y-110175000D01*
%TO.N,Net-(Q1-C)*%
X185300000Y-90300000D02*
X185275000Y-90275000D01*
X189500000Y-90300000D02*
X185300000Y-90300000D01*
%TO.N,Net-(U2-EN)*%
X246100000Y-75550000D02*
X243650000Y-75550000D01*
X246925001Y-77000002D02*
X246925001Y-76375001D01*
X246100000Y-75550000D02*
X246925001Y-76375001D01*
D66*
%TO.N,Net-(U2-NR_SS)*%
X243625002Y-77250001D02*
X243825001Y-77050002D01*
X241350000Y-77250001D02*
X243625002Y-77250001D01*
D69*
%TO.N,V3*%
X207550000Y-113350000D02*
X207500000Y-113400000D01*
X207550000Y-112000000D02*
X207550000Y-113350000D01*
D68*
%TO.N,H2*%
X210101523Y-80877146D02*
X210101523Y-79398477D01*
X215435523Y-82539477D02*
X215435523Y-80877146D01*
X211550000Y-83350000D02*
X214625000Y-83350000D01*
X210101523Y-81901523D02*
X211550000Y-83350000D01*
X210101523Y-81998477D02*
X210101523Y-80877146D01*
X210101523Y-80877146D02*
X210101523Y-81901523D01*
X208013280Y-84086720D02*
X210101523Y-81998477D01*
X204767523Y-79232477D02*
X204767523Y-80877146D01*
X208013280Y-85085268D02*
X208013280Y-84086720D01*
X210101523Y-80877146D02*
X210101523Y-79501523D01*
X200300000Y-78500000D02*
X199433523Y-79366477D01*
X205500000Y-78500000D02*
X204767523Y-79232477D01*
X199433523Y-79366477D02*
X199433523Y-80877146D01*
X210101523Y-79501523D02*
X209100000Y-78500000D01*
X214625000Y-83350000D02*
X215435523Y-82539477D01*
X209100000Y-78500000D02*
X205500000Y-78500000D01*
X205500000Y-78500000D02*
X200300000Y-78500000D01*
%TO.N,H1*%
X205473280Y-85085268D02*
X205473280Y-83226720D01*
X206545523Y-82154477D02*
X206545523Y-80877146D01*
X205473280Y-83226720D02*
X206545523Y-82154477D01*
D69*
%TO.N,V2*%
X205600000Y-112000000D02*
X205600000Y-113100000D01*
X205600000Y-113100000D02*
X205300000Y-113400000D01*
%TO.N,CCD_VOUT*%
X190543523Y-74556477D02*
X192700000Y-72400000D01*
X194887500Y-72400000D02*
X196550000Y-70737500D01*
X190543523Y-80877146D02*
X190543523Y-74556477D01*
X192700000Y-72400000D02*
X194887500Y-72400000D01*
%TO.N,+15V_SW*%
X195975000Y-75475000D02*
X196050000Y-75400000D01*
X190625000Y-85062500D02*
X190625000Y-90925000D01*
X195877523Y-75572477D02*
X195975000Y-75475000D01*
X190625000Y-90925000D02*
X189500000Y-92050000D01*
X195877523Y-80877146D02*
X195877523Y-75572477D01*
D68*
%TO.N,LH*%
X197655523Y-83455523D02*
X197655523Y-80877146D01*
X198013280Y-83813280D02*
X197655523Y-83455523D01*
X198013280Y-88722768D02*
X198013280Y-83813280D01*
D69*
%TO.N,V1*%
X206250000Y-113350000D02*
X206200000Y-113400000D01*
X206250000Y-112000000D02*
X206250000Y-113350000D01*
D66*
%TO.N,V4*%
X210101523Y-109048477D02*
X210101523Y-107127146D01*
X208200000Y-112000000D02*
X208200000Y-110950000D01*
X208200000Y-110950000D02*
X210101523Y-109048477D01*
%TO.N,Net-(U2-FB)*%
X234550000Y-77525002D02*
X235624998Y-77525002D01*
X236150000Y-77250000D02*
X236150001Y-77250001D01*
X236150001Y-77250001D02*
X236700002Y-77250001D01*
X235900000Y-77250000D02*
X236150000Y-77250000D01*
X235624998Y-77525002D02*
X235900000Y-77250000D01*
D69*
%TO.N,Net-(Q1-B)*%
X184325000Y-94400000D02*
X184337500Y-94412500D01*
X184325000Y-89587500D02*
X184325000Y-92150000D01*
X185250000Y-88662500D02*
X184325000Y-89587500D01*
X184325000Y-92150000D02*
X184325000Y-94400000D01*
X185250000Y-85675000D02*
X185250000Y-88662500D01*
D67*
%TO.N,Net-(U1-FB2P)*%
X245583280Y-91385268D02*
X244608280Y-91385268D01*
X246745780Y-86985268D02*
X246745780Y-88547768D01*
X246733280Y-88635268D02*
X246783280Y-88585268D01*
X246733280Y-90235268D02*
X246733280Y-88635268D01*
X246733280Y-90235268D02*
X245583280Y-91385268D01*
X246745780Y-88547768D02*
X246783280Y-88585268D01*
D69*
%TO.N,Net-(Q2-E)*%
X186200000Y-87550000D02*
X188175000Y-87550000D01*
D67*
%TO.N,BIAS_CTL*%
X184300000Y-87550000D02*
X183937500Y-87912500D01*
X183937500Y-87912500D02*
X183150000Y-87912500D01*
D69*
%TO.N,Net-(U7-FB)*%
X209850000Y-102531452D02*
X209850000Y-101700000D01*
X203212500Y-101662500D02*
X203212500Y-102410512D01*
X204264488Y-103462500D02*
X206962500Y-103462500D01*
X208918952Y-103462500D02*
X209850000Y-102531452D01*
X203212500Y-102410512D02*
X204264488Y-103462500D01*
X206962500Y-103462500D02*
X208918952Y-103462500D01*
%TO.N,GND*%
X216607200Y-73109800D02*
X215359800Y-73109800D01*
X203650000Y-117725000D02*
X203650000Y-119637500D01*
X210990200Y-69209800D02*
X211000000Y-69200000D01*
D66*
X239025001Y-78399023D02*
X239027902Y-78396122D01*
D69*
X223350000Y-82300000D02*
X227750000Y-82300000D01*
X190812500Y-111787500D02*
X190650000Y-111950000D01*
X223350000Y-103900000D02*
X221800000Y-103900000D01*
D66*
X239025001Y-79575000D02*
X239025001Y-78399023D01*
D69*
X262300000Y-118430000D02*
X262900000Y-119030000D01*
X215359800Y-73109800D02*
X215175000Y-72925000D01*
X263600000Y-82300000D02*
X264150000Y-82850000D01*
X244158280Y-90885268D02*
X243158280Y-91885268D01*
X244608280Y-90885268D02*
X244158280Y-90885268D01*
X261780000Y-118430000D02*
X262300000Y-118430000D01*
X190825000Y-110100000D02*
X190825000Y-111775000D01*
D66*
X239025001Y-74925002D02*
X239025001Y-75400000D01*
X236700002Y-78550001D02*
X237725001Y-78550001D01*
D69*
X209407200Y-69209800D02*
X210990200Y-69209800D01*
D68*
X196743280Y-93672768D02*
X196743280Y-92343280D01*
D69*
X260770000Y-82300000D02*
X263600000Y-82300000D01*
X206900000Y-112000000D02*
X206900000Y-110137500D01*
D66*
X240000001Y-72275002D02*
X240000001Y-70600002D01*
D69*
X241389800Y-109476200D02*
X241389800Y-111089800D01*
X190543523Y-107127146D02*
X190543523Y-109818523D01*
X207150000Y-73900000D02*
X207225000Y-73975000D01*
D66*
X241350000Y-78550001D02*
X240325001Y-78550001D01*
D69*
X256370000Y-89500000D02*
X254700000Y-89500000D01*
D66*
X239075001Y-73200002D02*
X240000001Y-72275002D01*
D68*
X196743280Y-92343280D02*
X196500000Y-92100000D01*
D69*
X212850000Y-78700000D02*
X213700000Y-79550000D01*
D66*
X243775000Y-78550001D02*
X243825001Y-78600002D01*
X245375001Y-78612502D02*
X243837501Y-78612502D01*
D69*
X214450000Y-78675000D02*
X213700000Y-79425000D01*
X215315200Y-71809800D02*
X216607200Y-71809800D01*
X227750000Y-103900000D02*
X229550000Y-103900000D01*
X203000000Y-70950000D02*
X203000000Y-69500000D01*
X264150000Y-82850000D02*
X264150000Y-84050000D01*
X203000000Y-69500000D02*
X202975000Y-69475000D01*
X223350000Y-96700000D02*
X227750000Y-96700000D01*
D66*
X247300000Y-99562500D02*
X247300000Y-98412500D01*
D69*
X207200000Y-73950000D02*
X207200000Y-73900000D01*
X209407200Y-74409800D02*
X207659800Y-74409800D01*
X223350000Y-89500000D02*
X225550000Y-89500000D01*
D66*
X237725001Y-79575000D02*
X237725001Y-78550001D01*
D69*
X215175000Y-71950000D02*
X215315200Y-71809800D01*
X248420780Y-91835268D02*
X248420780Y-92572768D01*
X248358280Y-92635268D02*
X248420780Y-92697768D01*
X260770000Y-82300000D02*
X256370000Y-82300000D01*
X255750000Y-110250000D02*
X256350000Y-109650000D01*
X248420780Y-92572768D02*
X248358280Y-92635268D01*
X260770000Y-89500000D02*
X262700000Y-89500000D01*
D66*
X239025001Y-73200002D02*
X239075001Y-73200002D01*
D69*
X248420780Y-92697768D02*
X248420780Y-93422768D01*
D66*
X247300000Y-98412500D02*
X246775000Y-97887500D01*
D69*
X242708154Y-112408154D02*
X242708154Y-112775584D01*
D66*
X239025001Y-76096706D02*
X239016274Y-76105433D01*
D69*
X264724269Y-102848057D02*
X263672326Y-103900000D01*
D68*
X206743280Y-90035268D02*
X206743280Y-88606720D01*
D69*
X241389800Y-111089800D02*
X242708154Y-112408154D01*
D66*
X238275001Y-72100002D02*
X238100001Y-72275002D01*
D69*
X213657523Y-79767477D02*
X213657523Y-80877146D01*
X213700000Y-79425000D02*
X213700000Y-79550000D01*
X206900000Y-110137500D02*
X206781250Y-110018750D01*
D68*
X187950000Y-81692669D02*
X188765523Y-80877146D01*
X187950000Y-85650000D02*
X187950000Y-81692669D01*
X206743280Y-88606720D02*
X206800000Y-88550000D01*
D69*
X213700000Y-79725000D02*
X213657523Y-79767477D01*
X203875000Y-119862500D02*
X203875000Y-120975000D01*
X251721200Y-110250000D02*
X255750000Y-110250000D01*
X215175000Y-72400000D02*
X215175000Y-71950000D01*
X202985000Y-72450000D02*
X202985000Y-70965000D01*
D66*
X238275001Y-70475002D02*
X238275001Y-72100002D01*
D69*
X263672326Y-103900000D02*
X260770000Y-103900000D01*
X254860000Y-118430000D02*
X254260000Y-119030000D01*
D66*
X239025001Y-75400000D02*
X239025001Y-76096706D01*
X240325001Y-78550001D02*
X239025001Y-77250001D01*
D69*
X192937500Y-111787500D02*
X190812500Y-111787500D01*
X207125000Y-73925000D02*
X207050000Y-73925000D01*
X207659800Y-74409800D02*
X207200000Y-73950000D01*
X215175000Y-72925000D02*
X215175000Y-72400000D01*
X203875000Y-120975000D02*
X203850000Y-121000000D01*
X225550000Y-89500000D02*
X227750000Y-89500000D01*
X203650000Y-119637500D02*
X203875000Y-119862500D01*
D66*
X240000001Y-70600002D02*
X239875001Y-70475002D01*
D69*
X190543523Y-109818523D02*
X190825000Y-110100000D01*
X255380000Y-118430000D02*
X254860000Y-118430000D01*
X260770000Y-103900000D02*
X256370000Y-103900000D01*
X248420780Y-93422768D02*
X248408280Y-93435268D01*
X207200000Y-73900000D02*
X207150000Y-73900000D01*
D66*
X239025001Y-73200002D02*
X238100001Y-72275002D01*
X237725001Y-78550001D02*
X239025001Y-77250001D01*
X240325001Y-79575000D02*
X240325001Y-78550001D01*
X239025001Y-75400000D02*
X239025001Y-73200002D01*
D69*
X202985000Y-70965000D02*
X203000000Y-70950000D01*
D66*
X241350000Y-78550001D02*
X243775000Y-78550001D01*
D69*
X190825000Y-111775000D02*
X190650000Y-111950000D01*
D66*
X243837501Y-78612502D02*
X243825001Y-78600002D01*
D69*
X206781250Y-110018750D02*
X206775000Y-110012500D01*
X213700000Y-79550000D02*
X213700000Y-79725000D01*
D67*
%TO.N,Net-(U1-FB1P)*%
X244608280Y-91885268D02*
X246645780Y-91885268D01*
X246645780Y-91885268D02*
X246695780Y-91835268D01*
X246783280Y-91835268D02*
X248383280Y-90235268D01*
X244608280Y-92385268D02*
X246145780Y-92385268D01*
X246145780Y-92385268D02*
X246695780Y-91835268D01*
X246695780Y-91835268D02*
X246783280Y-91835268D01*
D69*
%TO.N,Net-(D6-A)*%
X245375001Y-77100002D02*
X246925001Y-78650002D01*
X235400000Y-78500000D02*
X236000000Y-77900000D01*
X236000000Y-77900000D02*
X236700002Y-77900000D01*
X235900000Y-80550000D02*
X235400000Y-80050000D01*
X246925001Y-79174999D02*
X245550000Y-80550000D01*
X246925001Y-78650002D02*
X246925001Y-79174999D01*
X245375001Y-77037502D02*
X245375001Y-77100002D01*
X235400000Y-80050000D02*
X235400000Y-78500000D01*
X245550000Y-80550000D02*
X235900000Y-80550000D01*
D67*
%TO.N,Net-(D1-A)*%
X241408280Y-92885268D02*
X241268280Y-92745268D01*
X241268280Y-92745268D02*
X241018280Y-92745268D01*
X241708280Y-92885268D02*
X241408280Y-92885268D01*
D70*
%TO.N,XSG1*%
X206700000Y-116000000D02*
X218000000Y-116000000D01*
X220950000Y-98050000D02*
X221000000Y-98000000D01*
X206250000Y-116450000D02*
X206700000Y-116000000D01*
X220950000Y-113050000D02*
X220950000Y-98050000D01*
X206250000Y-117725000D02*
X206250000Y-116450000D01*
X218000000Y-116000000D02*
X220950000Y-113050000D01*
%TO.N,XV1*%
X217600000Y-115600000D02*
X220150000Y-113050000D01*
X220150000Y-97250000D02*
X220250000Y-97150000D01*
X205600000Y-117725000D02*
X205600000Y-116000000D01*
X205600000Y-116000000D02*
X206000000Y-115600000D01*
X220150000Y-113050000D02*
X220150000Y-97250000D01*
X206000000Y-115600000D02*
X217600000Y-115600000D01*
%TO.N,XV2*%
X205600000Y-115200000D02*
X217100000Y-115200000D01*
X217100000Y-115200000D02*
X219600000Y-112700000D01*
X204950000Y-117725000D02*
X204950000Y-115850000D01*
X204950000Y-115850000D02*
X205600000Y-115200000D01*
X219600000Y-96600000D02*
X219900000Y-96300000D01*
X219600000Y-112700000D02*
X219600000Y-96600000D01*
%TO.N,XSHT*%
X205300000Y-114700000D02*
X216400000Y-114700000D01*
X204300000Y-115700000D02*
X205300000Y-114700000D01*
X218900000Y-112200000D02*
X218900000Y-96200000D01*
X204300000Y-117725000D02*
X204300000Y-115700000D01*
X216400000Y-114700000D02*
X218900000Y-112200000D01*
%TO.N,ADC_D3*%
X230900000Y-78400000D02*
X230900000Y-85100000D01*
X216607200Y-68559800D02*
X221059800Y-68559800D01*
X221059800Y-68559800D02*
X230900000Y-78400000D01*
X229700000Y-86300000D02*
X227750000Y-86300000D01*
X230900000Y-85100000D02*
X229700000Y-86300000D01*
%TO.N,ADC_D1*%
X231700000Y-78000000D02*
X231700000Y-86100000D01*
X216607200Y-67259800D02*
X220959800Y-67259800D01*
X229900000Y-87900000D02*
X227750000Y-87900000D01*
X220959800Y-67259800D02*
X231700000Y-78000000D01*
X231700000Y-86100000D02*
X229900000Y-87900000D01*
%TO.N,ADC_D4*%
X230500000Y-84600000D02*
X229600000Y-85500000D01*
X221109800Y-69209800D02*
X230500000Y-78600000D01*
X216607200Y-69209800D02*
X221109800Y-69209800D01*
X229600000Y-85500000D02*
X227750000Y-85500000D01*
X230500000Y-78600000D02*
X230500000Y-84600000D01*
%TO.N,ADC_CDSCLK1*%
X217459800Y-75059800D02*
X219600000Y-77200000D01*
X219600000Y-83200000D02*
X221100000Y-84700000D01*
X216607200Y-75059800D02*
X217459800Y-75059800D01*
X219600000Y-77200000D02*
X219600000Y-83200000D01*
X221100000Y-84700000D02*
X223350000Y-84700000D01*
%TO.N,ADC_CDSCLK2*%
X220100000Y-76900000D02*
X220100000Y-82900000D01*
X217609800Y-74409800D02*
X220100000Y-76900000D01*
X216607200Y-74409800D02*
X217609800Y-74409800D01*
X220100000Y-82900000D02*
X221100000Y-83900000D01*
X221100000Y-83900000D02*
X223350000Y-83900000D01*
%TO.N,ADC_D7*%
X216607200Y-71159800D02*
X220759800Y-71159800D01*
X229000000Y-83100000D02*
X227750000Y-83100000D01*
X220759800Y-71159800D02*
X229300000Y-79700000D01*
X229300000Y-79700000D02*
X229300000Y-82800000D01*
X229300000Y-82800000D02*
X229000000Y-83100000D01*
D69*
%TO.N,ADC_SPI_LOAD*%
X223350000Y-88700000D02*
X221150000Y-88700000D01*
X219750000Y-87300000D02*
X219750000Y-86250000D01*
X219750000Y-87300000D02*
X221150000Y-88700000D01*
X211040200Y-67909800D02*
X211150000Y-67800000D01*
X209407200Y-67909800D02*
X211040200Y-67909800D01*
D70*
%TO.N,ADC_D2*%
X231300000Y-85600000D02*
X231300000Y-78100000D01*
X231300000Y-78100000D02*
X221109800Y-67909800D01*
X227750000Y-87100000D02*
X229800000Y-87100000D01*
X221109800Y-67909800D02*
X216607200Y-67909800D01*
X229800000Y-87100000D02*
X231300000Y-85600000D01*
%TO.N,ADC_D0*%
X216607200Y-66609800D02*
X221009800Y-66609800D01*
X221009800Y-66609800D02*
X232100000Y-77700000D01*
X232100000Y-77700000D02*
X232100000Y-86500000D01*
X229900000Y-88700000D02*
X227750000Y-88700000D01*
X232100000Y-86500000D02*
X229900000Y-88700000D01*
%TO.N,ADC_CLK*%
X217859800Y-73759800D02*
X220700000Y-76600000D01*
X220700000Y-82000000D02*
X221800000Y-83100000D01*
X220700000Y-76600000D02*
X220700000Y-82000000D01*
X216607200Y-73759800D02*
X217859800Y-73759800D01*
X221800000Y-83100000D02*
X223350000Y-83100000D01*
%TO.N,ADC_D5*%
X216607200Y-69859800D02*
X220959800Y-69859800D01*
X230100000Y-83700000D02*
X229100000Y-84700000D01*
X230100000Y-79000000D02*
X230100000Y-83700000D01*
X220959800Y-69859800D02*
X230100000Y-79000000D01*
X229100000Y-84700000D02*
X227750000Y-84700000D01*
D69*
%TO.N,ADC_SPI_DATA*%
X221450000Y-86750000D02*
X221800000Y-87100000D01*
X207609800Y-66609800D02*
X207600000Y-66600000D01*
X221450000Y-86750000D02*
X221450000Y-86150000D01*
X209407200Y-66609800D02*
X207609800Y-66609800D01*
X223350000Y-87100000D02*
X221800000Y-87100000D01*
D70*
%TO.N,ADC_D6*%
X229100000Y-83900000D02*
X227750000Y-83900000D01*
X220809800Y-70509800D02*
X229700000Y-79400000D01*
X229700000Y-83300000D02*
X229100000Y-83900000D01*
X216607200Y-70509800D02*
X220809800Y-70509800D01*
X229700000Y-79400000D02*
X229700000Y-83300000D01*
D67*
%TO.N,Net-(U1-FB1N)*%
X246758280Y-93435268D02*
X245908280Y-93435268D01*
X248308280Y-94985268D02*
X246758280Y-93435268D01*
X245358280Y-92885268D02*
X244608280Y-92885268D01*
X245908280Y-93435268D02*
X245358280Y-92885268D01*
X248433280Y-94985268D02*
X248308280Y-94985268D01*
D70*
%TO.N,XSG2*%
X223100000Y-105900000D02*
X223500000Y-105500000D01*
X207550000Y-117725000D02*
X207550000Y-118950000D01*
X223100000Y-114000000D02*
X223100000Y-105900000D01*
X207550000Y-118950000D02*
X208700000Y-120100000D01*
X208700000Y-120100000D02*
X217000000Y-120100000D01*
X217000000Y-120100000D02*
X223100000Y-114000000D01*
%TO.N,XV3*%
X217400000Y-120700000D02*
X223800000Y-114300000D01*
X206900000Y-119100000D02*
X208500000Y-120700000D01*
X223800000Y-114300000D02*
X223800000Y-106300000D01*
X208500000Y-120700000D02*
X217400000Y-120700000D01*
X223800000Y-106300000D02*
X224400000Y-105700000D01*
X224400000Y-105700000D02*
X224400000Y-105600000D01*
X206900000Y-117725000D02*
X206900000Y-119100000D01*
%TO.N,XV4*%
X208200000Y-118900000D02*
X209000000Y-119700000D01*
X216200000Y-119700000D02*
X222400000Y-113500000D01*
X222400000Y-113500000D02*
X222400000Y-105600000D01*
X208200000Y-117725000D02*
X208200000Y-118900000D01*
X209000000Y-119700000D02*
X216200000Y-119700000D01*
X222400000Y-105600000D02*
X222800000Y-105200000D01*
D69*
%TO.N,CTL_LH*%
X210450000Y-93950000D02*
X212450000Y-91950000D01*
X200550000Y-95700000D02*
X202300000Y-93950000D01*
X198013280Y-95163280D02*
X198550000Y-95700000D01*
X198550000Y-95700000D02*
X200550000Y-95700000D01*
X198013280Y-93672768D02*
X198013280Y-95163280D01*
X202300000Y-93950000D02*
X210450000Y-93950000D01*
X220000000Y-91900000D02*
X223350000Y-91900000D01*
X212450000Y-91950000D02*
X219950000Y-91950000D01*
X219950000Y-91950000D02*
X220000000Y-91900000D01*
%TO.N,CTL_RG#*%
X201150000Y-96800000D02*
X203250000Y-94700000D01*
X195473280Y-96023280D02*
X196250000Y-96800000D01*
X221300000Y-93050000D02*
X221650000Y-92700000D01*
X203250000Y-94700000D02*
X211250000Y-94700000D01*
X196250000Y-96800000D02*
X201150000Y-96800000D01*
X195473280Y-93672768D02*
X195473280Y-96023280D01*
X212900000Y-93050000D02*
X221300000Y-93050000D01*
X221650000Y-92700000D02*
X223350000Y-92700000D01*
X211250000Y-94700000D02*
X212900000Y-93050000D01*
%TO.N,ADC_SPI_CLK*%
X208290200Y-67259800D02*
X208000000Y-67550000D01*
X220550000Y-86850000D02*
X221600000Y-87900000D01*
X220550000Y-86850000D02*
X220550000Y-86250000D01*
X209407200Y-67259800D02*
X208290200Y-67259800D01*
X223350000Y-87900000D02*
X221600000Y-87900000D01*
D70*
%TO.N,SDIO_D3*%
X245789800Y-107989800D02*
X245789800Y-109476200D01*
X245789800Y-111010200D02*
X245750000Y-111050000D01*
X227750000Y-102300000D02*
X240100000Y-102300000D01*
X245789800Y-109476200D02*
X245789800Y-111010200D01*
X240100000Y-102300000D02*
X245789800Y-107989800D01*
%TO.N,SDIO_D0*%
X226700000Y-105300000D02*
X238100000Y-105300000D01*
X225500000Y-104100000D02*
X226700000Y-105300000D01*
X240289800Y-110689800D02*
X240750000Y-111150000D01*
X225000000Y-102300000D02*
X225500000Y-102800000D01*
X225500000Y-102800000D02*
X225500000Y-104100000D01*
X240289800Y-107489800D02*
X240289800Y-109476200D01*
X223350000Y-102300000D02*
X225000000Y-102300000D01*
X238100000Y-105300000D02*
X240289800Y-107489800D01*
X240289800Y-109476200D02*
X240289800Y-110689800D01*
%TO.N,SDIO_D2*%
X246889800Y-108089800D02*
X246889800Y-109476200D01*
X246889800Y-110789800D02*
X247250000Y-111150000D01*
X240300000Y-101500000D02*
X246889800Y-108089800D01*
X227750000Y-101500000D02*
X240300000Y-101500000D01*
X246889800Y-109476200D02*
X246889800Y-110789800D01*
%TO.N,SDIO_CLK*%
X226000000Y-102200000D02*
X225300000Y-101500000D01*
X242489800Y-109476200D02*
X242489800Y-106989800D01*
X240300000Y-104800000D02*
X226750000Y-104800000D01*
X226000000Y-104050000D02*
X226000000Y-102200000D01*
X242489800Y-106989800D02*
X240300000Y-104800000D01*
X225300000Y-101500000D02*
X223350000Y-101500000D01*
X226750000Y-104800000D02*
X226000000Y-104050000D01*
%TO.N,SDIO_D1*%
X226600000Y-105800000D02*
X225000000Y-104200000D01*
X239189800Y-111139800D02*
X239200000Y-111150000D01*
X237200000Y-105800000D02*
X226600000Y-105800000D01*
X225000000Y-104200000D02*
X225000000Y-103300000D01*
X239189800Y-109476200D02*
X239189800Y-111139800D01*
X239189800Y-109476200D02*
X239189800Y-107789800D01*
X225000000Y-103300000D02*
X224800000Y-103100000D01*
X239189800Y-107789800D02*
X237200000Y-105800000D01*
X224800000Y-103100000D02*
X223350000Y-103100000D01*
%TO.N,SDIO_CMD*%
X240000000Y-103100000D02*
X244689800Y-107789800D01*
X244689800Y-107789800D02*
X244689800Y-109476200D01*
X227750000Y-103100000D02*
X240000000Y-103100000D01*
X244689800Y-109476200D02*
X244689800Y-110710200D01*
X244689800Y-110710200D02*
X244300000Y-111100000D01*
D69*
%TO.N,CTL_H2*%
X211225000Y-90075000D02*
X211600000Y-89700000D01*
X209150000Y-91850000D02*
X210925000Y-90075000D01*
X208013280Y-91413280D02*
X208450000Y-91850000D01*
X211600000Y-89700000D02*
X221250000Y-89700000D01*
X221850000Y-90300000D02*
X223350000Y-90300000D01*
X208450000Y-91850000D02*
X209150000Y-91850000D01*
X210925000Y-90075000D02*
X211225000Y-90075000D01*
X208013280Y-90035268D02*
X208013280Y-91413280D01*
X221250000Y-89700000D02*
X221850000Y-90300000D01*
%TO.N,CTL_H1*%
X205473280Y-90035268D02*
X205473280Y-92123280D01*
X211950000Y-90800000D02*
X220150000Y-90800000D01*
X206100000Y-92750000D02*
X210000000Y-92750000D01*
X210000000Y-92750000D02*
X211950000Y-90800000D01*
X220450000Y-91100000D02*
X223350000Y-91100000D01*
X205473280Y-92123280D02*
X206100000Y-92750000D01*
X220150000Y-90800000D02*
X220450000Y-91100000D01*
D66*
%TO.N,Net-(U3-DRVDD)*%
X216617000Y-72450000D02*
X216607200Y-72459800D01*
D71*
X218737500Y-72450000D02*
X218737500Y-73387500D01*
D66*
X218737500Y-72450000D02*
X216617000Y-72450000D01*
D71*
X218737500Y-73387500D02*
X219275000Y-73925000D01*
D66*
%TO.N,+3V3_A*%
X205412500Y-75012500D02*
X205875000Y-75475000D01*
D69*
X207690200Y-75059800D02*
X207250000Y-75500000D01*
X207709800Y-68559800D02*
X206950000Y-67800000D01*
X206475000Y-67800000D02*
X204700000Y-67800000D01*
D66*
X205875000Y-75475000D02*
X207125000Y-75475000D01*
D72*
X231600000Y-65000000D02*
X231350000Y-64750000D01*
X234550000Y-67950000D02*
X231600000Y-65000000D01*
X234550000Y-75975002D02*
X234550000Y-67950000D01*
D69*
X209407200Y-75059800D02*
X207690200Y-75059800D01*
D72*
X204350000Y-66100000D02*
X205700000Y-64750000D01*
D69*
X209407200Y-68559800D02*
X207709800Y-68559800D01*
X204700000Y-67800000D02*
X204350000Y-67450000D01*
D72*
X222250000Y-64750000D02*
X205700000Y-64750000D01*
X204350000Y-66100000D02*
X204350000Y-67450000D01*
D69*
X206950000Y-67800000D02*
X206475000Y-67800000D01*
D72*
X222250000Y-64750000D02*
X231350000Y-64750000D01*
D66*
X203037500Y-75012500D02*
X205412500Y-75012500D01*
%TO.N,Net-(U4-BP)*%
X246350000Y-103462500D02*
X246375000Y-103487500D01*
X246350000Y-101837500D02*
X246350000Y-103462500D01*
%TO.N,+3V3_D*%
X248250000Y-103625000D02*
X248275000Y-103650000D01*
X248250000Y-105350000D02*
X248100000Y-105500000D01*
X248250000Y-102700000D02*
X248250000Y-105350000D01*
X248100000Y-105500000D02*
X247600000Y-106000000D01*
X248250000Y-102700000D02*
X248250000Y-103625000D01*
X248250000Y-101837500D02*
X248250000Y-102700000D01*
D70*
%TO.N,DC*%
X252700000Y-92400000D02*
X253200000Y-91900000D01*
X256370000Y-91900000D02*
X253200000Y-91900000D01*
X252700000Y-92400000D02*
X252700000Y-92600000D01*
%TO.N,BLK*%
X256370000Y-90300000D02*
X252100000Y-90300000D01*
X250900000Y-91500000D02*
X250900000Y-92100000D01*
X252100000Y-90300000D02*
X250900000Y-91500000D01*
%TO.N,SCL*%
X252900000Y-96200000D02*
X254800000Y-94300000D01*
X252900000Y-106000000D02*
X249800000Y-109100000D01*
X179027146Y-97827146D02*
X177450000Y-97827146D01*
X241100000Y-122900000D02*
X189200000Y-122900000D01*
X189200000Y-122900000D02*
X180600000Y-114300000D01*
X180600000Y-114300000D02*
X180600000Y-99400000D01*
X256370000Y-94300000D02*
X254800000Y-94300000D01*
X180600000Y-99400000D02*
X179027146Y-97827146D01*
X252900000Y-96200000D02*
X252900000Y-106000000D01*
X249800000Y-109100000D02*
X249800000Y-114200000D01*
X249800000Y-114200000D02*
X241100000Y-122900000D01*
%TO.N,CS*%
X251800000Y-91800000D02*
X252500000Y-91100000D01*
X256370000Y-91100000D02*
X252500000Y-91100000D01*
X251800000Y-91800000D02*
X251800000Y-92200000D01*
%TO.N,SDA*%
X249100000Y-113700000D02*
X240500000Y-122300000D01*
X181400000Y-98000000D02*
X178687146Y-95287146D01*
X254200000Y-93500000D02*
X254150000Y-93550000D01*
X252000000Y-95700000D02*
X254150000Y-93550000D01*
X252000000Y-95700000D02*
X252000000Y-105800000D01*
X178687146Y-95287146D02*
X177450000Y-95287146D01*
X181400000Y-113700000D02*
X181400000Y-98000000D01*
X252000000Y-105800000D02*
X249100000Y-108700000D01*
X249100000Y-108700000D02*
X249100000Y-113700000D01*
X240500000Y-122300000D02*
X190000000Y-122300000D01*
X190000000Y-122300000D02*
X181400000Y-113700000D01*
X256370000Y-93500000D02*
X254200000Y-93500000D01*
%TO.N,RES*%
X256370000Y-92700000D02*
X253800000Y-92700000D01*
X253800000Y-92700000D02*
X253400000Y-93100000D01*
D73*
%TO.N,TDO*%
X266050000Y-98550000D02*
X266050000Y-99500000D01*
X268100000Y-97650000D02*
X266950000Y-97650000D01*
X266950000Y-97650000D02*
X266050000Y-98550000D01*
X263250000Y-102300000D02*
X260770000Y-102300000D01*
X266050000Y-99500000D02*
X263250000Y-102300000D01*
%TO.N,TMS*%
X258300000Y-103100000D02*
X258500000Y-103300000D01*
X256370000Y-103100000D02*
X258300000Y-103100000D01*
%TO.N,TDI*%
X256370000Y-102300000D02*
X257550000Y-102300000D01*
X257550000Y-102300000D02*
X258500000Y-101350000D01*
%TO.N,TCK*%
X263600000Y-103100000D02*
X265200000Y-101500000D01*
X265200000Y-101500000D02*
X266790000Y-101500000D01*
X260770000Y-103100000D02*
X263600000Y-103100000D01*
X266790000Y-101500000D02*
X268100000Y-100190000D01*
D69*
%TO.N,SW1*%
X256370000Y-83900000D02*
X254500000Y-83900000D01*
X253250000Y-82650000D02*
X253250000Y-68750000D01*
X253250000Y-68750000D02*
X250700000Y-66200000D01*
X254500000Y-83900000D02*
X253250000Y-82650000D01*
%TO.N,SW2*%
X255000000Y-79550000D02*
X256150000Y-79550000D01*
X254000000Y-80550000D02*
X255000000Y-79550000D01*
X254000000Y-82500000D02*
X254000000Y-80550000D01*
X254600000Y-83100000D02*
X254000000Y-82500000D01*
X256370000Y-83100000D02*
X254600000Y-83100000D01*
%TO.N,SW3*%
X258750000Y-85200000D02*
X258250000Y-84700000D01*
X258850000Y-85200000D02*
X258750000Y-85200000D01*
X258250000Y-84700000D02*
X256370000Y-84700000D01*
%TO.N,SW4*%
X259050000Y-86700000D02*
X257850000Y-85500000D01*
X257850000Y-85500000D02*
X256370000Y-85500000D01*
X259050000Y-97050000D02*
X259050000Y-86700000D01*
%TO.N,SW5*%
X258200000Y-87550000D02*
X257750000Y-87100000D01*
X258150000Y-99750000D02*
X258200000Y-99700000D01*
X258200000Y-99700000D02*
X258200000Y-87550000D01*
X257750000Y-87100000D02*
X256370000Y-87100000D01*
%TO.N,SW6*%
X254250000Y-86300000D02*
X256370000Y-86300000D01*
X251850000Y-83900000D02*
X254250000Y-86300000D01*
X246900000Y-66250000D02*
X251850000Y-71200000D01*
X244300000Y-66250000D02*
X246900000Y-66250000D01*
X251850000Y-71200000D02*
X251850000Y-83900000D01*
%TD*%
%TA.AperFunction,Conductor*%
%TO.N,Net-(U2-EN)*%
G36*
X243859561Y-69701902D02*
G01*
X243907222Y-69711382D01*
X243942908Y-69726163D01*
X243975050Y-69747640D01*
X244002359Y-69774949D01*
X244023328Y-69806330D01*
X244023835Y-69807089D01*
X244038616Y-69842775D01*
X244048097Y-69890436D01*
X244050000Y-69909751D01*
X244050000Y-75590248D01*
X244048097Y-75609563D01*
X244038616Y-75657224D01*
X244023835Y-75692910D01*
X244002362Y-75725047D01*
X243975047Y-75752362D01*
X243942910Y-75773835D01*
X243907224Y-75788616D01*
X243859563Y-75798097D01*
X243840248Y-75800000D01*
X242500000Y-75800000D01*
X242500000Y-75999999D01*
X242500000Y-76490248D01*
X242498097Y-76509563D01*
X242488616Y-76557224D01*
X242473835Y-76592910D01*
X242452362Y-76625047D01*
X242425047Y-76652362D01*
X242392910Y-76673835D01*
X242357224Y-76688616D01*
X242309563Y-76698097D01*
X242290248Y-76700000D01*
X241159752Y-76700000D01*
X241140438Y-76698098D01*
X241124470Y-76694921D01*
X241092775Y-76688617D01*
X241057089Y-76673835D01*
X241056330Y-76673328D01*
X241024949Y-76652359D01*
X240997640Y-76625050D01*
X240976163Y-76592908D01*
X240961382Y-76557222D01*
X240951902Y-76509561D01*
X240950000Y-76490248D01*
X240950000Y-75350001D01*
X240950000Y-75350000D01*
X240950000Y-75150000D01*
X240750000Y-75150000D01*
X239709752Y-75150000D01*
X239690438Y-75148098D01*
X239674470Y-75144921D01*
X239642775Y-75138617D01*
X239607089Y-75123835D01*
X239606330Y-75123328D01*
X239574949Y-75102359D01*
X239547640Y-75075050D01*
X239526163Y-75042908D01*
X239511382Y-75007222D01*
X239501902Y-74959561D01*
X239500000Y-74940248D01*
X239500000Y-73659751D01*
X239501902Y-73640438D01*
X239511382Y-73592777D01*
X239526162Y-73557092D01*
X239547642Y-73524946D01*
X239574946Y-73497642D01*
X239607092Y-73476162D01*
X239642775Y-73461382D01*
X239668021Y-73456360D01*
X239690439Y-73451902D01*
X239709752Y-73450000D01*
X240849999Y-73450000D01*
X240850000Y-73450000D01*
X241050000Y-73450000D01*
X241050000Y-69909751D01*
X241051902Y-69890438D01*
X241061382Y-69842777D01*
X241076162Y-69807092D01*
X241097642Y-69774946D01*
X241124946Y-69747642D01*
X241157092Y-69726162D01*
X241192775Y-69711382D01*
X241218021Y-69706360D01*
X241240439Y-69701902D01*
X241259752Y-69700000D01*
X243840248Y-69700000D01*
X243859561Y-69701902D01*
G37*
%TD.AperFunction*%
%TD*%
%TA.AperFunction,Conductor*%
%TO.N,Net-(D2-A)*%
G36*
X241701319Y-83904953D02*
G01*
X241747074Y-83957757D01*
X241758280Y-84009268D01*
X241758280Y-87611268D01*
X241738595Y-87678307D01*
X241685791Y-87724062D01*
X241634280Y-87735268D01*
X240782280Y-87735268D01*
X240715241Y-87715583D01*
X240669486Y-87662779D01*
X240658280Y-87611268D01*
X240658280Y-85985268D01*
X239332280Y-85985268D01*
X239265241Y-85965583D01*
X239219486Y-85912779D01*
X239208280Y-85861268D01*
X239208280Y-84009268D01*
X239227965Y-83942229D01*
X239280769Y-83896474D01*
X239332280Y-83885268D01*
X241634280Y-83885268D01*
X241701319Y-83904953D01*
G37*
%TD.AperFunction*%
%TD*%
%TA.AperFunction,Conductor*%
%TO.N,Net-(D3-A)*%
G36*
X210593039Y-96319685D02*
G01*
X210638794Y-96372489D01*
X210650000Y-96424000D01*
X210650000Y-99876000D01*
X210630315Y-99943039D01*
X210577511Y-99988794D01*
X210526000Y-100000000D01*
X209274000Y-100000000D01*
X209206961Y-99980315D01*
X209161206Y-99927511D01*
X209150000Y-99876000D01*
X209150000Y-98500000D01*
X208074000Y-98500000D01*
X208006961Y-98480315D01*
X207961206Y-98427511D01*
X207950000Y-98376000D01*
X207950000Y-96424000D01*
X207969685Y-96356961D01*
X208022489Y-96311206D01*
X208074000Y-96300000D01*
X210526000Y-96300000D01*
X210593039Y-96319685D01*
G37*
%TD.AperFunction*%
%TD*%
%TA.AperFunction,Conductor*%
%TO.N,+6V*%
G36*
X205493039Y-96619685D02*
G01*
X205538794Y-96672489D01*
X205550000Y-96724000D01*
X205550000Y-99050000D01*
X207226000Y-99050000D01*
X207293039Y-99069685D01*
X207338794Y-99122489D01*
X207350000Y-99174000D01*
X207350000Y-100073843D01*
X207330315Y-100140882D01*
X207277511Y-100186637D01*
X207223862Y-100197825D01*
X204573590Y-100152130D01*
X204506900Y-100131292D01*
X204462062Y-100077707D01*
X204451740Y-100026405D01*
X204498278Y-96722253D01*
X204518905Y-96655498D01*
X204572348Y-96610491D01*
X204622266Y-96600000D01*
X205426000Y-96600000D01*
X205493039Y-96619685D01*
G37*
%TD.AperFunction*%
%TD*%
%TA.AperFunction,Conductor*%
%TO.N,VCC*%
G36*
X228609561Y-80351902D02*
G01*
X228657222Y-80361382D01*
X228692908Y-80376163D01*
X228725050Y-80397640D01*
X228752359Y-80424949D01*
X228773328Y-80456330D01*
X228773835Y-80457089D01*
X228788616Y-80492775D01*
X228798097Y-80540436D01*
X228800000Y-80559751D01*
X228800000Y-81640248D01*
X228798097Y-81659563D01*
X228788616Y-81707224D01*
X228773835Y-81742910D01*
X228752362Y-81775047D01*
X228725047Y-81802362D01*
X228692910Y-81823835D01*
X228657224Y-81838616D01*
X228612077Y-81847597D01*
X228592762Y-81849500D01*
X226730252Y-81849500D01*
X226730248Y-81849500D01*
X226730012Y-81849524D01*
X226720311Y-81850000D01*
X224379689Y-81850000D01*
X224369988Y-81849524D01*
X224369751Y-81849500D01*
X224369748Y-81849500D01*
X222357238Y-81849500D01*
X222337925Y-81847598D01*
X222319749Y-81843982D01*
X222292775Y-81838617D01*
X222257089Y-81823835D01*
X222256330Y-81823328D01*
X222224949Y-81802359D01*
X222197640Y-81775050D01*
X222176163Y-81742908D01*
X222161382Y-81707222D01*
X222151902Y-81659561D01*
X222150000Y-81640248D01*
X222150000Y-80559751D01*
X222151902Y-80540438D01*
X222161382Y-80492777D01*
X222176162Y-80457092D01*
X222197642Y-80424946D01*
X222224946Y-80397642D01*
X222257092Y-80376162D01*
X222292775Y-80361382D01*
X222318021Y-80356360D01*
X222340439Y-80351902D01*
X222359752Y-80350000D01*
X228590248Y-80350000D01*
X228609561Y-80351902D01*
G37*
%TD.AperFunction*%
%TD*%
%TA.AperFunction,Conductor*%
%TO.N,VCC*%
G36*
X246709561Y-71351902D02*
G01*
X246757222Y-71361382D01*
X246792908Y-71376163D01*
X246825050Y-71397640D01*
X246852359Y-71424949D01*
X246873328Y-71456330D01*
X246873835Y-71457089D01*
X246888616Y-71492775D01*
X246898097Y-71540436D01*
X246900000Y-71559751D01*
X246900000Y-72990248D01*
X246898097Y-73009563D01*
X246888616Y-73057224D01*
X246873835Y-73092910D01*
X246852362Y-73125047D01*
X246825047Y-73152362D01*
X246792910Y-73173835D01*
X246757224Y-73188616D01*
X246709563Y-73198097D01*
X246690248Y-73200000D01*
X245609752Y-73200000D01*
X245590438Y-73198098D01*
X245574470Y-73194921D01*
X245542775Y-73188617D01*
X245507089Y-73173835D01*
X245506330Y-73173328D01*
X245474949Y-73152359D01*
X245447640Y-73125050D01*
X245426163Y-73092908D01*
X245411382Y-73057222D01*
X245401902Y-73009561D01*
X245400000Y-72990248D01*
X245400000Y-71559751D01*
X245401902Y-71540438D01*
X245411382Y-71492777D01*
X245426162Y-71457092D01*
X245447642Y-71424946D01*
X245474946Y-71397642D01*
X245507092Y-71376162D01*
X245542775Y-71361382D01*
X245568021Y-71356360D01*
X245590439Y-71351902D01*
X245609752Y-71350000D01*
X246690248Y-71350000D01*
X246709561Y-71351902D01*
G37*
%TD.AperFunction*%
%TD*%
%TA.AperFunction,Conductor*%
%TO.N,VCC*%
G36*
X261759561Y-80301902D02*
G01*
X261807222Y-80311382D01*
X261842908Y-80326163D01*
X261875050Y-80347640D01*
X261902359Y-80374949D01*
X261923328Y-80406330D01*
X261923835Y-80407089D01*
X261938616Y-80442775D01*
X261948097Y-80490436D01*
X261950000Y-80509751D01*
X261950000Y-81590248D01*
X261948097Y-81609563D01*
X261938616Y-81657224D01*
X261923835Y-81692910D01*
X261902362Y-81725047D01*
X261875047Y-81752362D01*
X261842910Y-81773835D01*
X261807224Y-81788616D01*
X261759563Y-81798097D01*
X261740248Y-81800000D01*
X255509752Y-81800000D01*
X255490438Y-81798098D01*
X255474470Y-81794921D01*
X255442775Y-81788617D01*
X255407089Y-81773835D01*
X255406330Y-81773328D01*
X255374949Y-81752359D01*
X255347640Y-81725050D01*
X255326163Y-81692908D01*
X255311382Y-81657222D01*
X255301902Y-81609561D01*
X255300000Y-81590248D01*
X255300000Y-80509751D01*
X255301902Y-80490438D01*
X255311382Y-80442777D01*
X255326162Y-80407092D01*
X255347642Y-80374946D01*
X255374946Y-80347642D01*
X255407092Y-80326162D01*
X255442775Y-80311382D01*
X255468021Y-80306360D01*
X255490439Y-80301902D01*
X255509752Y-80300000D01*
X261740248Y-80300000D01*
X261759561Y-80301902D01*
G37*
%TD.AperFunction*%
%TD*%
%TA.AperFunction,Conductor*%
%TO.N,VCC*%
G36*
X238501319Y-88854953D02*
G01*
X238547074Y-88907757D01*
X238558280Y-88959268D01*
X238558280Y-91435268D01*
X241258280Y-91435268D01*
X241258280Y-91434767D01*
X241277965Y-91367728D01*
X241330769Y-91321973D01*
X241382275Y-91310767D01*
X241908780Y-91310767D01*
X241975819Y-91330452D01*
X242021574Y-91383256D01*
X242032780Y-91434767D01*
X242032780Y-92335768D01*
X242013095Y-92402807D01*
X241960291Y-92448562D01*
X241908780Y-92459768D01*
X241535006Y-92459768D01*
X241473007Y-92443155D01*
X241408785Y-92406076D01*
X241408781Y-92406075D01*
X241408780Y-92406074D01*
X241408779Y-92406074D01*
X241350184Y-92390373D01*
X241290525Y-92354008D01*
X241259997Y-92291161D01*
X241259616Y-92286604D01*
X241258280Y-92285268D01*
X238608280Y-92285268D01*
X238608280Y-94761268D01*
X238588595Y-94828307D01*
X238535791Y-94874062D01*
X238484280Y-94885268D01*
X237532280Y-94885268D01*
X237465241Y-94865583D01*
X237419486Y-94812779D01*
X237408280Y-94761268D01*
X237408280Y-88959268D01*
X237427965Y-88892229D01*
X237480769Y-88846474D01*
X237532280Y-88835268D01*
X238434280Y-88835268D01*
X238501319Y-88854953D01*
G37*
%TD.AperFunction*%
%TD*%
%TA.AperFunction,Conductor*%
%TO.N,VCC*%
G36*
X256785368Y-115959971D02*
G01*
X256785372Y-115959970D01*
X256785402Y-115959971D01*
X256785480Y-115959970D01*
X256790000Y-115960000D01*
X256794617Y-115959815D01*
X256794628Y-115959815D01*
X256901489Y-115955540D01*
X256928159Y-115958102D01*
X256949777Y-115963200D01*
X256996308Y-115988810D01*
X257001902Y-115994286D01*
X257002145Y-115994524D01*
X257028739Y-116040487D01*
X257034298Y-116061987D01*
X257037433Y-116088602D01*
X257023873Y-116820827D01*
X257020110Y-116846090D01*
X257002797Y-116906931D01*
X256976929Y-116950484D01*
X256941294Y-116985465D01*
X256897271Y-117010521D01*
X256857636Y-117021010D01*
X256836118Y-117026705D01*
X256810792Y-117030000D01*
X256510000Y-117030000D01*
X256512202Y-117298726D01*
X256515203Y-117664897D01*
X256498525Y-117720705D01*
X256491132Y-117731769D01*
X256479500Y-117790249D01*
X256479500Y-118125241D01*
X256460593Y-118183432D01*
X256435754Y-118207387D01*
X256411696Y-118223569D01*
X256375855Y-118238501D01*
X256327964Y-118248078D01*
X256308552Y-118250000D01*
X256081465Y-118250000D01*
X256062050Y-118248078D01*
X256014153Y-118238499D01*
X255978311Y-118223565D01*
X255946082Y-118201885D01*
X255918742Y-118174318D01*
X255897328Y-118141910D01*
X255882682Y-118105899D01*
X255882257Y-118103673D01*
X255880500Y-118085107D01*
X255880500Y-117790253D01*
X255880499Y-117790246D01*
X255876050Y-117767882D01*
X255874150Y-117747757D01*
X255878358Y-117238666D01*
X255880000Y-117040000D01*
X255681350Y-117037035D01*
X255681348Y-117037034D01*
X255681347Y-117037034D01*
X255575241Y-117035450D01*
X255419918Y-117033132D01*
X255394587Y-117029444D01*
X255333563Y-117012276D01*
X255289850Y-116986455D01*
X255254731Y-116950808D01*
X255229565Y-116906713D01*
X255213310Y-116845437D01*
X255210000Y-116820053D01*
X255210000Y-116161062D01*
X255211917Y-116141673D01*
X255221472Y-116093831D01*
X255236368Y-116058028D01*
X255258004Y-116025813D01*
X255285508Y-115998483D01*
X255317858Y-115977052D01*
X255353750Y-115962383D01*
X255401663Y-115953128D01*
X255421045Y-115951335D01*
X256785368Y-115959971D01*
G37*
%TD.AperFunction*%
%TD*%
%TA.AperFunction,Conductor*%
%TO.N,GND*%
G36*
X245197413Y-84057220D02*
G01*
X245245091Y-84108294D01*
X245258280Y-84163945D01*
X245258280Y-89611268D01*
X245238595Y-89678307D01*
X245185791Y-89724062D01*
X245134280Y-89735268D01*
X244008280Y-89735268D01*
X244008280Y-90995546D01*
X243988595Y-91062585D01*
X243971961Y-91083227D01*
X243946268Y-91108919D01*
X243893060Y-91217756D01*
X243889205Y-91244219D01*
X243882780Y-91288319D01*
X243882780Y-91288323D01*
X243882780Y-91288324D01*
X243882780Y-91482218D01*
X243893059Y-91552775D01*
X243893059Y-91552776D01*
X243906764Y-91580811D01*
X243918521Y-91649684D01*
X243906764Y-91689725D01*
X243893061Y-91717756D01*
X243893060Y-91717759D01*
X243882780Y-91788319D01*
X243882780Y-91788323D01*
X243882780Y-91788324D01*
X243882780Y-91982218D01*
X243893059Y-92052775D01*
X243893059Y-92052776D01*
X243906764Y-92080811D01*
X243918521Y-92149684D01*
X243906764Y-92189725D01*
X243893061Y-92217756D01*
X243893060Y-92217759D01*
X243882780Y-92288319D01*
X243882780Y-92288323D01*
X243882780Y-92288324D01*
X243882780Y-92482218D01*
X243893059Y-92552775D01*
X243893059Y-92552776D01*
X243906764Y-92580811D01*
X243918521Y-92649684D01*
X243906764Y-92689725D01*
X243893061Y-92717756D01*
X243893060Y-92717759D01*
X243882780Y-92788319D01*
X243882780Y-92788323D01*
X243882780Y-92788324D01*
X243882780Y-92982218D01*
X243893059Y-93052774D01*
X243893059Y-93052775D01*
X243893060Y-93052777D01*
X243946268Y-93161615D01*
X243971961Y-93187308D01*
X244005446Y-93248629D01*
X244008280Y-93274989D01*
X244008280Y-96536479D01*
X243988595Y-96603518D01*
X243975035Y-96620975D01*
X243243620Y-97406568D01*
X242773729Y-97911268D01*
X242695060Y-97995764D01*
X242634971Y-98031416D01*
X242604305Y-98035268D01*
X241382280Y-98035268D01*
X241315241Y-98015583D01*
X241269486Y-97962779D01*
X241258280Y-97911268D01*
X241258280Y-96859268D01*
X241277965Y-96792229D01*
X241330769Y-96746474D01*
X241382280Y-96735268D01*
X242208280Y-96735268D01*
X242234970Y-93345584D01*
X242255181Y-93278706D01*
X242277877Y-93255061D01*
X242277361Y-93254545D01*
X242284625Y-93247280D01*
X242284627Y-93247280D01*
X242370292Y-93161615D01*
X242423500Y-93052777D01*
X242433780Y-92982217D01*
X242433779Y-92788320D01*
X242423500Y-92717759D01*
X242409796Y-92689728D01*
X242398036Y-92620859D01*
X242409795Y-92580808D01*
X242423500Y-92552777D01*
X242433780Y-92482217D01*
X242433779Y-92288320D01*
X242423500Y-92217759D01*
X242409796Y-92189728D01*
X242398036Y-92120859D01*
X242409795Y-92080808D01*
X242423500Y-92052777D01*
X242433780Y-91982217D01*
X242433779Y-91788320D01*
X242423500Y-91717759D01*
X242409796Y-91689728D01*
X242398036Y-91620859D01*
X242409795Y-91580808D01*
X242423500Y-91552777D01*
X242433780Y-91482217D01*
X242433779Y-91288320D01*
X242423500Y-91217759D01*
X242409796Y-91189728D01*
X242398036Y-91120859D01*
X242409795Y-91080808D01*
X242423500Y-91052777D01*
X242433780Y-90982217D01*
X242433779Y-90788320D01*
X242423500Y-90717759D01*
X242370292Y-90608921D01*
X242370290Y-90608919D01*
X242370290Y-90608918D01*
X242294131Y-90532759D01*
X242260646Y-90471436D01*
X242257816Y-90444108D01*
X242306850Y-84216869D01*
X242327062Y-84149987D01*
X242380224Y-84104650D01*
X242449459Y-84095251D01*
X242476894Y-84102713D01*
X242558280Y-84135268D01*
X245129692Y-84040030D01*
X245197413Y-84057220D01*
G37*
%TD.AperFunction*%
%TD*%
%TA.AperFunction,Conductor*%
%TO.N,+3V3_A*%
G36*
X236859561Y-69601902D02*
G01*
X236907222Y-69611382D01*
X236942908Y-69626163D01*
X236975050Y-69647640D01*
X237002359Y-69674949D01*
X237023328Y-69706330D01*
X237023835Y-69707089D01*
X237038616Y-69742775D01*
X237048097Y-69790436D01*
X237050000Y-69809751D01*
X237050000Y-73700000D01*
X238290248Y-73700000D01*
X238309561Y-73701902D01*
X238357222Y-73711382D01*
X238392908Y-73726163D01*
X238425050Y-73747640D01*
X238452359Y-73774949D01*
X238473328Y-73806330D01*
X238473835Y-73807089D01*
X238488616Y-73842775D01*
X238498097Y-73890436D01*
X238500000Y-73909751D01*
X238500000Y-75040248D01*
X238498097Y-75059563D01*
X238488616Y-75107224D01*
X238473835Y-75142910D01*
X238452362Y-75175047D01*
X238425047Y-75202362D01*
X238392910Y-75223835D01*
X238357224Y-75238616D01*
X238309563Y-75248097D01*
X238290248Y-75250000D01*
X237050000Y-75250000D01*
X237050000Y-75449999D01*
X237050000Y-76490248D01*
X237048097Y-76509563D01*
X237038616Y-76557224D01*
X237023835Y-76592910D01*
X237002362Y-76625047D01*
X236975047Y-76652362D01*
X236942910Y-76673835D01*
X236907224Y-76688616D01*
X236859563Y-76698097D01*
X236840248Y-76700000D01*
X235988036Y-76700000D01*
X235962411Y-76696626D01*
X235913121Y-76683418D01*
X235868742Y-76657796D01*
X235842203Y-76631257D01*
X235816580Y-76586876D01*
X235800000Y-76524999D01*
X235800000Y-76524998D01*
X235800000Y-76350000D01*
X235625002Y-76350000D01*
X234259752Y-76350000D01*
X234240438Y-76348098D01*
X234224470Y-76344921D01*
X234192775Y-76338617D01*
X234157089Y-76323835D01*
X234156330Y-76323328D01*
X234124949Y-76302359D01*
X234097640Y-76275050D01*
X234076163Y-76242908D01*
X234061382Y-76207222D01*
X234051902Y-76159561D01*
X234050000Y-76140248D01*
X234050000Y-69809751D01*
X234051902Y-69790438D01*
X234061382Y-69742777D01*
X234076162Y-69707092D01*
X234097642Y-69674946D01*
X234124946Y-69647642D01*
X234157092Y-69626162D01*
X234192775Y-69611382D01*
X234218021Y-69606360D01*
X234240439Y-69601902D01*
X234259752Y-69600000D01*
X236840248Y-69600000D01*
X236859561Y-69601902D01*
G37*
%TD.AperFunction*%
%TD*%
%TA.AperFunction,Conductor*%
%TO.N,VCC*%
G36*
X261575368Y-116109971D02*
G01*
X261575372Y-116109970D01*
X261575402Y-116109971D01*
X261575480Y-116109970D01*
X261580000Y-116110000D01*
X261584617Y-116109815D01*
X261584628Y-116109815D01*
X261691489Y-116105540D01*
X261718159Y-116108102D01*
X261739777Y-116113200D01*
X261786308Y-116138810D01*
X261791902Y-116144286D01*
X261792145Y-116144524D01*
X261818739Y-116190487D01*
X261824298Y-116211987D01*
X261827433Y-116238602D01*
X261813873Y-116970827D01*
X261810110Y-116996090D01*
X261792797Y-117056931D01*
X261766929Y-117100484D01*
X261731294Y-117135465D01*
X261687271Y-117160521D01*
X261647636Y-117171010D01*
X261626118Y-117176705D01*
X261600792Y-117180000D01*
X261300000Y-117180000D01*
X261302220Y-117450840D01*
X261304110Y-117681500D01*
X261292121Y-117721628D01*
X261294863Y-117722764D01*
X261291132Y-117731768D01*
X261279500Y-117790249D01*
X261279500Y-118266977D01*
X261263097Y-118321554D01*
X261261268Y-118324322D01*
X261233925Y-118351891D01*
X261201696Y-118373569D01*
X261165855Y-118388501D01*
X261117964Y-118398078D01*
X261098552Y-118400000D01*
X260871465Y-118400000D01*
X260852050Y-118398078D01*
X260804153Y-118388499D01*
X260768311Y-118373565D01*
X260736082Y-118351885D01*
X260708739Y-118324314D01*
X260696900Y-118306395D01*
X260680500Y-118251822D01*
X260680500Y-117790253D01*
X260680498Y-117790241D01*
X260667639Y-117725595D01*
X260665739Y-117705472D01*
X260668358Y-117388666D01*
X260670000Y-117190000D01*
X260471350Y-117187035D01*
X260471348Y-117187034D01*
X260471347Y-117187034D01*
X260365241Y-117185450D01*
X260209918Y-117183132D01*
X260184587Y-117179444D01*
X260123563Y-117162276D01*
X260079850Y-117136455D01*
X260044731Y-117100808D01*
X260019565Y-117056713D01*
X260003310Y-116995437D01*
X260000000Y-116970053D01*
X260000000Y-116311062D01*
X260001917Y-116291673D01*
X260011472Y-116243831D01*
X260026368Y-116208028D01*
X260048004Y-116175813D01*
X260075508Y-116148483D01*
X260107858Y-116127052D01*
X260143750Y-116112383D01*
X260191663Y-116103128D01*
X260211045Y-116101335D01*
X261575368Y-116109971D01*
G37*
%TD.AperFunction*%
%TD*%
%TA.AperFunction,Conductor*%
%TO.N,Net-(U1-SW2)*%
G36*
X241910577Y-88404953D02*
G01*
X241956332Y-88457757D01*
X241967534Y-88510244D01*
X241952324Y-90441692D01*
X241952324Y-90441695D01*
X241953940Y-90475563D01*
X241953943Y-90475608D01*
X241956771Y-90502908D01*
X241957731Y-90511095D01*
X241957732Y-90511101D01*
X241992514Y-90617845D01*
X241993112Y-90618940D01*
X241993293Y-90619652D01*
X241994784Y-90623105D01*
X241994235Y-90623341D01*
X242008280Y-90678367D01*
X242008280Y-90835768D01*
X241988595Y-90902807D01*
X241935791Y-90948562D01*
X241884280Y-90959768D01*
X241311329Y-90959768D01*
X241240773Y-90970047D01*
X241240771Y-90970048D01*
X241147629Y-91015583D01*
X241133134Y-91022669D01*
X241078674Y-91035268D01*
X239382280Y-91035268D01*
X239315241Y-91015583D01*
X239269486Y-90962779D01*
X239258280Y-90911268D01*
X239258280Y-88509268D01*
X239277965Y-88442229D01*
X239330769Y-88396474D01*
X239382280Y-88385268D01*
X241843538Y-88385268D01*
X241910577Y-88404953D01*
G37*
%TD.AperFunction*%
%TD*%
%TA.AperFunction,Conductor*%
%TO.N,GND*%
G36*
X204531154Y-100451584D02*
G01*
X204568323Y-100457585D01*
X207218595Y-100503280D01*
X207286229Y-100496891D01*
X207339878Y-100485703D01*
X207380658Y-100474197D01*
X207393027Y-100466962D01*
X207455630Y-100450000D01*
X210376000Y-100450000D01*
X210443039Y-100469685D01*
X210488794Y-100522489D01*
X210500000Y-100574000D01*
X210500000Y-100926000D01*
X210480315Y-100993039D01*
X210427511Y-101038794D01*
X210376000Y-101050000D01*
X208900000Y-101050000D01*
X208900000Y-101415236D01*
X208893042Y-101456189D01*
X208889854Y-101465298D01*
X208889853Y-101465305D01*
X208887000Y-101495730D01*
X208887000Y-101904269D01*
X208889852Y-101934689D01*
X208889854Y-101934699D01*
X208893041Y-101943808D01*
X208900000Y-101984761D01*
X208900000Y-102024659D01*
X208880315Y-102091698D01*
X208827511Y-102137453D01*
X208774667Y-102148652D01*
X204372667Y-102101319D01*
X204305843Y-102080915D01*
X204260658Y-102027622D01*
X204250000Y-101977326D01*
X204250000Y-100574000D01*
X204269685Y-100506961D01*
X204322489Y-100461206D01*
X204374000Y-100450000D01*
X204511393Y-100450000D01*
X204531154Y-100451584D01*
G37*
%TD.AperFunction*%
%TD*%
%TA.AperFunction,Conductor*%
%TO.N,VCC*%
G36*
X214293039Y-96219685D02*
G01*
X214338794Y-96272489D01*
X214350000Y-96324000D01*
X214350000Y-101976000D01*
X214330315Y-102043039D01*
X214277511Y-102088794D01*
X214226000Y-102100000D01*
X211574000Y-102100000D01*
X211506961Y-102080315D01*
X211461206Y-102027511D01*
X211450000Y-101976000D01*
X211450000Y-100524500D01*
X211469685Y-100457461D01*
X211522489Y-100411706D01*
X211574000Y-100400500D01*
X212691770Y-100400500D01*
X212722199Y-100397646D01*
X212722201Y-100397646D01*
X212786290Y-100375219D01*
X212850382Y-100352793D01*
X212889084Y-100324229D01*
X212954712Y-100300259D01*
X212962717Y-100300000D01*
X213250000Y-100300000D01*
X213250000Y-99100000D01*
X211574000Y-99100000D01*
X211506961Y-99080315D01*
X211461206Y-99027511D01*
X211450000Y-98976000D01*
X211450000Y-96324000D01*
X211469685Y-96256961D01*
X211522489Y-96211206D01*
X211574000Y-96200000D01*
X214226000Y-96200000D01*
X214293039Y-96219685D01*
G37*
%TD.AperFunction*%
%TD*%
%TA.AperFunction,Conductor*%
%TO.N,Net-(D1-A)*%
G36*
X241085597Y-92704953D02*
G01*
X241106239Y-92721587D01*
X241131931Y-92747279D01*
X241240768Y-92800487D01*
X241240769Y-92800487D01*
X241240771Y-92800488D01*
X241311331Y-92810768D01*
X241908780Y-92810767D01*
X241975819Y-92830451D01*
X242021574Y-92883255D01*
X242032780Y-92934767D01*
X242032780Y-92961268D01*
X242013095Y-93028307D01*
X241960291Y-93074062D01*
X241908780Y-93085268D01*
X241308280Y-93085268D01*
X240889162Y-93416149D01*
X240358280Y-93835267D01*
X240358280Y-96411268D01*
X240338595Y-96478307D01*
X240285791Y-96524062D01*
X240234280Y-96535268D01*
X239430681Y-96535268D01*
X239363642Y-96515583D01*
X239317887Y-96462779D01*
X239306691Y-96412878D01*
X239259911Y-92810878D01*
X239278724Y-92743589D01*
X239330929Y-92697152D01*
X239383901Y-92685268D01*
X241018558Y-92685268D01*
X241085597Y-92704953D01*
G37*
%TD.AperFunction*%
%TD*%
M02*
