%TF.GenerationSoftware,KiCad,Pcbnew,8.0.9*%
%TF.CreationDate,2025-03-06T21:03:41+08:00*%
%TF.ProjectId,CCD_Sensor_ZYNQ,4343445f-5365-46e7-936f-725f5a594e51,rev?*%
%TF.SameCoordinates,Original*%
%TF.FileFunction,Paste,Bot*%
%TF.FilePolarity,Positive*%
%FSLAX46Y46*%
G04 Gerber Fmt 4.6, Leading zero omitted, Abs format (unit mm)*
G04 Created by KiCad (PCBNEW 8.0.9) date 2025-03-06 21:03:41*
%MOMM*%
%LPD*%
G01*
G04 APERTURE LIST*
G04 Aperture macros list*
%AMRoundRect*
0 Rectangle with rounded corners*
0 $1 Rounding radius*
0 $2 $3 $4 $5 $6 $7 $8 $9 X,Y pos of 4 corners*
0 Add a 4 corners polygon primitive as box body*
4,1,4,$2,$3,$4,$5,$6,$7,$8,$9,$2,$3,0*
0 Add four circle primitives for the rounded corners*
1,1,$1+$1,$2,$3*
1,1,$1+$1,$4,$5*
1,1,$1+$1,$6,$7*
1,1,$1+$1,$8,$9*
0 Add four rect primitives between the rounded corners*
20,1,$1+$1,$2,$3,$4,$5,0*
20,1,$1+$1,$4,$5,$6,$7,0*
20,1,$1+$1,$6,$7,$8,$9,0*
20,1,$1+$1,$8,$9,$2,$3,0*%
G04 Aperture macros list end*
%ADD10R,1.550000X1.300000*%
%ADD11RoundRect,0.237500X-0.237500X0.300000X-0.237500X-0.300000X0.237500X-0.300000X0.237500X0.300000X0*%
%ADD12RoundRect,0.200000X0.275000X-0.200000X0.275000X0.200000X-0.275000X0.200000X-0.275000X-0.200000X0*%
%ADD13RoundRect,0.250000X-0.475000X0.337500X-0.475000X-0.337500X0.475000X-0.337500X0.475000X0.337500X0*%
%ADD14RoundRect,0.225000X0.250000X-0.225000X0.250000X0.225000X-0.250000X0.225000X-0.250000X-0.225000X0*%
G04 APERTURE END LIST*
D10*
%TO.C,SW3*%
X264130000Y-86900000D03*
X256170000Y-86900000D03*
X264130000Y-91400000D03*
X256170000Y-91400000D03*
%TD*%
D11*
%TO.C,C27*%
X205058280Y-86635268D03*
X205058280Y-88360268D03*
%TD*%
D12*
%TO.C,R10*%
X239250000Y-112850000D03*
X239250000Y-111200000D03*
%TD*%
%TO.C,R5*%
X247250000Y-112750000D03*
X247250000Y-111100000D03*
%TD*%
D10*
%TO.C,SW5*%
X264300000Y-105250000D03*
X256340000Y-105250000D03*
X264300000Y-109750000D03*
X256340000Y-109750000D03*
%TD*%
D12*
%TO.C,R22*%
X240750000Y-112850000D03*
X240750000Y-111200000D03*
%TD*%
D13*
%TO.C,C28*%
X206858280Y-86472768D03*
X206858280Y-88547768D03*
%TD*%
D12*
%TO.C,R12*%
X244250000Y-112750000D03*
X244250000Y-111100000D03*
%TD*%
D10*
%TO.C,SW4*%
X264280000Y-98050000D03*
X256320000Y-98050000D03*
X264280000Y-102550000D03*
X256320000Y-102550000D03*
%TD*%
D12*
%TO.C,R8*%
X245750000Y-112750000D03*
X245750000Y-111100000D03*
%TD*%
D10*
%TO.C,SW6*%
X244230000Y-66300000D03*
X236270000Y-66300000D03*
X244230000Y-70800000D03*
X236270000Y-70800000D03*
%TD*%
%TO.C,SW1*%
X258530000Y-66300000D03*
X250570000Y-66300000D03*
X258530000Y-70800000D03*
X250570000Y-70800000D03*
%TD*%
D13*
%TO.C,C14*%
X196558280Y-90110268D03*
X196558280Y-92185268D03*
%TD*%
D14*
%TO.C,C41*%
X242750000Y-112750000D03*
X242750000Y-111200000D03*
%TD*%
D10*
%TO.C,SW2*%
X264180000Y-79550000D03*
X256220000Y-79550000D03*
X264180000Y-84050000D03*
X256220000Y-84050000D03*
%TD*%
D11*
%TO.C,C13*%
X198408280Y-90285268D03*
X198408280Y-92010268D03*
%TD*%
M02*
