%TF.GenerationSoftware,KiCad,Pcbnew,8.0.9*%
%TF.CreationDate,2025-03-06T21:03:41+08:00*%
%TF.ProjectId,CCD_Sensor_ZYNQ,4343445f-5365-46e7-936f-725f5a594e51,rev?*%
%TF.SameCoordinates,Original*%
%TF.FileFunction,Legend,Bot*%
%TF.FilePolarity,Positive*%
%FSLAX46Y46*%
G04 Gerber Fmt 4.6, Leading zero omitted, Abs format (unit mm)*
G04 Created by KiCad (PCBNEW 8.0.9) date 2025-03-06 21:03:41*
%MOMM*%
%LPD*%
G01*
G04 APERTURE LIST*
%ADD10C,0.400000*%
%ADD11C,0.250000*%
%ADD12C,0.120000*%
G04 APERTURE END LIST*
D10*
X254085652Y-107422533D02*
X252561843Y-107422533D01*
X216934438Y-84289347D02*
X214934438Y-84289347D01*
X216743961Y-86384585D02*
X216839200Y-86289347D01*
X216839200Y-86289347D02*
X216934438Y-86003633D01*
X216934438Y-86003633D02*
X216934438Y-85813157D01*
X216934438Y-85813157D02*
X216839200Y-85527442D01*
X216839200Y-85527442D02*
X216648723Y-85336966D01*
X216648723Y-85336966D02*
X216458247Y-85241728D01*
X216458247Y-85241728D02*
X216077295Y-85146490D01*
X216077295Y-85146490D02*
X215791580Y-85146490D01*
X215791580Y-85146490D02*
X215410628Y-85241728D01*
X215410628Y-85241728D02*
X215220152Y-85336966D01*
X215220152Y-85336966D02*
X215029676Y-85527442D01*
X215029676Y-85527442D02*
X214934438Y-85813157D01*
X214934438Y-85813157D02*
X214934438Y-86003633D01*
X214934438Y-86003633D02*
X215029676Y-86289347D01*
X215029676Y-86289347D02*
X215124914Y-86384585D01*
X214934438Y-87051252D02*
X216934438Y-88384585D01*
X214934438Y-88384585D02*
X216934438Y-87051252D01*
X215601104Y-90003633D02*
X216934438Y-90003633D01*
X214839200Y-89527442D02*
X216267771Y-89051252D01*
X216267771Y-89051252D02*
X216267771Y-90289347D01*
X214934438Y-92003633D02*
X214934438Y-91051252D01*
X214934438Y-91051252D02*
X215886819Y-90956014D01*
X215886819Y-90956014D02*
X215791580Y-91051252D01*
X215791580Y-91051252D02*
X215696342Y-91241728D01*
X215696342Y-91241728D02*
X215696342Y-91717919D01*
X215696342Y-91717919D02*
X215791580Y-91908395D01*
X215791580Y-91908395D02*
X215886819Y-92003633D01*
X215886819Y-92003633D02*
X216077295Y-92098871D01*
X216077295Y-92098871D02*
X216553485Y-92098871D01*
X216553485Y-92098871D02*
X216743961Y-92003633D01*
X216743961Y-92003633D02*
X216839200Y-91908395D01*
X216839200Y-91908395D02*
X216934438Y-91717919D01*
X216934438Y-91717919D02*
X216934438Y-91241728D01*
X216934438Y-91241728D02*
X216839200Y-91051252D01*
X216839200Y-91051252D02*
X216743961Y-90956014D01*
X214934438Y-92765538D02*
X214934438Y-94003633D01*
X214934438Y-94003633D02*
X215696342Y-93336966D01*
X215696342Y-93336966D02*
X215696342Y-93622681D01*
X215696342Y-93622681D02*
X215791580Y-93813157D01*
X215791580Y-93813157D02*
X215886819Y-93908395D01*
X215886819Y-93908395D02*
X216077295Y-94003633D01*
X216077295Y-94003633D02*
X216553485Y-94003633D01*
X216553485Y-94003633D02*
X216743961Y-93908395D01*
X216743961Y-93908395D02*
X216839200Y-93813157D01*
X216839200Y-93813157D02*
X216934438Y-93622681D01*
X216934438Y-93622681D02*
X216934438Y-93051252D01*
X216934438Y-93051252D02*
X216839200Y-92860776D01*
X216839200Y-92860776D02*
X216743961Y-92765538D01*
X216743961Y-97527443D02*
X216839200Y-97432205D01*
X216839200Y-97432205D02*
X216934438Y-97146491D01*
X216934438Y-97146491D02*
X216934438Y-96956015D01*
X216934438Y-96956015D02*
X216839200Y-96670300D01*
X216839200Y-96670300D02*
X216648723Y-96479824D01*
X216648723Y-96479824D02*
X216458247Y-96384586D01*
X216458247Y-96384586D02*
X216077295Y-96289348D01*
X216077295Y-96289348D02*
X215791580Y-96289348D01*
X215791580Y-96289348D02*
X215410628Y-96384586D01*
X215410628Y-96384586D02*
X215220152Y-96479824D01*
X215220152Y-96479824D02*
X215029676Y-96670300D01*
X215029676Y-96670300D02*
X214934438Y-96956015D01*
X214934438Y-96956015D02*
X214934438Y-97146491D01*
X214934438Y-97146491D02*
X215029676Y-97432205D01*
X215029676Y-97432205D02*
X215124914Y-97527443D01*
X216743961Y-99527443D02*
X216839200Y-99432205D01*
X216839200Y-99432205D02*
X216934438Y-99146491D01*
X216934438Y-99146491D02*
X216934438Y-98956015D01*
X216934438Y-98956015D02*
X216839200Y-98670300D01*
X216839200Y-98670300D02*
X216648723Y-98479824D01*
X216648723Y-98479824D02*
X216458247Y-98384586D01*
X216458247Y-98384586D02*
X216077295Y-98289348D01*
X216077295Y-98289348D02*
X215791580Y-98289348D01*
X215791580Y-98289348D02*
X215410628Y-98384586D01*
X215410628Y-98384586D02*
X215220152Y-98479824D01*
X215220152Y-98479824D02*
X215029676Y-98670300D01*
X215029676Y-98670300D02*
X214934438Y-98956015D01*
X214934438Y-98956015D02*
X214934438Y-99146491D01*
X214934438Y-99146491D02*
X215029676Y-99432205D01*
X215029676Y-99432205D02*
X215124914Y-99527443D01*
X216934438Y-100384586D02*
X214934438Y-100384586D01*
X214934438Y-100384586D02*
X214934438Y-100860776D01*
X214934438Y-100860776D02*
X215029676Y-101146491D01*
X215029676Y-101146491D02*
X215220152Y-101336967D01*
X215220152Y-101336967D02*
X215410628Y-101432205D01*
X215410628Y-101432205D02*
X215791580Y-101527443D01*
X215791580Y-101527443D02*
X216077295Y-101527443D01*
X216077295Y-101527443D02*
X216458247Y-101432205D01*
X216458247Y-101432205D02*
X216648723Y-101336967D01*
X216648723Y-101336967D02*
X216839200Y-101146491D01*
X216839200Y-101146491D02*
X216934438Y-100860776D01*
X216934438Y-100860776D02*
X216934438Y-100384586D01*
X262510652Y-113884438D02*
X262510652Y-111884438D01*
X261653509Y-113789200D02*
X261367795Y-113884438D01*
X261367795Y-113884438D02*
X260891604Y-113884438D01*
X260891604Y-113884438D02*
X260701128Y-113789200D01*
X260701128Y-113789200D02*
X260605890Y-113693961D01*
X260605890Y-113693961D02*
X260510652Y-113503485D01*
X260510652Y-113503485D02*
X260510652Y-113313009D01*
X260510652Y-113313009D02*
X260605890Y-113122533D01*
X260605890Y-113122533D02*
X260701128Y-113027295D01*
X260701128Y-113027295D02*
X260891604Y-112932057D01*
X260891604Y-112932057D02*
X261272557Y-112836819D01*
X261272557Y-112836819D02*
X261463033Y-112741580D01*
X261463033Y-112741580D02*
X261558271Y-112646342D01*
X261558271Y-112646342D02*
X261653509Y-112455866D01*
X261653509Y-112455866D02*
X261653509Y-112265390D01*
X261653509Y-112265390D02*
X261558271Y-112074914D01*
X261558271Y-112074914D02*
X261463033Y-111979676D01*
X261463033Y-111979676D02*
X261272557Y-111884438D01*
X261272557Y-111884438D02*
X260796366Y-111884438D01*
X260796366Y-111884438D02*
X260510652Y-111979676D01*
X259272557Y-111884438D02*
X258891604Y-111884438D01*
X258891604Y-111884438D02*
X258701128Y-111979676D01*
X258701128Y-111979676D02*
X258510652Y-112170152D01*
X258510652Y-112170152D02*
X258415414Y-112551104D01*
X258415414Y-112551104D02*
X258415414Y-113217771D01*
X258415414Y-113217771D02*
X258510652Y-113598723D01*
X258510652Y-113598723D02*
X258701128Y-113789200D01*
X258701128Y-113789200D02*
X258891604Y-113884438D01*
X258891604Y-113884438D02*
X259272557Y-113884438D01*
X259272557Y-113884438D02*
X259463033Y-113789200D01*
X259463033Y-113789200D02*
X259653509Y-113598723D01*
X259653509Y-113598723D02*
X259748747Y-113217771D01*
X259748747Y-113217771D02*
X259748747Y-112551104D01*
X259748747Y-112551104D02*
X259653509Y-112170152D01*
X259653509Y-112170152D02*
X259463033Y-111979676D01*
X259463033Y-111979676D02*
X259272557Y-111884438D01*
X215654938Y-118530152D02*
X214131128Y-118530152D01*
X215654938Y-119482533D02*
X214321604Y-119482533D01*
X215845414Y-120434914D02*
X214131128Y-120434914D01*
X215083509Y-119482533D02*
X215083509Y-122149200D01*
X213559700Y-119292057D02*
X213559700Y-121577771D01*
X212607319Y-117768247D02*
X212607319Y-119292057D01*
X213559700Y-119292057D02*
X211464462Y-119292057D01*
X211464462Y-119292057D02*
X211464462Y-121577771D01*
X213559700Y-117958723D02*
X213178747Y-118911104D01*
X212416843Y-121768247D02*
X211083509Y-122339676D01*
X215273985Y-117768247D02*
X215845414Y-118911104D01*
X211464462Y-118149200D02*
X211845414Y-118911104D01*
X214131128Y-121768247D02*
X215273985Y-122149200D01*
X212607319Y-119863485D02*
X212607319Y-121387295D01*
X212607319Y-121387295D02*
X213178747Y-121958723D01*
X213178747Y-121958723D02*
X214131128Y-122339676D01*
X209369223Y-119292057D02*
X205559700Y-119292057D01*
X209369223Y-118149200D02*
X205559700Y-118149200D01*
X205559700Y-118149200D02*
X205559700Y-119101580D01*
X205559700Y-120053961D02*
X208416842Y-121006342D01*
X209369223Y-118149200D02*
X209369223Y-120244438D01*
X209369223Y-120244438D02*
X209750176Y-121958723D01*
X208226366Y-119673009D02*
X208226366Y-122149200D01*
X208226366Y-122149200D02*
X205369223Y-122149200D01*
X205369223Y-122149200D02*
X205178747Y-121387295D01*
X204035890Y-118911104D02*
X202131128Y-118911104D01*
X201559699Y-119482533D02*
X199273985Y-119482533D01*
X201559699Y-120625390D02*
X199273985Y-120625390D01*
X201559699Y-121958723D02*
X199273985Y-121958723D01*
X203083509Y-117768247D02*
X203083509Y-122339676D01*
X201559699Y-118149200D02*
X201559699Y-122339676D01*
X201559699Y-118149200D02*
X199273985Y-118149200D01*
X199273985Y-118149200D02*
X199273985Y-122339676D01*
X203083509Y-119673009D02*
X202131128Y-120434914D01*
X203083509Y-118911104D02*
X204035890Y-121196819D01*
X198131128Y-118911104D02*
X196226366Y-118911104D01*
X194131128Y-122339676D02*
X193369223Y-122339676D01*
X197178747Y-117768247D02*
X197178747Y-122339676D01*
X195654937Y-118149200D02*
X194131128Y-118149200D01*
X194131128Y-118149200D02*
X194131128Y-122339676D01*
X193178747Y-121577771D02*
X193369223Y-122339676D01*
X197178747Y-119673009D02*
X196226366Y-120434914D01*
X197178747Y-118911104D02*
X198131128Y-121196819D01*
X195654937Y-118149200D02*
X195654937Y-119863485D01*
X195654937Y-119863485D02*
X195845414Y-121006342D01*
X195845414Y-121006342D02*
X196416842Y-122339676D01*
X262435652Y-93861819D02*
X261768985Y-93861819D01*
X261483271Y-94909438D02*
X262435652Y-94909438D01*
X262435652Y-94909438D02*
X262435652Y-92909438D01*
X262435652Y-92909438D02*
X261483271Y-92909438D01*
X260816604Y-92909438D02*
X259483271Y-94909438D01*
X259483271Y-92909438D02*
X260816604Y-94909438D01*
X258721366Y-94909438D02*
X258721366Y-92909438D01*
X258721366Y-92909438D02*
X257959461Y-92909438D01*
X257959461Y-92909438D02*
X257768985Y-93004676D01*
X257768985Y-93004676D02*
X257673747Y-93099914D01*
X257673747Y-93099914D02*
X257578509Y-93290390D01*
X257578509Y-93290390D02*
X257578509Y-93576104D01*
X257578509Y-93576104D02*
X257673747Y-93766580D01*
X257673747Y-93766580D02*
X257768985Y-93861819D01*
X257768985Y-93861819D02*
X257959461Y-93957057D01*
X257959461Y-93957057D02*
X258721366Y-93957057D01*
X254210652Y-89272533D02*
X252686843Y-89272533D01*
X254235652Y-100097533D02*
X252711843Y-100097533D01*
X253473747Y-100859438D02*
X253473747Y-99335628D01*
X254360652Y-81947533D02*
X252836843Y-81947533D01*
X253598747Y-82709438D02*
X253598747Y-81185628D01*
X260705890Y-74614200D02*
X260420176Y-74709438D01*
X260420176Y-74709438D02*
X259943985Y-74709438D01*
X259943985Y-74709438D02*
X259753509Y-74614200D01*
X259753509Y-74614200D02*
X259658271Y-74518961D01*
X259658271Y-74518961D02*
X259563033Y-74328485D01*
X259563033Y-74328485D02*
X259563033Y-74138009D01*
X259563033Y-74138009D02*
X259658271Y-73947533D01*
X259658271Y-73947533D02*
X259753509Y-73852295D01*
X259753509Y-73852295D02*
X259943985Y-73757057D01*
X259943985Y-73757057D02*
X260324938Y-73661819D01*
X260324938Y-73661819D02*
X260515414Y-73566580D01*
X260515414Y-73566580D02*
X260610652Y-73471342D01*
X260610652Y-73471342D02*
X260705890Y-73280866D01*
X260705890Y-73280866D02*
X260705890Y-73090390D01*
X260705890Y-73090390D02*
X260610652Y-72899914D01*
X260610652Y-72899914D02*
X260515414Y-72804676D01*
X260515414Y-72804676D02*
X260324938Y-72709438D01*
X260324938Y-72709438D02*
X259848747Y-72709438D01*
X259848747Y-72709438D02*
X259563033Y-72804676D01*
X258705890Y-74709438D02*
X258705890Y-72709438D01*
X258705890Y-73661819D02*
X257563033Y-73661819D01*
X257563033Y-74709438D02*
X257563033Y-72709438D01*
X256610652Y-72709438D02*
X256610652Y-74328485D01*
X256610652Y-74328485D02*
X256515414Y-74518961D01*
X256515414Y-74518961D02*
X256420176Y-74614200D01*
X256420176Y-74614200D02*
X256229700Y-74709438D01*
X256229700Y-74709438D02*
X255848747Y-74709438D01*
X255848747Y-74709438D02*
X255658271Y-74614200D01*
X255658271Y-74614200D02*
X255563033Y-74518961D01*
X255563033Y-74518961D02*
X255467795Y-74328485D01*
X255467795Y-74328485D02*
X255467795Y-72709438D01*
X254801128Y-72709438D02*
X253658271Y-72709438D01*
X254229700Y-74709438D02*
X254229700Y-72709438D01*
X253277318Y-72709438D02*
X252134461Y-72709438D01*
X252705890Y-74709438D02*
X252705890Y-72709438D01*
X251467794Y-73661819D02*
X250801127Y-73661819D01*
X250515413Y-74709438D02*
X251467794Y-74709438D01*
X251467794Y-74709438D02*
X251467794Y-72709438D01*
X251467794Y-72709438D02*
X250515413Y-72709438D01*
X248515413Y-74709438D02*
X249182080Y-73757057D01*
X249658270Y-74709438D02*
X249658270Y-72709438D01*
X249658270Y-72709438D02*
X248896365Y-72709438D01*
X248896365Y-72709438D02*
X248705889Y-72804676D01*
X248705889Y-72804676D02*
X248610651Y-72899914D01*
X248610651Y-72899914D02*
X248515413Y-73090390D01*
X248515413Y-73090390D02*
X248515413Y-73376104D01*
X248515413Y-73376104D02*
X248610651Y-73566580D01*
X248610651Y-73566580D02*
X248705889Y-73661819D01*
X248705889Y-73661819D02*
X248896365Y-73757057D01*
X248896365Y-73757057D02*
X249658270Y-73757057D01*
X243885652Y-74584438D02*
X243885652Y-72584438D01*
X243885652Y-72584438D02*
X243218985Y-74013009D01*
X243218985Y-74013009D02*
X242552319Y-72584438D01*
X242552319Y-72584438D02*
X242552319Y-74584438D01*
X241599938Y-73536819D02*
X240933271Y-73536819D01*
X240647557Y-74584438D02*
X241599938Y-74584438D01*
X241599938Y-74584438D02*
X241599938Y-72584438D01*
X241599938Y-72584438D02*
X240647557Y-72584438D01*
X239790414Y-74584438D02*
X239790414Y-72584438D01*
X239790414Y-72584438D02*
X238647557Y-74584438D01*
X238647557Y-74584438D02*
X238647557Y-72584438D01*
X237695176Y-72584438D02*
X237695176Y-74203485D01*
X237695176Y-74203485D02*
X237599938Y-74393961D01*
X237599938Y-74393961D02*
X237504700Y-74489200D01*
X237504700Y-74489200D02*
X237314224Y-74584438D01*
X237314224Y-74584438D02*
X236933271Y-74584438D01*
X236933271Y-74584438D02*
X236742795Y-74489200D01*
X236742795Y-74489200D02*
X236647557Y-74393961D01*
X236647557Y-74393961D02*
X236552319Y-74203485D01*
X236552319Y-74203485D02*
X236552319Y-72584438D01*
D11*
X212739336Y-73792238D02*
X212739336Y-71792238D01*
X212739336Y-71792238D02*
X211596479Y-73792238D01*
X211596479Y-73792238D02*
X211596479Y-71792238D01*
X210358384Y-73792238D02*
X210548860Y-73697000D01*
X210548860Y-73697000D02*
X210644098Y-73601761D01*
X210644098Y-73601761D02*
X210739336Y-73411285D01*
X210739336Y-73411285D02*
X210739336Y-72839857D01*
X210739336Y-72839857D02*
X210644098Y-72649380D01*
X210644098Y-72649380D02*
X210548860Y-72554142D01*
X210548860Y-72554142D02*
X210358384Y-72458904D01*
X210358384Y-72458904D02*
X210072669Y-72458904D01*
X210072669Y-72458904D02*
X209882193Y-72554142D01*
X209882193Y-72554142D02*
X209786955Y-72649380D01*
X209786955Y-72649380D02*
X209691717Y-72839857D01*
X209691717Y-72839857D02*
X209691717Y-73411285D01*
X209691717Y-73411285D02*
X209786955Y-73601761D01*
X209786955Y-73601761D02*
X209882193Y-73697000D01*
X209882193Y-73697000D02*
X210072669Y-73792238D01*
X210072669Y-73792238D02*
X210358384Y-73792238D01*
X209120288Y-72458904D02*
X208358384Y-72458904D01*
X208834574Y-71792238D02*
X208834574Y-73506523D01*
X208834574Y-73506523D02*
X208739336Y-73697000D01*
X208739336Y-73697000D02*
X208548860Y-73792238D01*
X208548860Y-73792238D02*
X208358384Y-73792238D01*
X206167907Y-72744619D02*
X205501240Y-72744619D01*
X205215526Y-73792238D02*
X206167907Y-73792238D01*
X206167907Y-73792238D02*
X206167907Y-71792238D01*
X206167907Y-71792238D02*
X205215526Y-71792238D01*
X204358383Y-73030333D02*
X202834574Y-73030333D01*
X201882193Y-73792238D02*
X201882193Y-71792238D01*
X201882193Y-71792238D02*
X201215526Y-73220809D01*
X201215526Y-73220809D02*
X200548860Y-71792238D01*
X200548860Y-71792238D02*
X200548860Y-73792238D01*
X199310765Y-73792238D02*
X199501241Y-73697000D01*
X199501241Y-73697000D02*
X199596479Y-73601761D01*
X199596479Y-73601761D02*
X199691717Y-73411285D01*
X199691717Y-73411285D02*
X199691717Y-72839857D01*
X199691717Y-72839857D02*
X199596479Y-72649380D01*
X199596479Y-72649380D02*
X199501241Y-72554142D01*
X199501241Y-72554142D02*
X199310765Y-72458904D01*
X199310765Y-72458904D02*
X199025050Y-72458904D01*
X199025050Y-72458904D02*
X198834574Y-72554142D01*
X198834574Y-72554142D02*
X198739336Y-72649380D01*
X198739336Y-72649380D02*
X198644098Y-72839857D01*
X198644098Y-72839857D02*
X198644098Y-73411285D01*
X198644098Y-73411285D02*
X198739336Y-73601761D01*
X198739336Y-73601761D02*
X198834574Y-73697000D01*
X198834574Y-73697000D02*
X199025050Y-73792238D01*
X199025050Y-73792238D02*
X199310765Y-73792238D01*
X196929812Y-72458904D02*
X196929812Y-73792238D01*
X197786955Y-72458904D02*
X197786955Y-73506523D01*
X197786955Y-73506523D02*
X197691717Y-73697000D01*
X197691717Y-73697000D02*
X197501241Y-73792238D01*
X197501241Y-73792238D02*
X197215526Y-73792238D01*
X197215526Y-73792238D02*
X197025050Y-73697000D01*
X197025050Y-73697000D02*
X196929812Y-73601761D01*
X195977431Y-72458904D02*
X195977431Y-73792238D01*
X195977431Y-72649380D02*
X195882193Y-72554142D01*
X195882193Y-72554142D02*
X195691717Y-72458904D01*
X195691717Y-72458904D02*
X195406002Y-72458904D01*
X195406002Y-72458904D02*
X195215526Y-72554142D01*
X195215526Y-72554142D02*
X195120288Y-72744619D01*
X195120288Y-72744619D02*
X195120288Y-73792238D01*
X194453621Y-72458904D02*
X193691717Y-72458904D01*
X194167907Y-71792238D02*
X194167907Y-73506523D01*
X194167907Y-73506523D02*
X194072669Y-73697000D01*
X194072669Y-73697000D02*
X193882193Y-73792238D01*
X193882193Y-73792238D02*
X193691717Y-73792238D01*
D12*
%TO.C,SW3*%
X256920000Y-85920000D02*
X263380000Y-85920000D01*
X256920000Y-85950000D02*
X256920000Y-85920000D01*
X256920000Y-90450000D02*
X256920000Y-87850000D01*
X256920000Y-92350000D02*
X256920000Y-92380000D01*
X256920000Y-92380000D02*
X263380000Y-92380000D01*
X263380000Y-85920000D02*
X263380000Y-85950000D01*
X263380000Y-90450000D02*
X263380000Y-87850000D01*
X263380000Y-92350000D02*
X263380000Y-92380000D01*
%TO.C,C27*%
X204548280Y-87644035D02*
X204548280Y-87351501D01*
X205568280Y-87644035D02*
X205568280Y-87351501D01*
%TO.C,R10*%
X238727500Y-111787742D02*
X238727500Y-112262258D01*
X239772500Y-111787742D02*
X239772500Y-112262258D01*
%TO.C,R5*%
X246727500Y-111687742D02*
X246727500Y-112162258D01*
X247772500Y-111687742D02*
X247772500Y-112162258D01*
%TO.C,SW5*%
X257090000Y-104270000D02*
X263550000Y-104270000D01*
X257090000Y-104300000D02*
X257090000Y-104270000D01*
X257090000Y-108800000D02*
X257090000Y-106200000D01*
X257090000Y-110700000D02*
X257090000Y-110730000D01*
X257090000Y-110730000D02*
X263550000Y-110730000D01*
X263550000Y-104270000D02*
X263550000Y-104300000D01*
X263550000Y-108800000D02*
X263550000Y-106200000D01*
X263550000Y-110700000D02*
X263550000Y-110730000D01*
%TO.C,R22*%
X240227500Y-111787742D02*
X240227500Y-112262258D01*
X241272500Y-111787742D02*
X241272500Y-112262258D01*
%TO.C,C28*%
X206123280Y-87771520D02*
X206123280Y-87249016D01*
X207593280Y-87771520D02*
X207593280Y-87249016D01*
%TO.C,R12*%
X243727500Y-111687742D02*
X243727500Y-112162258D01*
X244772500Y-111687742D02*
X244772500Y-112162258D01*
%TO.C,SW4*%
X257070000Y-97070000D02*
X263530000Y-97070000D01*
X257070000Y-97100000D02*
X257070000Y-97070000D01*
X257070000Y-101600000D02*
X257070000Y-99000000D01*
X257070000Y-103500000D02*
X257070000Y-103530000D01*
X257070000Y-103530000D02*
X263530000Y-103530000D01*
X263530000Y-97070000D02*
X263530000Y-97100000D01*
X263530000Y-101600000D02*
X263530000Y-99000000D01*
X263530000Y-103500000D02*
X263530000Y-103530000D01*
%TO.C,R8*%
X245227500Y-111687742D02*
X245227500Y-112162258D01*
X246272500Y-111687742D02*
X246272500Y-112162258D01*
%TO.C,SW6*%
X237020000Y-65320000D02*
X243480000Y-65320000D01*
X237020000Y-65350000D02*
X237020000Y-65320000D01*
X237020000Y-69850000D02*
X237020000Y-67250000D01*
X237020000Y-71750000D02*
X237020000Y-71780000D01*
X237020000Y-71780000D02*
X243480000Y-71780000D01*
X243480000Y-65320000D02*
X243480000Y-65350000D01*
X243480000Y-69850000D02*
X243480000Y-67250000D01*
X243480000Y-71750000D02*
X243480000Y-71780000D01*
%TO.C,SW1*%
X251320000Y-65320000D02*
X257780000Y-65320000D01*
X251320000Y-65350000D02*
X251320000Y-65320000D01*
X251320000Y-69850000D02*
X251320000Y-67250000D01*
X251320000Y-71750000D02*
X251320000Y-71780000D01*
X251320000Y-71780000D02*
X257780000Y-71780000D01*
X257780000Y-65320000D02*
X257780000Y-65350000D01*
X257780000Y-69850000D02*
X257780000Y-67250000D01*
X257780000Y-71750000D02*
X257780000Y-71780000D01*
%TO.C,C14*%
X195823280Y-91409020D02*
X195823280Y-90886516D01*
X197293280Y-91409020D02*
X197293280Y-90886516D01*
%TO.C,C41*%
X242240000Y-111834420D02*
X242240000Y-112115580D01*
X243260000Y-111834420D02*
X243260000Y-112115580D01*
%TO.C,SW2*%
X256970000Y-78570000D02*
X263430000Y-78570000D01*
X256970000Y-78600000D02*
X256970000Y-78570000D01*
X256970000Y-83100000D02*
X256970000Y-80500000D01*
X256970000Y-85000000D02*
X256970000Y-85030000D01*
X256970000Y-85030000D02*
X263430000Y-85030000D01*
X263430000Y-78570000D02*
X263430000Y-78600000D01*
X263430000Y-83100000D02*
X263430000Y-80500000D01*
X263430000Y-85000000D02*
X263430000Y-85030000D01*
%TO.C,ICX1*%
X187665523Y-79377147D02*
X187665523Y-108627146D01*
X187665523Y-108627146D02*
X218313523Y-108627145D01*
X217953523Y-89127146D02*
X218313523Y-89127146D01*
X217953523Y-98877145D02*
X217953523Y-89127146D01*
X218313523Y-79377146D02*
X187665523Y-79377147D01*
X218313523Y-89127146D02*
X218313523Y-79377146D01*
X218313523Y-98877145D02*
X217953523Y-98877145D01*
X218313523Y-108627145D02*
X218313523Y-98877145D01*
%TO.C,C13*%
X197898280Y-91294035D02*
X197898280Y-91001501D01*
X198918280Y-91294035D02*
X198918280Y-91001501D01*
%TD*%
M02*
